<svg width="20" height="17" viewBox="0 0 20 17" fill="none" xmlns="http://www.w3.org/2000/svg">
<path d="M17.334 11.1667V9.91667C17.334 8.75 16.1673 7.83333 15.0006 7.83333C13.834 7.83333 12.6673 8.75 12.6673 9.91667V11.1667C12.1673 11.1667 11.6673 11.6667 11.6673 12.1667V15.0833C11.6673 15.6667 12.1673 16.1667 12.6673 16.1667H17.2507C17.834 16.1667 18.334 15.6667 18.334 15.1667V12.25C18.334 11.6667 17.834 11.1667 17.334 11.1667ZM16.2506 11.1667H13.7506V9.91667C13.7506 9.25 14.334 8.83333 15.0006 8.83333C15.6673 8.83333 16.2506 9.25 16.2506 9.91667V11.1667ZM12.5007 7C11.7507 7.58333 11.2507 8.33333 11.084 9.25C10.7507 9.41667 10.4173 9.5 10.0007 9.5C8.58398 9.5 7.50065 8.41667 7.50065 7C7.50065 5.58333 8.58398 4.5 10.0007 4.5C11.4173 4.5 12.5007 5.58333 12.5007 7ZM10.0007 13.25C5.83398 13.25 2.25065 10.6667 0.833984 7C2.25065 3.33333 5.83398 0.75 10.0007 0.75C14.1673 0.75 17.7506 3.33333 19.1673 7C19.0006 7.41667 18.7506 7.83333 18.584 8.25C17.9173 7 16.5006 6.16667 15.0006 6.16667C14.6673 6.16667 14.4173 6.25 14.084 6.25C13.7506 4.33333 12.084 2.83333 10.0007 2.83333C7.66732 2.83333 5.83398 4.66667 5.83398 7C5.83398 9.33333 7.66732 11.1667 10.0007 11.1667H10.2507C10.084 11.5 10.0007 11.8333 10.0007 12.1667V13.25Z" fill="#266CA8"/>
</svg>
