<svg width="13" height="13" viewBox="0 0 13 13" fill="none" xmlns="http://www.w3.org/2000/svg">
<path fill-rule="evenodd" clip-rule="evenodd" d="M5.518 1.98714C5.76158 1.62181 6.09161 1.32228 6.47877 1.11515C6.86593 0.908025 7.29825 0.799703 7.73733 0.799805H7.87933C8.073 0.799781 8.26435 0.841948 8.44007 0.923372C8.61579 1.0048 8.77166 1.12352 8.89685 1.27129C9.02203 1.41907 9.11352 1.59233 9.16495 1.77905C9.21639 1.96576 9.22653 2.16144 9.19467 2.35247L8.78667 4.7998H10.3733C10.6692 4.79979 10.9614 4.86542 11.2289 4.99198C11.4964 5.11855 11.7324 5.30288 11.92 5.53169C12.1076 5.7605 12.2422 6.02809 12.3139 6.31516C12.3856 6.60224 12.3927 6.90165 12.3347 7.1918L11.5347 11.1918C11.444 11.6452 11.1991 12.0533 10.8415 12.3465C10.4839 12.6396 10.0357 12.7998 9.57333 12.7998H2C1.46957 12.7998 0.960859 12.5891 0.585787 12.214C0.210714 11.8389 0 11.3302 0 10.7998V5.46647C0 5.28966 0.0702379 5.12009 0.195262 4.99507C0.320286 4.87004 0.489856 4.7998 0.666667 4.7998H3.28667C3.39639 4.79982 3.50443 4.77275 3.60119 4.721C3.69795 4.66925 3.78043 4.59442 3.84133 4.50314L5.518 1.98714ZM2.66667 6.13314H1.33333V10.7998C1.33333 10.9766 1.40357 11.1462 1.5286 11.2712C1.65362 11.3962 1.82319 11.4665 2 11.4665H2.66667V6.13314Z" fill="black" fill-opacity="0.3"/>
</svg>
