<svg width="15" height="29" viewBox="0 0 15 29" fill="none" xmlns="http://www.w3.org/2000/svg">
<path d="M2.96846 22.1852C3.03023 22.1316 3.11358 22.1019 3.2002 22.1027C3.28682 22.1034 3.36963 22.1346 3.43044 22.1892L6.76879 25.1936L6.83746 17.4132C6.83813 17.3366 6.87322 17.2634 6.935 17.2097C6.99678 17.156 7.08019 17.1263 7.16688 17.1271C7.25357 17.1279 7.33644 17.159 7.39727 17.2138C7.45809 17.2685 7.49188 17.3424 7.4912 17.419L7.42253 25.1994L10.8134 22.2544C10.8758 22.2039 10.958 22.1768 11.0427 22.1789C11.1273 22.181 11.2079 22.212 11.2673 22.2655C11.3267 22.319 11.3604 22.3907 11.3612 22.4656C11.3621 22.5405 11.33 22.6127 11.2718 22.667L7.31868 26.1008C7.25692 26.1544 7.17357 26.184 7.08695 26.1833C7.00033 26.1825 6.91752 26.1514 6.85671 26.0967L2.96486 22.5937C2.90413 22.5389 2.87039 22.4652 2.87107 22.3886C2.87174 22.312 2.90677 22.2388 2.96846 22.1852Z" fill="#2F65A7"/>
<path d="M11.2798 6.42376C11.2186 6.47391 11.1357 6.50224 11.049 6.50252C10.9624 6.5028 10.8792 6.47501 10.8178 6.42525L7.44419 3.69086L7.46741 10.8712C7.46763 10.942 7.43342 11.01 7.37227 11.0602C7.31113 11.1104 7.22808 11.1388 7.14139 11.139C7.05469 11.1393 6.97146 11.1115 6.90999 11.0617C6.84853 11.0118 6.81387 10.9441 6.81364 10.8734L6.79043 3.69297L3.43459 6.44912C3.37278 6.49644 3.2909 6.52236 3.20621 6.52141C3.12152 6.52047 3.04064 6.49273 2.98059 6.44405C2.92054 6.39537 2.88602 6.32955 2.8843 6.26045C2.88258 6.19135 2.9138 6.12437 2.97138 6.07361L6.88362 2.85997C6.94475 2.80982 7.02774 2.78149 7.11437 2.78121C7.20099 2.78093 7.28416 2.80872 7.34562 2.85847L11.2786 6.04676C11.3399 6.09658 11.3745 6.16426 11.3748 6.23495C11.375 6.30564 11.3408 6.37355 11.2798 6.42376Z" fill="#2F65A7"/>
</svg>
