<svg width="28" height="16" viewBox="0 0 28 16" fill="none" xmlns="http://www.w3.org/2000/svg">
<path d="M6.93108 3.84121C6.99175 3.90303 7.0254 3.98642 7.02463 4.07304C7.02387 4.15966 6.98875 4.24244 6.927 4.30318L3.53325 7.63809L12.3321 7.71575C12.4188 7.71652 12.5016 7.75169 12.5624 7.81353C12.6231 7.87537 12.6568 7.95882 12.6561 8.04551C12.6553 8.1322 12.6201 8.21504 12.5583 8.2758C12.4965 8.33655 12.413 8.37026 12.3263 8.36949L3.52748 8.29183L6.86184 11.6861C6.91903 11.7486 6.94974 11.8308 6.9475 11.9155C6.94526 12.0002 6.91024 12.0807 6.84982 12.14C6.7894 12.1994 6.7083 12.233 6.62361 12.2337C6.53891 12.2345 6.45724 12.2023 6.39578 12.144L2.50794 8.18695C2.44727 8.12512 2.41362 8.04173 2.41439 7.95511C2.41515 7.86849 2.45027 7.78571 2.51202 7.72497L6.4691 3.83713C6.53093 3.77646 6.61431 3.74281 6.70093 3.74357C6.78755 3.74434 6.87033 3.77945 6.93108 3.84121Z" fill="#2F65A7"/>
<path d="M21.3497 12.1526C21.2883 12.0915 21.2536 12.0085 21.2533 11.9219C21.2531 11.8352 21.2872 11.752 21.3482 11.6906L24.7015 8.31497L15.9024 8.34342C15.8157 8.3437 15.7324 8.30953 15.6709 8.24843C15.6094 8.18732 15.5747 8.10429 15.5744 8.01759C15.5741 7.9309 15.6083 7.84764 15.6694 7.78614C15.7305 7.72464 15.8135 7.68993 15.9002 7.68965L24.6994 7.66121L21.3243 4.30737C21.2664 4.24559 21.2347 4.16374 21.2359 4.07905C21.2371 3.99436 21.2712 3.91345 21.3309 3.85336C21.3906 3.79328 21.4713 3.75871 21.5559 3.75694C21.6406 3.75518 21.7227 3.78635 21.7848 3.84389L25.7201 7.7538C25.7815 7.81489 25.8162 7.89786 25.8164 7.98448C25.8167 8.07111 25.7826 8.1543 25.7216 8.21579L21.8117 12.1511C21.7506 12.2125 21.6676 12.2471 21.581 12.2474C21.4944 12.2477 21.4112 12.2136 21.3497 12.1526Z" fill="#2F65A7"/>
</svg>
