<svg width="239" height="55" viewBox="0 0 239 55" fill="none" xmlns="http://www.w3.org/2000/svg">
<path d="M48.7314 35.1956C48.7314 41.5769 48.7314 44.7676 46.749 46.75C44.7666 48.7324 41.576 48.7324 35.1946 48.7324H18.9509C12.5696 48.7324 9.3789 48.7324 7.39648 46.75C5.41406 44.7676 5.41406 41.5769 5.41406 35.1956V18.9518C5.41406 12.5705 5.41406 9.37988 7.39648 7.39746C9.3789 5.41504 12.5696 5.41504 18.9509 5.41504H35.1946C41.576 5.41504 44.7666 5.41504 46.749 7.39746C48.7314 9.37988 48.7314 12.5705 48.7314 18.9518V35.1956ZM13.5361 10.8301C12.2599 10.8301 11.6211 10.8301 11.2246 11.2266C10.8285 11.6231 10.8281 12.2612 10.8281 13.5371V40.6104C10.8281 41.8866 10.8281 42.5254 11.2246 42.9219C11.6211 43.3184 12.2599 43.3184 13.5361 43.3184H33.9912C35.2675 43.3184 35.9062 43.3184 36.3027 42.9219C36.6992 42.5254 36.6992 41.8866 36.6992 40.6104V39.7773C36.6992 38.5015 36.699 37.8633 36.3027 37.4668C35.9062 37.0703 35.2675 37.0703 33.9912 37.0703H19.5518C18.2758 37.0703 17.6377 37.0703 17.2412 36.6738C16.8448 36.2774 16.8447 35.6393 16.8447 34.3633V13.5371C16.8447 12.261 16.8446 11.6231 16.4482 11.2266C16.0518 10.8301 15.4138 10.8301 14.1377 10.8301H13.5361ZM24.3652 10.8301C23.089 10.8301 22.4512 10.8301 22.0547 11.2266C21.6583 11.623 21.6582 12.2609 21.6582 13.5371V29.3643C21.6582 30.6405 21.6582 31.2793 22.0547 31.6758C22.4512 32.072 23.0893 32.0723 24.3652 32.0723H33.668C34.0128 32.0725 34.292 32.3524 34.292 32.6973C34.2918 33.042 34.0127 33.321 33.668 33.3213H23.1621C21.8859 33.3213 21.2481 33.3212 20.8516 32.9248C20.4551 32.5283 20.4551 31.8905 20.4551 30.6143V12.0332C20.4551 11.3687 19.9155 10.8301 19.251 10.8301C18.5866 10.8303 18.0479 11.3688 18.0479 12.0332V33.1133C18.0479 34.3892 18.0482 35.0273 18.4443 35.4238C18.8408 35.8203 19.4796 35.8203 20.7559 35.8203H33.9912C35.2675 35.8203 35.9062 35.8203 36.3027 35.4238C36.6988 35.0273 36.6992 34.3891 36.6992 33.1133V32.2803C36.6992 31.0044 36.6989 30.3662 36.3027 29.9697C35.9062 29.5732 35.2675 29.5732 33.9912 29.5732H26.7715C25.4956 29.5732 24.8574 29.5731 24.4609 29.1768C24.0645 28.7803 24.0645 28.1415 24.0645 26.8652V16.0361C24.0645 14.7601 24.0646 14.1221 24.4609 13.7256C24.8574 13.3291 25.4954 13.3291 26.7715 13.3291H38.2031C39.4792 13.3291 40.1172 13.3291 40.5137 13.7256C40.91 14.1221 40.9102 14.76 40.9102 16.0361V39.3145C40.9102 39.454 40.9104 39.5242 40.9053 39.583C40.848 40.2374 40.3291 40.7561 39.6748 40.8135C39.6159 40.8186 39.5459 40.8193 39.4062 40.8193H39.1514C38.4614 40.8195 37.9024 41.3784 37.9023 42.0684C37.9023 42.7584 38.4614 43.3182 39.1514 43.3184H40.6094C41.8852 43.3184 42.5234 43.318 42.9199 42.9219C43.3164 42.5254 43.3164 41.8866 43.3164 40.6104V13.5371C43.3164 12.2608 43.3164 11.623 42.9199 11.2266C42.5234 10.8301 41.8856 10.8301 40.6094 10.8301H24.3652ZM13.8369 13.3291C14.1691 13.3292 14.4385 13.5985 14.4385 13.9307V36.8623C14.4385 38.1384 14.4385 38.7764 14.835 39.1729C15.2314 39.5692 15.8694 39.5693 17.1455 39.5693H33.668C34.0128 39.5696 34.292 39.8494 34.292 40.1943C34.2919 40.5391 34.0127 40.8191 33.668 40.8193H15.9424C14.6665 40.8193 14.0283 40.819 13.6318 40.4229C13.2354 40.0264 13.2354 39.3876 13.2354 38.1113V13.9307C13.2354 13.5984 13.5046 13.3291 13.8369 13.3291Z" fill="#266CA8"/>
<path d="M62.4021 38.0737V15.762H65.1267V35.5913H74.5418V38.0737H62.4021ZM84.8652 38.3159C83.2607 38.3159 81.858 37.9829 80.6571 37.3169C79.4664 36.6509 78.538 35.7174 77.8719 34.5166C77.2059 33.3056 76.8729 31.8878 76.8729 30.2631V15.762H79.5975V30.2631C79.5975 31.3731 79.8145 32.3469 80.2484 33.1845C80.6924 34.0221 81.308 34.673 82.0951 35.1372C82.8923 35.6014 83.8157 35.8335 84.8652 35.8335C86.4899 35.8335 87.7715 35.3239 88.7099 34.3046C89.6585 33.2753 90.1328 31.9282 90.1328 30.2631V15.762H92.8574V30.2631C92.8574 31.8878 92.5295 33.3056 91.8736 34.5166C91.2277 35.7174 90.3044 36.6509 89.1035 37.3169C87.9127 37.9829 86.5 38.3159 84.8652 38.3159ZM98.0645 38.0737V15.762H100.335L108.085 29.5365H108.206L115.956 15.762H118.227V38.0737H115.502V25.9945L115.563 21.5443H115.442L108.63 33.7446H107.661L100.85 21.5443H100.729L100.789 25.9945V38.0737H98.0645Z" fill="#266CA8"/>
<path d="M131.194 16.0737L121.961 38.3855H124.958L129.469 26.8512L132.254 19.979H132.375L135.19 26.8512L139.701 38.3855H142.668L133.435 16.0737H131.194Z" fill="#266CA8"/>
<path d="M152.473 38.3159C151.292 38.3159 150.207 38.0737 149.218 37.5894C148.229 37.105 147.387 36.4743 146.69 35.6972C145.994 34.9202 145.5 34.0978 145.207 33.2299L147.75 32.1703C147.962 32.8162 148.285 33.4166 148.719 33.9716C149.163 34.5267 149.698 34.9757 150.323 35.3188C150.959 35.6619 151.665 35.8335 152.442 35.8335C153.169 35.8335 153.845 35.6771 154.471 35.3642C155.096 35.0413 155.601 34.6023 155.985 34.0473C156.368 33.4822 156.56 32.8364 156.56 32.1098C156.56 31.363 156.368 30.7323 155.985 30.2177C155.611 29.6929 155.147 29.259 154.592 28.9159C154.037 28.5728 153.482 28.3004 152.927 28.0985C152.382 27.8866 151.938 27.7201 151.595 27.599C150.616 27.2559 149.693 26.8069 148.825 26.2518C147.957 25.6968 147.251 25.0005 146.706 24.1629C146.171 23.3254 145.903 22.3112 145.903 21.1204C145.903 19.9902 146.161 19.0063 146.675 18.1687C147.19 17.3312 147.912 16.6803 148.84 16.2161C149.768 15.7519 150.848 15.5198 152.079 15.5198C153.22 15.5198 154.213 15.7065 155.061 16.0799C155.919 16.4532 156.635 16.9427 157.211 17.5481C157.796 18.1536 158.245 18.7994 158.558 19.4856L156.136 20.4544C155.944 20.1012 155.667 19.7379 155.303 19.3646C154.94 18.9811 154.491 18.6582 153.956 18.3958C153.421 18.1334 152.806 18.0022 152.109 18.0022C151.171 18.0022 150.343 18.2697 149.627 18.8045C148.921 19.3393 148.567 20.1315 148.567 21.181C148.567 21.8268 148.704 22.3818 148.976 22.846C149.259 23.3102 149.622 23.7088 150.066 24.0418C150.51 24.3648 150.974 24.6372 151.459 24.8592C151.953 25.0812 152.412 25.2679 152.836 25.4193C153.31 25.5808 153.901 25.8078 154.607 26.1005C155.324 26.383 156.03 26.7715 156.726 27.266C157.433 27.7504 158.023 28.376 158.497 29.143C158.982 29.9099 159.224 30.8585 159.224 31.9887C159.224 33.2602 158.906 34.3702 158.27 35.3188C157.645 36.2674 156.817 37.0041 155.788 37.5288C154.758 38.0535 153.653 38.3159 152.473 38.3159ZM163.492 38.0737V15.762H166.217V25.4193H177.751V15.762H180.476V38.0737H177.751V27.9018H166.217V38.0737H163.492ZM183.201 38.0737L192.434 15.762H194.674L203.908 38.0737H201.062L198.307 31.4135L197.944 30.4447L193.615 19.4856H193.494L189.165 30.4447L188.801 31.4135L186.046 38.0737H183.201ZM187.499 32.2309V29.7484H199.609V32.2309H187.499ZM208.631 29.2035V26.7211H213.02C213.928 26.7211 214.716 26.5445 215.382 26.1913C216.058 25.828 216.577 25.3234 216.941 24.6776C217.314 24.0217 217.501 23.2598 217.501 22.3919C217.501 21.0902 217.077 20.076 216.229 19.3494C215.392 18.6128 214.261 18.2444 212.839 18.2444H208.631V15.762H213.02C214.473 15.762 215.74 16.0344 216.82 16.5794C217.899 17.1142 218.737 17.8761 219.332 18.865C219.928 19.8439 220.225 20.9993 220.225 22.3314C220.225 23.6533 219.938 24.834 219.363 25.8734C218.787 26.9027 217.975 27.7151 216.926 28.3104C215.876 28.9058 214.635 29.2035 213.202 29.2035H208.631ZM206.632 38.0737V15.762H209.357V38.0737H206.632ZM223.949 38.0737V15.762H236.18V18.2444H226.674V25.4799H234.666V27.9623H226.674V35.5913H236.18V38.0737H223.949Z" fill="#266CA8"/>
</svg>
