<svg width="44" height="44" viewBox="0 0 44 44" fill="none" xmlns="http://www.w3.org/2000/svg">
<path d="M43.3174 29.7806C43.3174 36.1619 43.3174 39.3525 41.335 41.335C39.3525 43.3174 36.1619 43.3174 29.7806 43.3174H13.5368C7.15549 43.3174 3.96484 43.3174 1.98242 41.335C0 39.3525 0 36.1619 0 29.7806V13.5368C0 7.15549 0 3.96484 1.98242 1.98242C3.96484 0 7.15549 0 13.5368 0H29.7806C36.1619 0 39.3525 0 41.335 1.98242C43.3174 3.96484 43.3174 7.15549 43.3174 13.5368V29.7806ZM8.12207 5.41504C6.84582 5.41504 6.20801 5.41504 5.81152 5.81152C5.41504 6.20801 5.41504 6.84582 5.41504 8.12207V35.1953C5.41504 36.4716 5.41504 37.1104 5.81152 37.5068C6.20803 37.903 6.84613 37.9033 8.12207 37.9033H28.5781C29.854 37.9033 30.4922 37.9032 30.8887 37.5068C31.2852 37.1104 31.2852 36.4716 31.2852 35.1953V34.3623C31.2852 33.0863 31.2851 32.4482 30.8887 32.0518C30.4922 31.6553 29.8541 31.6553 28.5781 31.6553H14.1387C12.8624 31.6553 12.2236 31.6553 11.8271 31.2588C11.4309 30.8623 11.4307 30.2241 11.4307 28.9482V8.12207C11.4307 6.84582 11.4307 6.20801 11.0342 5.81152C10.6377 5.41509 9.99984 5.41504 8.72363 5.41504H8.12207ZM18.9512 5.41504C17.6751 5.41504 17.0371 5.41508 16.6406 5.81152C16.2443 6.20802 16.2441 6.846 16.2441 8.12207V23.9502C16.2441 25.2261 16.2442 25.8643 16.6406 26.2607C17.0371 26.6571 17.6752 26.6572 18.9512 26.6572H28.2539C28.5989 26.6573 28.8789 26.9372 28.8789 27.2822C28.8787 27.6271 28.5988 27.9062 28.2539 27.9062H17.748C16.4719 27.9062 15.834 27.9062 15.4375 27.5098C15.0412 27.1133 15.041 26.4753 15.041 25.1992V6.61816C15.041 5.95371 14.5023 5.41518 13.8379 5.41504C13.1733 5.41504 12.6348 5.95362 12.6348 6.61816V27.6982C12.6348 28.9745 12.6348 29.6123 13.0312 30.0088C13.4277 30.4053 14.0655 30.4053 15.3418 30.4053H28.5781C29.8541 30.4053 30.4922 30.4052 30.8887 30.0088C31.2849 29.6123 31.2852 28.9742 31.2852 27.6982V26.8652C31.2852 25.5892 31.285 24.9512 30.8887 24.5547C30.4922 24.1582 29.8541 24.1582 28.5781 24.1582H21.3584C20.0821 24.1582 19.4434 24.1582 19.0469 23.7617C18.6504 23.3652 18.6504 22.7264 18.6504 21.4502V10.6211C18.6504 9.34519 18.6507 8.70704 19.0469 8.31055C19.4434 7.91406 20.0821 7.91406 21.3584 7.91406H32.7891C34.0652 7.91406 34.7031 7.91415 35.0996 8.31055C35.4961 8.70702 35.4961 9.34489 35.4961 10.6211V33.8994C35.4961 34.0389 35.4963 34.1091 35.4912 34.168C35.434 34.8224 34.9152 35.3412 34.2607 35.3984C34.2019 35.4036 34.1318 35.4043 33.9922 35.4043H33.7383C33.0482 35.4043 32.4884 35.9633 32.4883 36.6533C32.4883 37.3434 33.0482 37.9033 33.7383 37.9033H35.1953C36.4716 37.9033 37.1104 37.9033 37.5068 37.5068C37.9033 37.1104 37.9033 36.4716 37.9033 35.1953V8.12207C37.9033 6.84613 37.903 6.20803 37.5068 5.81152C37.1104 5.41504 36.4716 5.41504 35.1953 5.41504H18.9512ZM8.42285 7.91406C8.75513 7.91406 9.02441 8.18335 9.02441 8.51562V31.4473C9.02441 32.7233 9.02455 33.3613 9.4209 33.7578C9.81734 34.1543 10.4555 34.1543 11.7314 34.1543H28.2539C28.5989 34.1544 28.8789 34.4343 28.8789 34.7793C28.8788 35.1242 28.5988 35.4042 28.2539 35.4043H10.5283C9.25246 35.4043 8.61424 35.4041 8.21777 35.0078C7.82129 34.6113 7.82129 33.9726 7.82129 32.6963V8.51562C7.82129 8.18337 8.0906 7.91409 8.42285 7.91406Z" fill="#266CA8"/>
</svg>
