<svg width="113" height="113" viewBox="0 0 113 113" fill="none" xmlns="http://www.w3.org/2000/svg">
<rect x="12" y="12.1865" width="88.37" height="88.37" rx="44.185" fill="#266CA8"/>
<rect x="6.1291" y="6.31562" width="100.112" height="100.112" rx="50.0559" stroke="#266CA8" stroke-opacity="0.1" stroke-width="11.7418"/>
<path d="M54.1512 76.4084C51.4866 76.4084 48.894 75.9943 46.3734 75.1661C43.8889 74.3379 41.8544 73.2217 40.2701 71.8174L42.7546 67.5504C44.0149 68.7387 45.6533 69.7109 47.6697 70.4671C49.6862 71.2232 51.8467 71.6013 54.1512 71.6013C56.9599 71.6013 59.1384 71.0072 60.6867 69.8189C62.2711 68.5946 63.0632 66.9563 63.0632 64.9038C63.0632 62.9233 62.3071 61.339 60.7947 60.1507C59.3184 58.9264 56.9599 58.3143 53.7191 58.3143H50.6944V54.5334L61.929 40.7063L62.6852 42.8668H41.9985V38.1677H66.9521V41.8406L55.7716 55.6137L52.9629 53.9393H54.7454C59.3184 53.9393 62.7392 54.9655 65.0077 57.018C67.3122 59.0705 68.4645 61.6811 68.4645 64.8498C68.4645 66.9743 67.9424 68.9187 66.8981 70.6831C65.8539 72.4475 64.2695 73.8518 62.145 74.8961C60.0566 75.9043 57.392 76.4084 54.1512 76.4084Z" fill="white"/>
</svg>
