<svg width="113" height="113" viewBox="0 0 113 113" fill="none" xmlns="http://www.w3.org/2000/svg">
<rect x="12" y="12.1865" width="88.37" height="88.37" rx="44.185" fill="#266CA8"/>
<rect x="6.1291" y="6.31562" width="100.112" height="100.112" rx="50.0559" stroke="#266CA8" stroke-opacity="0.1" stroke-width="11.7418"/>
<path d="M41.9985 75.9763V72.3035L57.392 57.4501C58.7603 56.1538 59.7685 55.0196 60.4166 54.0473C61.1008 53.0391 61.5509 52.1209 61.767 51.2927C62.019 50.4285 62.145 49.6003 62.145 48.8081C62.145 46.8637 61.4609 45.3334 60.0926 44.2171C58.7243 43.1008 56.7258 42.5427 54.0972 42.5427C52.0807 42.5427 50.2623 42.8848 48.642 43.5689C47.0216 44.2171 45.6173 45.2433 44.429 46.6476L40.7562 43.4609C42.1965 41.6245 44.1229 40.2202 46.5355 39.248C48.984 38.2397 51.6667 37.7356 54.5833 37.7356C57.2119 37.7356 59.4984 38.1677 61.4429 39.0319C63.3873 39.8601 64.8817 41.0664 65.9259 42.6507C67.0061 44.2351 67.5463 46.1075 67.5463 48.268C67.5463 49.4923 67.3842 50.6986 67.0602 51.8868C66.7361 53.0751 66.1239 54.3354 65.2237 55.6677C64.3235 57 63.0272 58.4943 61.3349 60.1507L47.6157 73.3837L46.3194 71.2772H69.1666V75.9763H41.9985Z" fill="white"/>
</svg>
