<svg width="522" height="270" viewBox="0 0 522 270" fill="none" xmlns="http://www.w3.org/2000/svg">
<rect y="0.186523" width="522" height="269" rx="28.464" fill="#F5F5F5" fill-opacity="0.7"/>
<rect x="1.4232" y="1.60973" width="519.154" height="266.154" rx="27.0408" stroke="black" stroke-opacity="0.2" stroke-width="2.8464" stroke-dasharray="4.74 4.74"/>
<path d="M262.552 104.202C262.282 104.497 261.901 104.665 261.501 104.665C261.102 104.665 260.721 104.497 260.451 104.202L252.86 95.8998C252.33 95.3197 252.37 94.4194 252.951 93.8891C253.531 93.3587 254.431 93.399 254.961 93.9791L260.078 99.5756V78.5726C260.078 77.7866 260.715 77.1494 261.501 77.1494C262.287 77.1494 262.924 77.7866 262.924 78.5726V99.5756L268.041 93.9791C268.572 93.399 269.472 93.3587 270.052 93.8891C270.632 94.4194 270.672 95.3197 270.142 95.8998L262.552 104.202Z" fill="#266CA8"/>
<path d="M245.846 101.344C245.846 100.558 245.209 99.9206 244.423 99.9206C243.637 99.9206 243 100.558 243 101.344V101.448C243 104.043 243 106.135 243.221 107.78C243.45 109.488 243.942 110.926 245.084 112.068C246.226 113.211 247.664 113.702 249.372 113.932C251.017 114.153 253.109 114.153 255.704 114.153H267.298C269.893 114.153 271.985 114.153 273.63 113.932C275.338 113.702 276.776 113.211 277.919 112.068C279.061 110.926 279.552 109.488 279.782 107.78C280.003 106.135 280.003 104.043 280.003 101.448V101.344C280.003 100.558 279.366 99.9206 278.58 99.9206C277.794 99.9206 277.156 100.558 277.156 101.344C277.156 104.068 277.153 105.967 276.961 107.401C276.774 108.793 276.431 109.531 275.906 110.056C275.381 110.581 274.643 110.923 273.251 111.111C271.818 111.303 269.918 111.306 267.194 111.306H255.808C253.085 111.306 251.185 111.303 249.752 111.111C248.359 110.923 247.622 110.581 247.097 110.056C246.571 109.531 246.229 108.793 246.042 107.401C245.849 105.967 245.846 104.068 245.846 101.344Z" fill="#266CA8"/>
<path d="M73.6105 160.749C71.9507 160.749 70.5448 160.466 69.3927 159.9C68.2602 159.333 67.3424 158.562 66.6395 157.586C65.956 156.609 65.4483 155.496 65.1164 154.247C64.804 152.997 64.6477 151.698 64.6477 150.351V139.807H67.9282V150.351C67.9282 151.308 68.0259 152.235 68.2211 153.134C68.4164 154.012 68.7288 154.803 69.1584 155.506C69.588 156.209 70.164 156.766 70.8865 157.176C71.6285 157.586 72.5365 157.791 73.6105 157.791C74.704 157.791 75.612 157.586 76.3345 157.176C77.0765 156.746 77.6525 156.18 78.0626 155.477C78.4921 154.754 78.8046 153.954 78.9998 153.075C79.1951 152.196 79.2927 151.288 79.2927 150.351V139.807H82.6025V150.351C82.6025 151.776 82.4268 153.124 82.0753 154.393C81.7433 155.643 81.2161 156.746 80.4936 157.703C79.7907 158.64 78.8729 159.382 77.7404 159.929C76.6078 160.476 75.2312 160.749 73.6105 160.749ZM94.4112 160.895C93.181 160.895 92.0973 160.603 91.16 160.017C90.2227 159.431 89.4807 158.669 88.934 157.732V166.841H85.7121V145.284H88.5532V148.037C89.139 147.119 89.9005 146.387 90.8378 145.84C91.7751 145.294 92.8198 145.02 93.9718 145.02C95.0263 145.02 95.9929 145.235 96.8716 145.665C97.7503 146.075 98.5118 146.651 99.1562 147.393C99.8006 148.135 100.298 148.984 100.65 149.941C101.021 150.878 101.206 151.874 101.206 152.929C101.206 154.393 100.914 155.731 100.328 156.941C99.7615 158.152 98.9609 159.119 97.926 159.841C96.9106 160.544 95.739 160.895 94.4112 160.895ZM93.3568 158.142C94.0402 158.142 94.6553 157.996 95.202 157.703C95.7683 157.41 96.2467 157.019 96.6372 156.531C97.0473 156.043 97.3597 155.487 97.5745 154.862C97.7893 154.237 97.8967 153.592 97.8967 152.929C97.8967 152.226 97.7795 151.562 97.5452 150.937C97.3109 150.312 96.9692 149.765 96.5201 149.297C96.0905 148.828 95.5828 148.457 94.997 148.184C94.4307 147.91 93.8059 147.774 93.1224 147.774C92.7124 147.774 92.2828 147.852 91.8337 148.008C91.3846 148.164 90.9647 148.379 90.5742 148.652C90.1837 148.926 89.8419 149.248 89.549 149.619C89.2561 149.99 89.0511 150.38 88.934 150.79V154.803C89.2073 155.428 89.5686 155.994 90.0177 156.502C90.4668 156.99 90.9843 157.39 91.5701 157.703C92.1559 157.996 92.7514 158.142 93.3568 158.142ZM103.548 139.221H106.77V156.18C106.77 156.961 106.887 157.459 107.121 157.674C107.355 157.888 107.648 157.996 108 157.996C108.39 157.996 108.751 157.957 109.083 157.879C109.435 157.8 109.738 157.703 109.991 157.586L110.46 160.134C109.991 160.329 109.435 160.495 108.791 160.632C108.146 160.769 107.57 160.837 107.062 160.837C105.969 160.837 105.11 160.534 104.485 159.929C103.86 159.304 103.548 158.445 103.548 157.351V139.221ZM118.626 160.895C117.415 160.895 116.331 160.69 115.374 160.28C114.418 159.851 113.588 159.265 112.885 158.523C112.201 157.781 111.674 156.941 111.303 156.004C110.932 155.047 110.747 154.032 110.747 152.958C110.747 151.884 110.932 150.868 111.303 149.912C111.674 148.955 112.201 148.115 112.885 147.393C113.588 146.651 114.418 146.075 115.374 145.665C116.351 145.235 117.434 145.02 118.626 145.02C119.817 145.02 120.891 145.235 121.847 145.665C122.824 146.075 123.654 146.651 124.337 147.393C125.04 148.115 125.577 148.955 125.948 149.912C126.319 150.868 126.505 151.884 126.505 152.958C126.505 154.032 126.319 155.047 125.948 156.004C125.577 156.941 125.04 157.781 124.337 158.523C123.654 159.265 122.824 159.851 121.847 160.28C120.891 160.69 119.817 160.895 118.626 160.895ZM114.056 152.987C114.056 153.963 114.261 154.842 114.671 155.623C115.081 156.404 115.628 157.019 116.312 157.469C116.995 157.918 117.766 158.142 118.626 158.142C119.465 158.142 120.227 157.918 120.91 157.469C121.613 157 122.17 156.375 122.58 155.594C122.99 154.793 123.195 153.915 123.195 152.958C123.195 151.982 122.99 151.103 122.58 150.322C122.17 149.541 121.613 148.926 120.91 148.476C120.227 148.008 119.465 147.774 118.626 147.774C117.766 147.774 116.995 148.008 116.312 148.476C115.628 148.945 115.081 149.57 114.671 150.351C114.261 151.113 114.056 151.991 114.056 152.987ZM127.663 156.121C127.663 155.145 127.937 154.295 128.483 153.573C129.05 152.831 129.821 152.265 130.797 151.874C131.774 151.464 132.906 151.259 134.195 151.259C134.878 151.259 135.572 151.308 136.275 151.405C136.997 151.503 137.632 151.659 138.178 151.874V150.908C138.178 149.834 137.856 148.994 137.212 148.389C136.568 147.783 135.64 147.481 134.429 147.481C133.57 147.481 132.76 147.637 131.998 147.949C131.237 148.242 130.426 148.662 129.567 149.209L128.483 147.041C129.499 146.358 130.514 145.85 131.53 145.518C132.565 145.186 133.648 145.02 134.781 145.02C136.831 145.02 138.442 145.567 139.614 146.66C140.805 147.734 141.4 149.267 141.4 151.259V156.971C141.4 157.342 141.459 157.605 141.576 157.761C141.713 157.918 141.937 158.005 142.25 158.025V160.603C141.957 160.661 141.693 160.7 141.459 160.72C141.225 160.739 141.029 160.749 140.873 160.749C140.19 160.749 139.672 160.583 139.321 160.251C138.969 159.919 138.764 159.529 138.706 159.079L138.618 158.201C137.954 159.06 137.104 159.724 136.07 160.192C135.035 160.661 133.99 160.895 132.936 160.895C131.92 160.895 131.012 160.69 130.212 160.28C129.411 159.851 128.786 159.275 128.337 158.552C127.888 157.83 127.663 157.019 127.663 156.121ZM137.417 157.058C137.651 156.805 137.837 156.551 137.973 156.297C138.11 156.043 138.178 155.819 138.178 155.623V153.866C137.632 153.651 137.056 153.495 136.45 153.397C135.845 153.28 135.249 153.221 134.664 153.221C133.492 153.221 132.535 153.456 131.793 153.924C131.071 154.393 130.71 155.037 130.71 155.858C130.71 156.307 130.827 156.736 131.061 157.146C131.315 157.556 131.666 157.888 132.115 158.142C132.584 158.396 133.16 158.523 133.844 158.523C134.547 158.523 135.22 158.386 135.865 158.113C136.509 157.84 137.026 157.488 137.417 157.058ZM143.757 152.958C143.757 151.493 144.05 150.166 144.636 148.974C145.241 147.764 146.061 146.807 147.096 146.104C148.131 145.382 149.322 145.02 150.669 145.02C151.841 145.02 152.895 145.323 153.833 145.928C154.789 146.534 155.531 147.285 156.059 148.184V139.221H159.281V156.971C159.281 157.342 159.349 157.605 159.486 157.761C159.622 157.918 159.847 158.005 160.159 158.025V160.603C159.554 160.7 159.085 160.749 158.753 160.749C158.148 160.749 157.631 160.573 157.201 160.222C156.791 159.87 156.576 159.45 156.557 158.962L156.527 157.82C155.941 158.796 155.151 159.558 154.155 160.105C153.159 160.632 152.124 160.895 151.05 160.895C149.996 160.895 149.019 160.69 148.121 160.28C147.242 159.87 146.471 159.294 145.807 158.552C145.163 157.81 144.655 156.961 144.284 156.004C143.933 155.047 143.757 154.032 143.757 152.958ZM156.059 155.096V151.083C155.844 150.458 155.492 149.902 155.004 149.414C154.536 148.906 153.999 148.506 153.393 148.213C152.807 147.92 152.222 147.774 151.636 147.774C150.952 147.774 150.328 147.92 149.761 148.213C149.215 148.506 148.736 148.896 148.326 149.384C147.936 149.873 147.633 150.429 147.418 151.054C147.203 151.679 147.096 152.333 147.096 153.016C147.096 153.719 147.213 154.383 147.447 155.008C147.682 155.613 148.014 156.16 148.443 156.648C148.892 157.117 149.4 157.488 149.966 157.761C150.552 158.015 151.187 158.142 151.87 158.142C152.3 158.142 152.729 158.064 153.159 157.908C153.608 157.752 154.028 157.537 154.418 157.263C154.828 156.99 155.17 156.668 155.444 156.297C155.736 155.926 155.941 155.526 156.059 155.096Z" fill="#266CA8"/>
<path d="M178.602 160.749C177.137 160.749 175.809 160.456 174.618 159.87C173.427 159.284 172.392 158.494 171.513 157.498C170.654 156.482 169.99 155.35 169.522 154.1C169.053 152.831 168.819 151.532 168.819 150.205C168.819 148.818 169.063 147.5 169.551 146.25C170.059 144.981 170.752 143.858 171.631 142.882C172.529 141.886 173.574 141.105 174.765 140.539C175.956 139.953 177.254 139.66 178.66 139.66C180.125 139.66 181.453 139.963 182.644 140.568C183.835 141.174 184.86 141.984 185.719 142.999C186.578 144.015 187.242 145.147 187.711 146.397C188.179 147.647 188.414 148.926 188.414 150.234C188.414 151.62 188.17 152.948 187.682 154.217C187.193 155.467 186.5 156.59 185.602 157.586C184.723 158.562 183.688 159.333 182.497 159.9C181.306 160.466 180.008 160.749 178.602 160.749ZM171.484 150.205C171.484 151.259 171.65 152.284 171.982 153.28C172.334 154.256 172.822 155.125 173.447 155.887C174.071 156.648 174.823 157.254 175.702 157.703C176.581 158.152 177.557 158.376 178.631 158.376C179.744 158.376 180.74 158.142 181.619 157.674C182.497 157.205 183.239 156.58 183.845 155.799C184.469 155.018 184.938 154.139 185.25 153.163C185.582 152.187 185.748 151.2 185.748 150.205C185.748 149.15 185.573 148.135 185.221 147.158C184.889 146.182 184.401 145.313 183.757 144.552C183.132 143.771 182.38 143.165 181.501 142.736C180.642 142.287 179.685 142.062 178.631 142.062C177.518 142.062 176.522 142.296 175.643 142.765C174.765 143.214 174.013 143.829 173.388 144.61C172.783 145.391 172.314 146.27 171.982 147.246C171.65 148.203 171.484 149.189 171.484 150.205ZM199.022 147.568C197.733 147.588 196.591 147.92 195.595 148.564C194.618 149.189 193.925 150.058 193.515 151.171V160.603H190.938V145.313H193.339V148.857C193.867 147.803 194.56 146.953 195.419 146.309C196.298 145.645 197.215 145.274 198.172 145.196C198.367 145.196 198.533 145.196 198.67 145.196C198.807 145.196 198.924 145.206 199.022 145.225V147.568ZM207.538 160.603V139.807H214.744C216.97 139.807 218.825 140.275 220.309 141.213C221.812 142.13 222.935 143.38 223.677 144.962C224.419 146.524 224.79 148.262 224.79 150.175C224.79 152.284 224.38 154.12 223.56 155.682C222.74 157.244 221.578 158.455 220.074 159.314C218.571 160.173 216.794 160.603 214.744 160.603H207.538ZM222.125 150.175C222.125 148.613 221.832 147.227 221.246 146.016C220.68 144.805 219.85 143.858 218.756 143.175C217.663 142.492 216.325 142.15 214.744 142.15H210.174V158.259H214.744C216.345 158.259 217.692 157.908 218.786 157.205C219.879 156.482 220.709 155.516 221.275 154.305C221.842 153.075 222.125 151.698 222.125 150.175ZM235.593 147.568C234.304 147.588 233.162 147.92 232.166 148.564C231.19 149.189 230.496 150.058 230.086 151.171V160.603H227.509V145.313H229.911V148.857C230.438 147.803 231.131 146.953 231.99 146.309C232.869 145.645 233.787 145.274 234.743 145.196C234.939 145.196 235.105 145.196 235.241 145.196C235.378 145.196 235.495 145.206 235.593 145.225V147.568ZM236.363 156.18C236.363 155.203 236.636 154.364 237.183 153.661C237.749 152.938 238.52 152.382 239.497 151.991C240.473 151.601 241.606 151.405 242.894 151.405C243.578 151.405 244.3 151.464 245.062 151.581C245.823 151.679 246.497 151.835 247.083 152.05V150.937C247.083 149.765 246.731 148.847 246.028 148.184C245.325 147.5 244.33 147.158 243.041 147.158C242.201 147.158 241.391 147.315 240.61 147.627C239.848 147.92 239.038 148.35 238.179 148.916L237.241 147.1C238.237 146.416 239.233 145.909 240.229 145.577C241.225 145.225 242.26 145.05 243.334 145.05C245.286 145.05 246.829 145.596 247.962 146.69C249.094 147.764 249.66 149.267 249.66 151.2V157.674C249.66 157.986 249.719 158.22 249.836 158.376C249.973 158.513 250.188 158.591 250.48 158.611V160.603C250.227 160.642 250.002 160.671 249.807 160.69C249.631 160.71 249.485 160.72 249.367 160.72C248.762 160.72 248.303 160.554 247.991 160.222C247.698 159.89 247.532 159.538 247.493 159.167L247.434 158.201C246.77 159.06 245.901 159.724 244.827 160.192C243.754 160.661 242.689 160.895 241.635 160.895C240.619 160.895 239.711 160.69 238.911 160.28C238.11 159.851 237.485 159.284 237.036 158.582C236.587 157.859 236.363 157.058 236.363 156.18ZM246.321 157.263C246.556 156.99 246.741 156.717 246.878 156.443C247.014 156.15 247.083 155.906 247.083 155.711V153.807C246.477 153.573 245.843 153.397 245.179 153.28C244.515 153.143 243.861 153.075 243.217 153.075C241.908 153.075 240.844 153.339 240.024 153.866C239.223 154.374 238.823 155.076 238.823 155.975C238.823 156.463 238.95 156.941 239.204 157.41C239.477 157.859 239.868 158.23 240.375 158.523C240.903 158.816 241.547 158.962 242.309 158.962C243.109 158.962 243.871 158.806 244.593 158.494C245.316 158.162 245.892 157.752 246.321 157.263ZM259.288 160.778C258.253 160.778 257.297 160.573 256.418 160.163C255.559 159.734 254.817 159.158 254.192 158.435C253.567 157.693 253.079 156.853 252.727 155.916C252.395 154.979 252.229 154.003 252.229 152.987C252.229 151.913 252.395 150.898 252.727 149.941C253.079 148.984 253.567 148.145 254.192 147.422C254.836 146.68 255.588 146.104 256.447 145.694C257.306 145.264 258.263 145.05 259.318 145.05C260.587 145.05 261.69 145.362 262.627 145.987C263.584 146.612 264.385 147.403 265.029 148.359V145.313H267.314V160.427C267.314 161.872 266.962 163.092 266.259 164.088C265.576 165.084 264.639 165.836 263.447 166.343C262.276 166.871 260.968 167.134 259.523 167.134C257.804 167.134 256.398 166.832 255.305 166.226C254.211 165.621 253.303 164.801 252.581 163.766L254.075 162.448C254.68 163.346 255.461 164.02 256.418 164.469C257.394 164.918 258.429 165.142 259.523 165.142C260.46 165.142 261.319 164.967 262.1 164.615C262.901 164.283 263.535 163.766 264.004 163.063C264.492 162.36 264.736 161.481 264.736 160.427V157.732C264.17 158.669 263.389 159.411 262.393 159.958C261.417 160.505 260.382 160.778 259.288 160.778ZM260.079 158.669C260.626 158.669 261.153 158.572 261.661 158.376C262.168 158.181 262.637 157.927 263.067 157.615C263.496 157.283 263.857 156.912 264.15 156.502C264.443 156.092 264.639 155.672 264.736 155.242V150.849C264.463 150.146 264.072 149.531 263.565 149.004C263.057 148.457 262.481 148.037 261.836 147.744C261.192 147.432 260.528 147.276 259.845 147.276C259.064 147.276 258.361 147.442 257.736 147.774C257.131 148.105 256.613 148.555 256.184 149.121C255.754 149.668 255.422 150.283 255.188 150.966C254.953 151.65 254.836 152.343 254.836 153.046C254.836 153.807 254.973 154.53 255.246 155.213C255.52 155.877 255.891 156.473 256.359 157C256.828 157.527 257.384 157.937 258.029 158.23C258.673 158.523 259.357 158.669 260.079 158.669ZM284.388 160.895C283.236 160.895 282.192 160.69 281.254 160.28C280.317 159.851 279.507 159.275 278.823 158.552C278.14 157.81 277.613 156.961 277.242 156.004C276.871 155.047 276.685 154.042 276.685 152.987C276.685 151.913 276.871 150.898 277.242 149.941C277.613 148.984 278.14 148.145 278.823 147.422C279.507 146.68 280.317 146.104 281.254 145.694C282.211 145.264 283.256 145.05 284.388 145.05C285.54 145.05 286.585 145.264 287.522 145.694C288.46 146.104 289.27 146.68 289.954 147.422C290.656 148.145 291.193 148.984 291.564 149.941C291.935 150.898 292.121 151.913 292.121 152.987C292.121 154.042 291.935 155.047 291.564 156.004C291.193 156.961 290.666 157.81 289.983 158.552C289.299 159.275 288.479 159.851 287.522 160.28C286.585 160.69 285.54 160.895 284.388 160.895ZM279.321 153.016C279.321 154.071 279.546 155.028 279.995 155.887C280.464 156.746 281.079 157.429 281.84 157.937C282.602 158.425 283.451 158.669 284.388 158.669C285.326 158.669 286.175 158.416 286.937 157.908C287.718 157.4 288.333 156.717 288.782 155.858C289.251 154.979 289.485 154.012 289.485 152.958C289.485 151.903 289.251 150.947 288.782 150.087C288.333 149.228 287.718 148.545 286.937 148.037C286.175 147.529 285.326 147.276 284.388 147.276C283.451 147.276 282.602 147.539 281.84 148.066C281.079 148.574 280.464 149.258 279.995 150.117C279.546 150.976 279.321 151.942 279.321 153.016ZM302.743 147.568C301.454 147.588 300.311 147.92 299.316 148.564C298.339 149.189 297.646 150.058 297.236 151.171V160.603H294.658V145.313H297.06V148.857C297.587 147.803 298.281 146.953 299.14 146.309C300.019 145.645 300.936 145.274 301.893 145.196C302.088 145.196 302.254 145.196 302.391 145.196C302.528 145.196 302.645 145.206 302.743 145.225V147.568ZM309.853 152.987C309.853 151.542 310.146 150.224 310.732 149.033C311.337 147.822 312.157 146.856 313.192 146.133C314.247 145.411 315.448 145.05 316.795 145.05C318.025 145.05 319.128 145.372 320.105 146.016C321.081 146.66 321.843 147.442 322.389 148.359V139.221H324.967V157.674C324.967 157.986 325.026 158.22 325.143 158.376C325.279 158.513 325.494 158.591 325.787 158.611V160.603C325.299 160.681 324.918 160.72 324.645 160.72C324.137 160.72 323.688 160.544 323.297 160.192C322.926 159.841 322.741 159.45 322.741 159.021V157.732C322.136 158.708 321.325 159.48 320.31 160.046C319.294 160.612 318.24 160.895 317.147 160.895C316.092 160.895 315.116 160.69 314.218 160.28C313.339 159.851 312.568 159.265 311.904 158.523C311.259 157.781 310.752 156.941 310.381 156.004C310.029 155.047 309.853 154.042 309.853 152.987ZM322.389 155.242V150.849C322.155 150.185 321.774 149.589 321.247 149.062C320.72 148.516 320.124 148.086 319.46 147.774C318.816 147.442 318.172 147.276 317.527 147.276C316.766 147.276 316.073 147.442 315.448 147.774C314.842 148.086 314.315 148.516 313.866 149.062C313.436 149.589 313.105 150.195 312.87 150.878C312.636 151.562 312.519 152.274 312.519 153.016C312.519 153.778 312.646 154.5 312.899 155.184C313.173 155.867 313.544 156.473 314.013 157C314.501 157.527 315.057 157.937 315.682 158.23C316.326 158.523 317.02 158.669 317.762 158.669C318.23 158.669 318.709 158.582 319.197 158.406C319.705 158.23 320.183 157.986 320.632 157.674C321.081 157.361 321.462 157 321.774 156.59C322.087 156.16 322.292 155.711 322.389 155.242ZM336.768 147.568C335.479 147.588 334.337 147.92 333.341 148.564C332.365 149.189 331.672 150.058 331.262 151.171V160.603H328.684V145.313H331.086V148.857C331.613 147.803 332.306 146.953 333.165 146.309C334.044 145.645 334.962 145.274 335.919 145.196C336.114 145.196 336.28 145.196 336.417 145.196C336.553 145.196 336.67 145.206 336.768 145.225V147.568ZM345.045 160.895C343.893 160.895 342.848 160.69 341.911 160.28C340.974 159.851 340.163 159.275 339.48 158.552C338.796 157.81 338.269 156.961 337.898 156.004C337.527 155.047 337.342 154.042 337.342 152.987C337.342 151.913 337.527 150.898 337.898 149.941C338.269 148.984 338.796 148.145 339.48 147.422C340.163 146.68 340.974 146.104 341.911 145.694C342.868 145.264 343.912 145.05 345.045 145.05C346.197 145.05 347.242 145.264 348.179 145.694C349.116 146.104 349.927 146.68 350.61 147.422C351.313 148.145 351.85 148.984 352.221 149.941C352.592 150.898 352.778 151.913 352.778 152.987C352.778 154.042 352.592 155.047 352.221 156.004C351.85 156.961 351.323 157.81 350.639 158.552C349.956 159.275 349.136 159.851 348.179 160.28C347.242 160.69 346.197 160.895 345.045 160.895ZM339.978 153.016C339.978 154.071 340.202 155.028 340.652 155.887C341.12 156.746 341.735 157.429 342.497 157.937C343.258 158.425 344.108 158.669 345.045 158.669C345.982 158.669 346.832 158.416 347.593 157.908C348.374 157.4 348.989 156.717 349.439 155.858C349.907 154.979 350.141 154.012 350.141 152.958C350.141 151.903 349.907 150.947 349.439 150.087C348.989 149.228 348.374 148.545 347.593 148.037C346.832 147.529 345.982 147.276 345.045 147.276C344.108 147.276 343.258 147.539 342.497 148.066C341.735 148.574 341.12 149.258 340.652 150.117C340.202 150.976 339.978 151.942 339.978 153.016ZM363.546 160.895C362.296 160.895 361.183 160.583 360.206 159.958C359.23 159.333 358.459 158.542 357.893 157.586V166.841H355.315V145.313H357.6V148.184C358.205 147.246 358.996 146.495 359.972 145.928C360.949 145.342 362.013 145.05 363.165 145.05C364.219 145.05 365.186 145.264 366.064 145.694C366.943 146.124 367.705 146.709 368.349 147.451C368.993 148.193 369.491 149.043 369.843 150C370.214 150.937 370.399 151.923 370.399 152.958C370.399 154.403 370.107 155.731 369.521 156.941C368.954 158.152 368.154 159.119 367.119 159.841C366.084 160.544 364.893 160.895 363.546 160.895ZM362.755 158.669C363.516 158.669 364.2 158.513 364.805 158.201C365.43 157.869 365.957 157.439 366.387 156.912C366.836 156.365 367.178 155.75 367.412 155.067C367.646 154.383 367.763 153.68 367.763 152.958C367.763 152.196 367.627 151.474 367.353 150.79C367.099 150.107 366.728 149.502 366.24 148.974C365.772 148.447 365.215 148.037 364.571 147.744C363.946 147.432 363.262 147.276 362.52 147.276C362.052 147.276 361.564 147.363 361.056 147.539C360.568 147.715 360.099 147.969 359.65 148.301C359.201 148.613 358.82 148.974 358.508 149.384C358.195 149.795 357.99 150.234 357.893 150.703V155.067C358.185 155.731 358.576 156.336 359.064 156.883C359.552 157.429 360.119 157.869 360.763 158.201C361.407 158.513 362.071 158.669 362.755 158.669ZM379.801 160.603V145.313H382.378V160.603H379.801ZM379.801 142.443V139.221H382.378V142.443H379.801ZM409.017 160.603H406.439V152.05C406.439 150.449 406.176 149.267 405.648 148.506C405.141 147.744 404.379 147.363 403.364 147.363C402.329 147.363 401.392 147.744 400.552 148.506C399.712 149.248 399.117 150.214 398.765 151.405V160.603H396.188V152.05C396.188 150.429 395.934 149.248 395.426 148.506C394.918 147.744 394.157 147.363 393.142 147.363C392.126 147.363 391.189 147.734 390.33 148.476C389.49 149.199 388.894 150.166 388.543 151.376V160.603H385.965V145.313H388.309V148.594C388.934 147.461 389.744 146.592 390.74 145.987C391.736 145.362 392.858 145.05 394.108 145.05C395.377 145.05 396.393 145.401 397.154 146.104C397.916 146.787 398.384 147.676 398.56 148.769C399.244 147.559 400.073 146.641 401.05 146.016C402.026 145.372 403.139 145.05 404.389 145.05C405.268 145.05 406 145.216 406.586 145.547C407.191 145.86 407.669 146.309 408.021 146.895C408.372 147.461 408.626 148.135 408.782 148.916C408.939 149.697 409.017 150.546 409.017 151.464V160.603ZM411.238 156.18C411.238 155.203 411.511 154.364 412.058 153.661C412.624 152.938 413.395 152.382 414.372 151.991C415.348 151.601 416.481 151.405 417.769 151.405C418.453 151.405 419.175 151.464 419.937 151.581C420.698 151.679 421.372 151.835 421.958 152.05V150.937C421.958 149.765 421.606 148.847 420.903 148.184C420.2 147.5 419.205 147.158 417.916 147.158C417.076 147.158 416.266 147.315 415.485 147.627C414.723 147.92 413.913 148.35 413.054 148.916L412.116 147.1C413.112 146.416 414.108 145.909 415.104 145.577C416.1 145.225 417.135 145.05 418.209 145.05C420.161 145.05 421.704 145.596 422.837 146.69C423.969 147.764 424.535 149.267 424.535 151.2V157.674C424.535 157.986 424.594 158.22 424.711 158.376C424.848 158.513 425.063 158.591 425.355 158.611V160.603C425.102 160.642 424.877 160.671 424.682 160.69C424.506 160.71 424.36 160.72 424.242 160.72C423.637 160.72 423.178 160.554 422.866 160.222C422.573 159.89 422.407 159.538 422.368 159.167L422.309 158.201C421.645 159.06 420.776 159.724 419.703 160.192C418.629 160.661 417.564 160.895 416.51 160.895C415.495 160.895 414.587 160.69 413.786 160.28C412.985 159.851 412.36 159.284 411.911 158.582C411.462 157.859 411.238 157.058 411.238 156.18ZM421.196 157.263C421.431 156.99 421.616 156.717 421.753 156.443C421.89 156.15 421.958 155.906 421.958 155.711V153.807C421.353 153.573 420.718 153.397 420.054 153.28C419.39 153.143 418.736 153.075 418.092 153.075C416.783 153.075 415.719 153.339 414.899 153.866C414.098 154.374 413.698 155.076 413.698 155.975C413.698 156.463 413.825 156.941 414.079 157.41C414.352 157.859 414.743 158.23 415.25 158.523C415.778 158.816 416.422 158.962 417.184 158.962C417.984 158.962 418.746 158.806 419.468 158.494C420.191 158.162 420.767 157.752 421.196 157.263ZM434.163 160.778C433.128 160.778 432.172 160.573 431.293 160.163C430.434 159.734 429.692 159.158 429.067 158.435C428.442 157.693 427.954 156.853 427.602 155.916C427.27 154.979 427.104 154.003 427.104 152.987C427.104 151.913 427.27 150.898 427.602 149.941C427.954 148.984 428.442 148.145 429.067 147.422C429.711 146.68 430.463 146.104 431.322 145.694C432.181 145.264 433.138 145.05 434.193 145.05C435.462 145.05 436.565 145.362 437.502 145.987C438.459 146.612 439.26 147.403 439.904 148.359V145.313H442.189V160.427C442.189 161.872 441.837 163.092 441.134 164.088C440.451 165.084 439.514 165.836 438.322 166.343C437.151 166.871 435.843 167.134 434.398 167.134C432.679 167.134 431.273 166.832 430.18 166.226C429.086 165.621 428.178 164.801 427.456 163.766L428.95 162.448C429.555 163.346 430.336 164.02 431.293 164.469C432.269 164.918 433.304 165.142 434.398 165.142C435.335 165.142 436.194 164.967 436.975 164.615C437.776 164.283 438.41 163.766 438.879 163.063C439.367 162.36 439.611 161.481 439.611 160.427V157.732C439.045 158.669 438.264 159.411 437.268 159.958C436.292 160.505 435.257 160.778 434.163 160.778ZM434.954 158.669C435.501 158.669 436.028 158.572 436.536 158.376C437.043 158.181 437.512 157.927 437.942 157.615C438.371 157.283 438.733 156.912 439.025 156.502C439.318 156.092 439.514 155.672 439.611 155.242V150.849C439.338 150.146 438.947 149.531 438.44 149.004C437.932 148.457 437.356 148.037 436.712 147.744C436.067 147.432 435.403 147.276 434.72 147.276C433.939 147.276 433.236 147.442 432.611 147.774C432.006 148.105 431.488 148.555 431.059 149.121C430.629 149.668 430.297 150.283 430.063 150.966C429.828 151.65 429.711 152.343 429.711 153.046C429.711 153.807 429.848 154.53 430.121 155.213C430.395 155.877 430.766 156.473 431.234 157C431.703 157.527 432.259 157.937 432.904 158.23C433.548 158.523 434.232 158.669 434.954 158.669ZM452.529 160.895C451.377 160.895 450.322 160.69 449.365 160.28C448.428 159.851 447.608 159.275 446.905 158.552C446.222 157.81 445.685 156.961 445.294 156.004C444.923 155.047 444.738 154.032 444.738 152.958C444.738 151.513 445.07 150.195 445.734 149.004C446.397 147.813 447.315 146.856 448.487 146.133C449.678 145.411 451.035 145.05 452.558 145.05C454.101 145.05 455.438 145.421 456.571 146.163C457.723 146.885 458.611 147.842 459.236 149.033C459.881 150.205 460.203 151.474 460.203 152.841C460.203 153.036 460.193 153.231 460.173 153.426C460.173 153.602 460.164 153.739 460.144 153.837H447.462C447.54 154.832 447.813 155.721 448.282 156.502C448.77 157.263 449.395 157.869 450.156 158.318C450.918 158.748 451.738 158.962 452.617 158.962C453.554 158.962 454.433 158.728 455.253 158.259C456.092 157.791 456.668 157.176 456.981 156.414L459.207 157.029C458.875 157.771 458.377 158.435 457.713 159.021C457.069 159.607 456.297 160.066 455.399 160.398C454.521 160.729 453.564 160.895 452.529 160.895ZM447.374 152.05H457.801C457.723 151.054 457.44 150.175 456.952 149.414C456.463 148.652 455.839 148.057 455.077 147.627C454.315 147.197 453.476 146.983 452.558 146.983C451.66 146.983 450.83 147.197 450.068 147.627C449.307 148.057 448.682 148.652 448.194 149.414C447.725 150.175 447.452 151.054 447.374 152.05ZM246.649 195.603H244.071V187.05C244.071 185.488 243.788 184.316 243.222 183.535C242.675 182.754 241.884 182.363 240.85 182.363C240.186 182.363 239.512 182.539 238.829 182.891C238.165 183.242 237.579 183.721 237.071 184.326C236.563 184.912 236.192 185.595 235.958 186.376V195.603H233.381V174.221H235.958V183.594C236.563 182.5 237.384 181.641 238.418 181.016C239.473 180.372 240.605 180.05 241.816 180.05C242.734 180.05 243.495 180.216 244.101 180.547C244.726 180.86 245.223 181.309 245.595 181.895C245.966 182.481 246.229 183.164 246.385 183.945C246.561 184.707 246.649 185.546 246.649 186.464V195.603ZM256.837 195.895C255.685 195.895 254.631 195.69 253.674 195.28C252.737 194.851 251.917 194.275 251.214 193.552C250.53 192.81 249.993 191.961 249.603 191.004C249.232 190.047 249.046 189.032 249.046 187.958C249.046 186.513 249.378 185.195 250.042 184.004C250.706 182.813 251.624 181.856 252.795 181.133C253.986 180.411 255.343 180.05 256.867 180.05C258.409 180.05 259.747 180.421 260.879 181.163C262.031 181.885 262.92 182.842 263.545 184.033C264.189 185.205 264.511 186.474 264.511 187.841C264.511 188.036 264.501 188.231 264.482 188.426C264.482 188.602 264.472 188.739 264.453 188.837H251.77C251.848 189.832 252.122 190.721 252.59 191.502C253.078 192.263 253.703 192.869 254.465 193.318C255.226 193.748 256.046 193.962 256.925 193.962C257.862 193.962 258.741 193.728 259.561 193.259C260.401 192.791 260.977 192.176 261.289 191.414L263.515 192.029C263.183 192.771 262.686 193.435 262.022 194.021C261.377 194.607 260.606 195.066 259.708 195.398C258.829 195.729 257.872 195.895 256.837 195.895ZM251.682 187.05H262.109C262.031 186.054 261.748 185.175 261.26 184.414C260.772 183.652 260.147 183.057 259.386 182.627C258.624 182.197 257.784 181.983 256.867 181.983C255.968 181.983 255.138 182.197 254.377 182.627C253.615 183.057 252.991 183.652 252.502 184.414C252.034 185.175 251.76 186.054 251.682 187.05ZM274.875 182.568C273.586 182.588 272.444 182.92 271.448 183.564C270.471 184.189 269.778 185.058 269.368 186.171V195.603H266.791V180.313H269.192V183.857C269.72 182.803 270.413 181.953 271.272 181.309C272.151 180.645 273.068 180.274 274.025 180.196C274.221 180.196 274.386 180.196 274.523 180.196C274.66 180.196 274.777 180.206 274.875 180.225V182.568ZM283.239 195.895C282.087 195.895 281.033 195.69 280.076 195.28C279.139 194.851 278.319 194.275 277.616 193.552C276.932 192.81 276.395 191.961 276.005 191.004C275.634 190.047 275.448 189.032 275.448 187.958C275.448 186.513 275.78 185.195 276.444 184.004C277.108 182.813 278.026 181.856 279.197 181.133C280.389 180.411 281.746 180.05 283.269 180.05C284.811 180.05 286.149 180.421 287.281 181.163C288.434 181.885 289.322 182.842 289.947 184.033C290.591 185.205 290.913 186.474 290.913 187.841C290.913 188.036 290.904 188.231 290.884 188.426C290.884 188.602 290.874 188.739 290.855 188.837H278.172C278.25 189.832 278.524 190.721 278.992 191.502C279.481 192.263 280.105 192.869 280.867 193.318C281.629 193.748 282.449 193.962 283.327 193.962C284.265 193.962 285.143 193.728 285.963 193.259C286.803 192.791 287.379 192.176 287.692 191.414L289.918 192.029C289.586 192.771 289.088 193.435 288.424 194.021C287.779 194.607 287.008 195.066 286.11 195.398C285.231 195.729 284.274 195.895 283.239 195.895ZM278.084 187.05H288.512C288.434 186.054 288.15 185.175 287.662 184.414C287.174 183.652 286.549 183.057 285.788 182.627C285.026 182.197 284.187 181.983 283.269 181.983C282.371 181.983 281.541 182.197 280.779 182.627C280.018 183.057 279.393 183.652 278.905 184.414C278.436 185.175 278.163 186.054 278.084 187.05Z" fill="black"/>
<path d="M62.5974 164.264H160.854V165.728H62.5974V164.264Z" fill="#266CA8"/>
</svg>
