<svg width="261" height="261" viewBox="0 0 261 261" fill="none" xmlns="http://www.w3.org/2000/svg">
<circle cx="130.5" cy="130.5" r="130.5" fill="#E8E8E8"/>
<path d="M127.432 112.979V113.342C127.432 113.481 127.413 113.618 127.377 113.752L123.949 126.41C123.72 127.256 123.983 128.13 124.203 128.978C124.534 130.254 123.519 130.805 122.68 130.96C122.498 130.994 122.312 131.02 122.14 131.087C121.103 131.495 121.073 132.292 121.283 132.892C121.398 133.222 121.667 133.465 121.935 133.69C122.994 134.581 123.103 135.269 122.821 135.761C122.397 136.499 121.833 137.597 121.762 138.445C121.696 139.228 122.159 139.953 122.17 140.739C122.178 141.276 122.014 141.9 121.816 142.431C121.655 142.865 121.225 143.123 120.763 143.123C120.316 143.123 119.905 143.367 119.692 143.759L116.729 149.19C116.571 149.481 116.462 149.796 116.408 150.123L109.268 193.246C109.157 193.917 108.818 194.53 108.307 194.98L104.908 197.98C104.367 198.457 103.667 198.724 102.946 198.705C95.8666 198.519 94.0445 196.566 94.0008 195.393C93.9953 195.245 94.0376 195.1 94.0837 194.959L98.6192 181.069C98.7034 180.811 98.7502 180.566 98.7635 180.295C99.3581 168.131 105.816 121.839 109.05 99.6723C109.082 99.4558 109.085 99.2449 109.08 99.0261C109.009 95.563 112.367 96.3984 112.941 96.3984C113.414 96.3984 112.744 84.5693 112.35 78.6548L111.816 73.8559C111.778 73.5092 111.678 73.172 111.522 72.86L110.694 71.2044C110.615 71.0457 110.511 70.898 110.455 70.7297C110.114 69.7101 111.007 67.3114 111.729 65.7317C111.926 65.2999 111.929 64.8015 111.717 64.3769C111.553 64.0492 111.506 63.6687 111.635 63.3257C112.979 59.7464 117.611 58.8337 120.539 58.8128C121.176 58.8082 121.778 59.0647 122.261 59.4786L122.757 59.9035C123.293 60.3629 123.975 60.6155 124.681 60.6155H126.167C126.934 60.6155 127.628 60.1581 127.93 59.4528C128.174 58.8834 128.679 58.4536 129.294 58.3829C136.001 57.6116 141.527 64.0953 143.883 68.1632C144.158 68.6379 144.268 69.1857 144.229 69.733L142.778 90.2907C142.643 92.1984 144.493 93.9714 145.992 95.1585C146.017 95.1781 146.04 95.1971 146.062 95.2156C148.181 96.6283 155.554 140.535 159.025 162.622C159.059 162.837 159.066 163.041 159.058 163.258C158.81 169.616 162.924 181.012 165.943 188.128C166.658 189.814 165.743 191.763 163.976 192.242L156.128 194.367C154.508 194.806 152.848 193.81 152.473 192.173L143.401 152.587C142.598 147.45 140.661 144.292 138.975 142.577C137.934 141.518 137.181 139.98 137.564 138.545L137.666 138.161C137.923 137.198 137.677 136.17 137.013 135.427L134.258 132.349C133.554 131.561 133.494 130.388 134.116 129.533L134.262 129.332C134.902 128.452 134.717 127.221 133.847 126.568C133.345 126.192 133.05 125.602 133.05 124.976V123.351C133.05 123.127 133.025 122.904 132.975 122.686L132.163 119.169L130.685 115.325L129.776 112.599C129.612 112.108 129.152 111.776 128.635 111.776C127.97 111.776 127.432 112.315 127.432 112.979Z" fill="#828285"/>
</svg>
