<svg width="53" height="50" viewBox="0 0 53 50" fill="none" xmlns="http://www.w3.org/2000/svg">
<rect width="53" height="50" rx="14" fill="white" fill-opacity="0.4"/>
<rect x="0.5" y="0.5" width="52" height="49" rx="13.5" stroke="black" stroke-opacity="0.22"/>
<path d="M22.5296 34.7994C23.5389 36.0824 25.1244 36.9092 26.9074 36.9092C28.6904 36.9092 30.276 36.0824 31.2853 34.7994C28.3791 35.1932 25.4357 35.1932 22.5296 34.7994Z" fill="#266CA8"/>
<path d="M35.0064 21.3092V22.1541C35.0064 23.1681 35.2958 24.1594 35.8381 25.0031L37.167 27.0706C38.3808 28.959 37.4542 31.5259 35.343 32.123C29.8201 33.6853 23.9947 33.6853 18.4719 32.123C16.3607 31.5259 15.434 28.959 16.6479 27.0706L17.9768 25.0031C18.5191 24.1594 18.8085 23.1681 18.8085 22.1541V21.3092C18.8085 16.67 22.4345 12.9092 26.9074 12.9092C31.3804 12.9092 35.0064 16.67 35.0064 21.3092Z" fill="#266CA8"/>
</svg>
