<svg width="400" height="400" viewBox="0 0 400 400" fill="none" xmlns="http://www.w3.org/2000/svg">
<path d="M108.814 279.402C124.117 279.402 136.388 291.672 136.388 306.976C136.388 314.289 133.483 321.302 128.312 326.473C123.141 331.644 116.127 334.549 108.814 334.549C101.501 334.549 94.4877 331.644 89.3167 326.473C84.1456 321.302 81.2406 314.289 81.2406 306.976C81.2406 299.663 84.1456 292.649 89.3167 287.478C94.4877 282.307 101.501 279.402 108.814 279.402ZM329.402 58.814V86.3875H301.829L252.196 191.029L270.946 224.807C273.014 228.667 274.255 233.217 274.255 238.042C274.255 245.355 271.35 252.368 266.179 257.539C261.008 262.71 253.995 265.615 246.682 265.615H81.2406V238.042H240.891C241.805 238.042 242.682 237.679 243.328 237.032C243.975 236.386 244.338 235.509 244.338 234.595C244.338 233.906 244.2 233.354 243.924 232.941L231.516 210.468H128.805C118.465 210.468 109.366 204.678 104.678 196.268L55.3215 107.068C54.3564 104.862 53.6671 102.518 53.6671 100.174C53.6671 96.5178 55.1196 93.0111 57.7051 90.4255C60.2906 87.84 63.7973 86.3875 67.4538 86.3875H271.36L284.32 58.814M246.682 279.402C261.985 279.402 274.255 291.672 274.255 306.976C274.255 314.289 271.35 321.302 266.179 326.473C261.008 331.644 253.995 334.549 246.682 334.549C239.369 334.549 232.355 331.644 227.184 326.473C222.013 321.302 219.108 314.289 219.108 306.976C219.108 299.663 222.013 292.649 227.184 287.478C232.355 282.307 239.369 279.402 246.682 279.402Z" fill="#266CA8"/>
</svg>
