<svg width="34" height="34" viewBox="0 0 34 34" fill="none" xmlns="http://www.w3.org/2000/svg">
<path d="M13.914 20.596L18.175 19.223C18.4317 19.1363 18.6487 19.004 18.826 18.826C19.0033 18.648 19.1357 18.431 19.223 18.175L20.6 13.909C20.6473 13.7543 20.612 13.619 20.494 13.503C20.3753 13.387 20.2397 13.3537 20.087 13.403L15.825 14.777C15.569 14.8637 15.352 14.996 15.174 15.174C14.9967 15.352 14.8643 15.569 14.777 15.825L13.4 20.091C13.3527 20.2457 13.388 20.381 13.506 20.497C13.6247 20.613 13.7603 20.6463 13.913 20.597M16.995 18.115C16.6843 18.115 16.4217 18.0063 16.207 17.789C15.9917 17.571 15.884 17.3063 15.884 16.995C15.884 16.6843 15.993 16.4217 16.211 16.207C16.429 15.9917 16.6933 15.884 17.004 15.884C17.3153 15.884 17.5787 15.993 17.794 16.211C18.0087 16.429 18.116 16.6933 18.116 17.004C18.116 17.3153 18.007 17.5787 17.789 17.794C17.571 18.008 17.3067 18.115 16.996 18.115M17.003 26C15.7583 26 14.5883 25.764 13.493 25.292C12.3977 24.8193 11.4447 24.178 10.634 23.368C9.82333 22.558 9.18167 21.606 8.709 20.512C8.23633 19.418 8 18.2483 8 17.003C8 15.7577 8.23633 14.5877 8.709 13.493C9.181 12.3977 9.82133 11.4447 10.63 10.634C11.4387 9.82333 12.391 9.18167 13.487 8.709C14.583 8.23633 15.753 8 16.997 8C18.241 8 19.411 8.23633 20.507 8.709C21.6023 9.181 22.5553 9.82167 23.366 10.631C24.1767 11.4403 24.8183 12.3927 25.291 13.488C25.7637 14.5833 26 15.753 26 16.997C26 18.241 25.764 19.411 25.292 20.507C24.82 21.603 24.1787 22.556 23.368 23.366C22.5573 24.176 21.6053 24.8177 20.512 25.291C19.4187 25.7643 18.249 26.0007 17.003 26Z" fill="#266CA8"/>
</svg>
