<svg width="34" height="34" viewBox="0 0 34 34" fill="none" xmlns="http://www.w3.org/2000/svg">
<path d="M21.1392 7.25C20.2508 7.24965 19.375 7.46029 18.584 7.86458C17.7929 8.26887 17.1092 8.85525 16.589 9.57545C16.0689 10.2956 15.7272 11.1291 15.5922 12.0071C15.4571 12.8852 15.5325 13.7828 15.8122 14.626L7.76919 22.671C7.43674 23.0037 7.25 23.4547 7.25 23.925C7.25 24.3953 7.43674 24.8463 7.76919 25.179L8.82119 26.231C8.98585 26.3959 9.18141 26.5267 9.39666 26.6159C9.61192 26.7052 9.84266 26.7511 10.0757 26.7511C10.3087 26.7511 10.5394 26.7052 10.7547 26.6159C10.97 26.5267 11.1655 26.3959 11.3302 26.231L19.3742 18.186C20.3344 18.5049 21.363 18.5582 22.351 18.3402C23.3391 18.1222 24.2498 17.6411 24.9867 16.9477C25.7236 16.2544 26.2592 15.3747 26.5369 14.4017C26.8147 13.4288 26.8241 12.3989 26.5642 11.421C26.2982 10.417 25.1222 10.317 24.5322 10.907L22.8092 12.629C22.7154 12.7264 22.6032 12.8041 22.4791 12.8575C22.3549 12.911 22.2214 12.9392 22.0862 12.9405C21.9511 12.9418 21.817 12.9161 21.6919 12.865C21.5668 12.8138 21.4531 12.7383 21.3575 12.6427C21.2619 12.5471 21.1864 12.4334 21.1352 12.3083C21.0841 12.1832 21.0584 12.0491 21.0597 11.914C21.061 11.7788 21.0892 11.6453 21.1426 11.5211C21.1961 11.397 21.2738 11.2848 21.3712 11.191L23.0932 9.468C23.6832 8.878 23.5832 7.702 22.5782 7.436C22.1089 7.31195 21.6256 7.24942 21.1402 7.25" fill="#266CA8"/>
</svg>
