<svg width="28" height="28" viewBox="0 0 28 28" fill="none" xmlns="http://www.w3.org/2000/svg">
<path d="M17.2912 11.8665C17.5532 11.6046 17.5532 11.18 17.2912 10.918C17.0293 10.6561 16.6046 10.6561 16.3427 10.918L12.3457 14.9151L11.0314 13.6008C10.7695 13.3389 10.3448 13.3389 10.0829 13.6008C9.82096 13.8627 9.82096 14.2874 10.0829 14.5493L11.8714 16.3379C12.1333 16.5998 12.558 16.5998 12.8199 16.3379L17.2912 11.8665Z" fill="#266CA8"/>
<path fill-rule="evenodd" clip-rule="evenodd" d="M13.6871 4.01462C8.37776 4.01462 4.07373 8.31865 4.07373 13.6279C4.07373 18.9372 8.37776 23.2413 13.6871 23.2413C18.9964 23.2413 23.3004 18.9372 23.3004 13.6279C23.3004 8.31865 18.9964 4.01462 13.6871 4.01462ZM5.41512 13.6279C5.41512 9.05948 9.11859 5.35601 13.6871 5.35601C18.2555 5.35601 21.959 9.05948 21.959 13.6279C21.959 18.1964 18.2555 21.8999 13.6871 21.8999C9.11859 21.8999 5.41512 18.1964 5.41512 13.6279Z" fill="#266CA8"/>
</svg>
