<svg width="120" height="120" viewBox="0 0 120 120" fill="none" xmlns="http://www.w3.org/2000/svg">
<rect x="0.220703" y="0.169922" width="119.097" height="119.097" rx="59.5484" fill="#F2F2F2"/>
<path d="M54.9158 74.0675C54.9158 63.4989 63.4855 54.9292 74.0541 54.9292C75.7556 54.928 77.4496 55.1558 79.0903 55.6065V38.813C79.0884 37.7451 78.6633 36.7215 77.9081 35.9663C77.153 35.2112 76.1294 34.7861 75.0614 34.7842H38.7996C37.7322 34.787 36.7094 35.2124 35.9549 35.9675C35.2003 36.7225 34.7755 37.7456 34.7734 38.813V81.1178C34.7754 82.1858 35.2004 83.2095 35.9556 83.9648C36.7107 84.72 37.7343 85.1452 38.8023 85.1473H58.4519C56.1471 81.9131 54.9116 78.0389 54.9184 74.0675H54.9158ZM44.8433 42.8419H69.0152C69.2797 42.8419 69.5417 42.894 69.7862 42.9953C70.0306 43.0965 70.2527 43.2449 70.4398 43.432C70.6269 43.6191 70.7753 43.8412 70.8766 44.0857C70.9778 44.3301 71.0299 44.5921 71.0299 44.8567C71.0299 45.1213 70.9778 45.3833 70.8766 45.6277C70.7753 45.8721 70.6269 46.0942 70.4398 46.2813C70.2527 46.4684 70.0306 46.6168 69.7862 46.7181C69.5417 46.8193 69.2797 46.8714 69.0152 46.8714H44.8433C44.5787 46.8714 44.3167 46.8193 44.0723 46.7181C43.8278 46.6168 43.6057 46.4684 43.4186 46.2813C43.2315 46.0942 43.0831 45.8721 42.9819 45.6277C42.8806 45.3833 42.8285 45.1213 42.8285 44.8567C42.8285 44.5921 42.8806 44.3301 42.9819 44.0857C43.0831 43.8412 43.2315 43.6191 43.4186 43.432C43.6057 43.2449 43.8278 43.0965 44.0723 42.9953C44.3167 42.894 44.5787 42.8419 44.8433 42.8419ZM44.8433 54.9279H52.9023C53.4367 54.9279 53.9492 55.1401 54.327 55.518C54.7048 55.8958 54.9171 56.4083 54.9171 56.9426C54.9171 57.477 54.7048 57.9894 54.327 58.3673C53.9492 58.7451 53.4367 58.9574 52.9023 58.9574H44.8433C44.3089 58.9574 43.7965 58.7451 43.4186 58.3673C43.0408 57.9894 42.8285 57.477 42.8285 56.9426C42.8285 56.4083 43.0408 55.8958 43.4186 55.518C43.7965 55.1401 44.3089 54.9279 44.8433 54.9279ZM48.8721 71.044H44.8433C44.5757 71.0488 44.3098 71.0003 44.0611 70.9013C43.8124 70.8022 43.586 70.6546 43.395 70.4671C43.2041 70.2795 43.0524 70.0558 42.9488 69.809C42.8453 69.5622 42.7919 69.2972 42.7919 69.0295C42.7919 68.7619 42.8453 68.4969 42.9488 68.2501C43.0524 68.0033 43.2041 67.7796 43.395 67.592C43.586 67.4045 43.8124 67.2569 44.0611 67.1578C44.3098 67.0588 44.5757 67.0103 44.8433 67.0151H48.8721C49.1398 67.0103 49.4057 67.0588 49.6543 67.1578C49.903 67.2569 50.1294 67.4045 50.3204 67.592C50.5114 67.7796 50.6631 68.0033 50.7666 68.2501C50.8702 68.4969 50.9235 68.7619 50.9235 69.0295C50.9235 69.2972 50.8702 69.5622 50.7666 69.809C50.6631 70.0558 50.5114 70.2795 50.3204 70.4671C50.1294 70.6546 49.903 70.8022 49.6543 70.9013C49.4057 71.0003 49.1398 71.0488 48.8721 71.044Z" fill="#266CA8"/>
<path d="M74.0464 58.9507C65.6971 58.9507 58.9297 65.7181 58.9297 74.0674C58.9297 82.4167 65.6971 89.1841 74.0464 89.1841C82.3957 89.1841 89.1605 82.4167 89.1605 74.0674C89.1605 65.7181 82.3957 58.9507 74.0464 58.9507ZM82.6872 71.3813L74.0451 80.0234C74.0111 80.0669 73.9745 80.1084 73.9355 80.1476C73.6609 80.4204 73.2896 80.5735 72.9026 80.5735C72.5155 80.5735 72.1442 80.4204 71.8696 80.1476L66.4243 74.7022C66.1512 74.4278 65.9979 74.0564 65.9979 73.6693C65.9979 73.2821 66.1512 72.9107 66.4243 72.6363C66.6987 72.3632 67.0701 72.2099 67.4572 72.2099C67.8444 72.2099 68.2158 72.3632 68.4902 72.6363L72.8969 77.0431L80.6213 69.3154C80.8957 69.0423 81.2671 68.8889 81.6542 68.8889C82.0414 68.8889 82.4128 69.0423 82.6872 69.3154C82.9603 69.5898 83.1136 69.9612 83.1136 70.3483C83.1136 70.7355 82.9603 71.1069 82.6872 71.3813Z" fill="#266CA8"/>
</svg>
