<svg width="519" height="270" viewBox="0 0 519 270" fill="none" xmlns="http://www.w3.org/2000/svg">
<path d="M33.273 146.207C-4.48714 209.67 46.64 243.527 79.1336 253.196C80.2103 253.516 81.311 253.659 82.4343 253.659H275.5L334.797 52.8199C305.346 1.4985 252.056 -2.82689 229.092 1.4256C141.613 14.256 117.799 89.8773 116.827 126.084C78.424 109.703 56.3447 122.258 40.2819 137.442C37.5604 140.015 35.1879 142.989 33.273 146.207Z" fill="#F8F8F8"/>
<path d="M110.935 269.552H449.319C489.268 264.594 500.713 235.896 501.442 222.167C505.525 169.971 468.394 153.034 449.319 151.09C439.696 79.9394 387.962 66.5258 363.297 68.7127C333.846 17.3913 280.556 13.0659 257.593 17.3184C170.113 30.1488 146.299 105.77 145.327 141.977C106.924 125.595 84.8449 138.151 68.7822 153.335C66.0606 155.908 63.6882 158.882 61.7732 162.1C24.0131 225.563 75.1402 259.419 107.634 269.088C108.711 269.409 109.811 269.552 110.935 269.552Z" fill="#EEF2F5"/>
<path d="M317.147 101.518H251.973C250.362 101.518 249.057 102.823 249.057 104.434V158.744C249.057 160.354 247.751 161.66 246.141 161.66H230.898C228.483 161.66 227.115 164.427 228.581 166.346L281.746 235.92C282.909 237.442 285.198 237.448 286.369 235.934L340.191 166.36C341.673 164.444 340.307 161.66 337.884 161.66H321.664C320.026 161.66 318.709 160.311 318.749 158.673L320.062 104.504C320.101 102.867 318.785 101.518 317.147 101.518Z" fill="#266CA8"/>
</svg>
