<svg width="37" height="37" viewBox="0 0 37 37" fill="none" xmlns="http://www.w3.org/2000/svg">
<path d="M23.3165 16.3931C23.6644 16.0452 23.6644 15.4811 23.3165 15.1332C22.9686 14.7852 22.4045 14.7852 22.0565 15.1332L16.747 20.4427L15.0011 18.6969C14.6532 18.349 14.0891 18.349 13.7412 18.6969C13.3932 19.0448 13.3932 19.6089 13.7412 19.9569L16.117 22.3327C16.4649 22.6806 17.029 22.6806 17.3769 22.3327L23.3165 16.3931Z" fill="white"/>
<path fill-rule="evenodd" clip-rule="evenodd" d="M18.5288 5.96289C11.4761 5.96289 5.75879 11.6802 5.75879 18.7329C5.75879 25.7856 11.4761 31.503 18.5288 31.503C25.5815 31.503 31.2989 25.7856 31.2989 18.7329C31.2989 11.6802 25.5815 5.96289 18.5288 5.96289ZM7.54065 18.7329C7.54065 12.6643 12.4602 7.74476 18.5288 7.74476C24.5974 7.74476 29.517 12.6643 29.517 18.7329C29.517 24.8015 24.5974 29.7211 18.5288 29.7211C12.4602 29.7211 7.54065 24.8015 7.54065 18.7329Z" fill="white"/>
</svg>
