<svg width="16" height="18" viewBox="0 0 16 18" fill="none" xmlns="http://www.w3.org/2000/svg">
<path d="M7.91547 17.0479H8.58731C10.8988 17.0479 12.0546 17.0479 12.806 16.295C13.5575 15.5421 13.6344 14.3071 13.7881 11.8371L14.0097 8.27811C14.0931 6.93792 14.1348 6.26783 13.7578 5.8432C13.3809 5.41857 12.7442 5.41857 11.471 5.41857H5.03176C3.75854 5.41857 3.12192 5.41857 2.74494 5.8432C2.36796 6.26783 2.40968 6.93792 2.49311 8.27811L2.71466 11.8371C2.86842 14.3071 2.9453 15.5421 3.69675 16.295C4.44821 17.0479 5.60396 17.0479 7.91547 17.0479Z" fill="#ED2A2A"/>
<path d="M0.775391 3.89569C0.775391 3.51339 1.06229 3.20347 1.41619 3.20347L3.62929 3.2031C4.069 3.19106 4.45692 2.88904 4.60654 2.44222C4.61047 2.43047 4.615 2.41598 4.63122 2.3634L4.72658 2.05431C4.78494 1.8648 4.83577 1.6997 4.90692 1.55212C5.18797 0.969097 5.70795 0.56424 6.30885 0.460586C6.46095 0.434349 6.62202 0.43446 6.80691 0.434588H9.69601C9.8809 0.43446 10.042 0.434349 10.1941 0.460586C10.795 0.56424 11.315 0.969097 11.596 1.55212C11.6671 1.6997 11.718 1.8648 11.7763 2.05431L11.8717 2.3634C11.8879 2.41598 11.8924 2.43047 11.8964 2.44222C12.046 2.88904 12.5109 3.19143 12.9506 3.20347H15.0866C15.4405 3.20347 15.7274 3.51339 15.7274 3.89569C15.7274 4.27799 15.4405 4.5879 15.0866 4.5879H1.41619C1.06229 4.5879 0.775391 4.27799 0.775391 3.89569Z" fill="#ED2A2A"/>
</svg>
