<svg width="15" height="15" viewBox="0 0 15 15" fill="none" xmlns="http://www.w3.org/2000/svg">
<path d="M7.06306 11.7143L7.06309 11.7142L11.9779 6.79946C11.309 6.52105 10.5167 6.06374 9.76744 5.31446C9.01805 4.56507 8.56071 3.77268 8.28232 3.10371L3.36743 8.0186L3.36742 8.01861C2.98389 8.40214 2.79211 8.59392 2.62719 8.80536C2.43264 9.05479 2.26584 9.32468 2.12975 9.61024C2.01438 9.85231 1.92862 10.1096 1.75709 10.6242L0.852589 13.3377C0.76818 13.5909 0.834086 13.8701 1.02283 14.0589C1.21158 14.2476 1.49076 14.3135 1.74399 14.2291L4.4575 13.3246C4.97207 13.1531 5.22937 13.0673 5.47145 12.9519C5.75701 12.8158 6.02689 12.649 6.27632 12.4545C6.48776 12.2896 6.67955 12.0978 7.06306 11.7143Z" fill="black"/>
<path d="M13.3417 5.43566C14.3622 4.41513 14.3622 2.76053 13.3417 1.74C12.3212 0.719478 10.6666 0.719478 9.64602 1.74L9.05656 2.32947C9.06463 2.35385 9.073 2.37856 9.08169 2.40359C9.29775 3.02635 9.70541 3.84274 10.4723 4.60962C11.2392 5.3765 12.0556 5.78416 12.6783 6.00022C12.7032 6.00887 12.7278 6.0172 12.7521 6.02524L13.3417 5.43566Z" fill="black"/>
</svg>
