<svg width="17" height="17" viewBox="0 0 17 17" fill="none" xmlns="http://www.w3.org/2000/svg">
<path d="M12.2014 8.20293C12.3305 8.32095 12.404 8.4878 12.404 8.66272C12.404 8.83763 12.3305 9.00448 12.2014 9.12251L8.56725 12.4452C8.31332 12.6773 7.91925 12.6597 7.68708 12.4058C7.45491 12.1518 7.47256 11.7578 7.72649 11.5256L10.1764 9.28572L0.982375 9.28572C0.638302 9.28572 0.359375 9.00679 0.359375 8.66272C0.359375 8.31864 0.638301 8.03972 0.982375 8.03972L10.1764 8.03972L7.72649 5.79984C7.47256 5.56767 7.45491 5.17361 7.68708 4.91967C7.91925 4.66573 8.31332 4.64809 8.56725 4.88026L12.2014 8.20293Z" fill="#2F65A7"/>
<path d="M10.9504 15.5157C10.6063 15.5157 10.3274 15.7946 10.3274 16.1387C10.3274 16.4828 10.6063 16.7617 10.9504 16.7617L10.996 16.7617C12.132 16.7617 13.0476 16.7617 13.7678 16.6649C14.5155 16.5644 15.145 16.3493 15.645 15.8494C16.145 15.3494 16.3601 14.7198 16.4606 13.9721C16.5574 13.252 16.5574 12.3363 16.5574 11.2003L16.5574 6.12514C16.5574 4.98913 16.5574 4.07347 16.4606 3.3533C16.3601 2.60561 16.145 1.97607 15.645 1.47608C15.145 0.976088 14.5155 0.761033 13.7678 0.66051C13.0476 0.563686 12.132 0.563701 10.9959 0.563718L10.9504 0.563718C10.6063 0.563718 10.3274 0.842645 10.3274 1.18672C10.3274 1.53079 10.6063 1.80972 10.9504 1.80972C12.1427 1.80972 12.9743 1.81104 13.6018 1.8954C14.2113 1.97735 14.5341 2.12724 14.764 2.35714C14.9939 2.58703 15.1437 2.90981 15.2257 3.51933C15.31 4.14677 15.3114 4.97837 15.3114 6.17072L15.3114 11.1547C15.3114 12.3471 15.31 13.1787 15.2257 13.8061C15.1437 14.4156 14.9939 14.7384 14.764 14.9683C14.5341 15.1982 14.2113 15.3481 13.6018 15.43C12.9743 15.5144 12.1427 15.5157 10.9504 15.5157Z" fill="#2F65A7"/>
</svg>
