<svg width="13" height="13" viewBox="0 0 13 13" fill="none" xmlns="http://www.w3.org/2000/svg">
<path d="M9.50405 6.13098C9.60765 6.22571 9.66667 6.35962 9.66667 6.5C9.66667 6.64038 9.60765 6.77429 9.50405 6.86901L6.58738 9.53568C6.38358 9.72201 6.06732 9.70785 5.88098 9.50405C5.69465 9.30025 5.70881 8.98398 5.91262 8.79765L7.8788 7L0.5 7C0.223858 7 -2.72054e-07 6.77614 -2.84124e-07 6.5C-2.96195e-07 6.22386 0.223858 6 0.5 6L7.8788 6L5.91261 4.20235C5.70881 4.01601 5.69465 3.69975 5.88098 3.49595C6.06732 3.29215 6.38358 3.27798 6.58738 3.46432L9.50405 6.13098Z" fill="white"/>
<path d="M8.5 12C8.22386 12 8 12.2239 8 12.5C8 12.7761 8.22386 13 8.5 13L8.53658 13C9.44831 13 10.1832 13 10.7612 12.9223C11.3612 12.8416 11.8665 12.669 12.2678 12.2678C12.669 11.8665 12.8416 11.3612 12.9223 10.7612C13 10.1832 13 9.44831 13 8.53658L13 4.46342C13 3.55169 13 2.81681 12.9223 2.23883C12.8416 1.63876 12.669 1.13351 12.2678 0.732231C11.8665 0.330953 11.3612 0.158357 10.7612 0.0776801C10.1832 -2.7148e-05 9.44831 -1.56718e-05 8.53658 -2.28049e-06L8.5 -2.2789e-06C8.22386 -2.26682e-06 8 0.223856 8 0.499998C8 0.77614 8.22386 0.999998 8.5 0.999998C9.45694 0.999998 10.1244 1.00106 10.6279 1.06876C11.1171 1.13453 11.3762 1.25483 11.5607 1.43934C11.7452 1.62385 11.8655 1.88289 11.9312 2.37208C11.9989 2.87565 12 3.54305 12 4.5L12 8.5C12 9.45694 11.9989 10.1244 11.9312 10.6279C11.8655 11.1171 11.7452 11.3761 11.5607 11.5607C11.3762 11.7452 11.1171 11.8655 10.6279 11.9312C10.1244 11.9989 9.45694 12 8.5 12Z" fill="white"/>
</svg>
