<svg width="17" height="18" viewBox="0 0 17 18" fill="none" xmlns="http://www.w3.org/2000/svg">
<path fill-rule="evenodd" clip-rule="evenodd" d="M2.85201 7.66526V5.95856C2.85201 2.8619 5.36235 0.351562 8.45901 0.351562C11.5557 0.351562 14.066 2.8619 14.066 5.95856V7.66526C14.992 7.73441 15.595 7.90901 16.0358 8.34978C16.7657 9.07967 16.7657 10.2544 16.7657 12.6039C16.7657 14.9534 16.7657 16.1281 16.0358 16.858C15.3059 17.5879 14.1312 17.5879 11.7817 17.5879H5.13634C2.78686 17.5879 1.61212 17.5879 0.882234 16.858C0.152344 16.1281 0.152344 14.9534 0.152344 12.6039C0.152344 10.2544 0.152344 9.07967 0.882234 8.34978C1.32301 7.90901 1.92602 7.73441 2.85201 7.66526ZM4.09801 5.95856C4.09801 3.55005 6.0505 1.59756 8.45901 1.59756C10.8675 1.59756 12.82 3.55005 12.82 5.95856V7.62286C12.5019 7.6199 12.1567 7.6199 11.7817 7.6199H5.13634C4.76129 7.6199 4.41617 7.6199 4.09801 7.62286V5.95856Z" fill="black"/>
</svg>
