<svg width="20" height="18" viewBox="0 0 20 18" fill="none" xmlns="http://www.w3.org/2000/svg">
<path d="M10 -0.5625C9.53819 -0.5625 9.16667 -0.186328 9.16667 0.28125V0.703125H9.10417C7.83333 0.703125 6.80556 1.74727 6.80556 3.03047C6.80556 4.20469 7.67014 5.19609 8.81944 5.34023L10.9375 5.60742C11.1146 5.62852 11.25 5.7832 11.25 5.96602C11.25 6.16641 11.0903 6.32461 10.8958 6.32461L8.33333 6.32812C7.79514 6.32812 7.36111 6.76758 7.36111 7.3125C7.36111 7.85742 7.79514 8.29688 8.33333 8.29688H9.16667V8.71875C9.16667 9.18633 9.53819 9.5625 10 9.5625C10.4618 9.5625 10.8333 9.18633 10.8333 8.71875V8.29688H10.8958C12.1667 8.29688 13.1944 7.25273 13.1944 5.96953C13.1944 4.79531 12.3299 3.80391 11.1806 3.65977L9.0625 3.39258C8.88542 3.37148 8.75 3.2168 8.75 3.03398C8.75 2.83359 8.90972 2.67539 9.10417 2.67539L11.3889 2.67188C11.9271 2.67188 12.3611 2.23242 12.3611 1.6875C12.3611 1.14258 11.9271 0.703125 11.3889 0.703125H10.8333V0.28125C10.8333 -0.186328 10.4618 -0.5625 10 -0.5625ZM3.79514 12.0059L2.31597 13.5H1.11111C0.496528 13.5 0 14.0027 0 14.625V16.875C0 17.4973 0.496528 18 1.11111 18H12.2396C13.2465 18 14.2292 17.673 15.0417 17.0684L19.4375 13.7883C20.0556 13.3277 20.1875 12.4488 19.7326 11.823C19.2778 11.1973 18.4097 11.0637 17.7917 11.5242L13.6319 14.625H9.72222C9.26042 14.625 8.88889 14.2488 8.88889 13.7812C8.88889 13.3137 9.26042 12.9375 9.72222 12.9375H12.2222C12.8368 12.9375 13.3333 12.4348 13.3333 11.8125C13.3333 11.1902 12.8368 10.6875 12.2222 10.6875H6.9375C5.76042 10.6875 4.62847 11.1621 3.79514 12.0059Z" fill="black"/>
</svg>
