<svg width="180" height="59" viewBox="0 0 180 59" fill="none" xmlns="http://www.w3.org/2000/svg">
<g clip-path="url(#clip0_1770_2155)">
<path d="M167.299 0H9.18498C4.11657 0 0.0078125 4.10876 0.0078125 9.17716V49.0905C0.0078125 54.159 4.11657 58.2677 9.18498 58.2677H167.299C172.367 58.2677 176.476 54.159 176.476 49.0905V9.17716C176.476 4.10876 172.367 0 167.299 0Z" fill="black"/>
<path d="M37.181 29.209C37.1435 25.1287 40.5929 23.1437 40.7506 23.0513C38.7971 20.2624 35.7692 19.8813 34.7052 19.8509C32.162 19.5889 29.6953 21.341 28.3998 21.341C27.0785 21.341 25.0836 19.8762 22.9335 19.9193C20.1668 19.9611 17.5784 21.5296 16.1589 23.9653C13.2292 28.9317 15.4141 36.2301 18.221 40.2445C19.625 42.2105 21.2657 44.4057 23.4132 44.3285C25.5141 44.2437 26.2989 43.0169 28.8342 43.0169C31.3463 43.0169 32.0832 44.3285 34.2733 44.2792C36.5281 44.2437 37.9477 42.3042 39.3026 40.3205C40.9251 38.067 41.5767 35.8477 41.6026 35.7338C41.5496 35.7161 37.2236 34.0995 37.181 29.209Z" fill="white"/>
<path d="M33.0443 17.2113C34.1743 15.8276 34.9474 13.945 34.7329 12.0347C33.0974 12.1056 31.052 13.1424 29.8742 14.4957C28.8322 15.6883 27.9013 17.6429 28.1418 19.4811C29.979 19.6153 31.8653 18.5734 33.0443 17.2113Z" fill="white"/>
<path d="M55.1514 26.4493H58.0558L63.8443 41.4932H60.8683L59.6922 38.3944H53.556L52.3287 41.4932H49.3527L55.1514 26.4493ZM56.6241 30.4378L54.6196 35.6024H58.6183L56.6241 30.4378ZM68.5385 30.3662V31.5935C69.043 31.0889 69.5885 30.7105 70.1748 30.4583C70.7611 30.206 71.3884 30.0799 72.0566 30.0799C73.5088 30.0799 74.7428 30.6287 75.7587 31.7264C76.7746 32.8241 77.2825 34.232 77.2825 35.9501C77.2825 37.6069 76.7576 38.9944 75.7076 40.1125C74.6576 41.2239 73.4133 41.7795 71.9747 41.7795C71.3339 41.7795 70.7373 41.667 70.185 41.442C69.6328 41.2102 69.0839 40.8352 68.5385 40.3171V45.5635H65.767V30.3662H68.5385ZM71.4736 32.6571C70.5941 32.6571 69.8646 32.9571 69.2851 33.557C68.7055 34.157 68.4158 34.9411 68.4158 35.9092C68.4158 36.8978 68.7055 37.699 69.2851 38.3126C69.8646 38.9194 70.5941 39.2228 71.4736 39.2228C72.3259 39.2228 73.0418 38.9126 73.6213 38.2921C74.2076 37.6717 74.5008 36.8808 74.5008 35.9195C74.5008 34.9649 74.2145 34.1843 73.6417 33.5775C73.069 32.9639 72.3463 32.6571 71.4736 32.6571ZM82.3654 30.3662V31.5935C82.8699 31.0889 83.4153 30.7105 84.0017 30.4583C84.588 30.206 85.2153 30.0799 85.8834 30.0799C87.3357 30.0799 88.5697 30.6287 89.5856 31.7264C90.6015 32.8241 91.1094 34.232 91.1094 35.9501C91.1094 37.6069 90.5844 38.9944 89.5345 40.1125C88.4845 41.2239 87.2402 41.7795 85.8016 41.7795C85.1607 41.7795 84.5642 41.667 84.0119 41.442C83.4596 41.2102 82.9108 40.8352 82.3654 40.3171V45.5635H79.5938V30.3662H82.3654ZM85.3005 32.6571C84.421 32.6571 83.6914 32.9571 83.1119 33.557C82.5324 34.157 82.2426 34.9411 82.2426 35.9092C82.2426 36.8978 82.5324 37.699 83.1119 38.3126C83.6914 38.9194 84.421 39.2228 85.3005 39.2228C86.1527 39.2228 86.8686 38.9126 87.4482 38.2921C88.0345 37.6717 88.3277 36.8808 88.3277 35.9195C88.3277 34.9649 88.0413 34.1843 87.4686 33.5775C86.8959 32.9639 86.1732 32.6571 85.3005 32.6571ZM107.483 28.4947L105.366 30.3662C104.623 29.3299 103.866 28.8117 103.095 28.8117C102.72 28.8117 102.414 28.914 102.175 29.1185C101.936 29.3162 101.817 29.5412 101.817 29.7935C101.817 30.0458 101.902 30.2844 102.073 30.5094C102.305 30.8094 103.003 31.4537 104.169 32.4423C105.26 33.3559 105.921 33.932 106.153 34.1707C106.733 34.757 107.142 35.3195 107.381 35.8581C107.626 36.3899 107.749 36.9728 107.749 37.6069C107.749 38.841 107.323 39.8603 106.47 40.6648C105.618 41.4693 104.507 41.8716 103.136 41.8716C102.066 41.8716 101.132 41.6091 100.334 41.0841C99.5433 40.5591 98.8649 39.7341 98.299 38.6092L100.702 37.1569C101.425 38.4864 102.257 39.1512 103.198 39.1512C103.689 39.1512 104.101 39.008 104.435 38.7217C104.769 38.4353 104.936 38.1046 104.936 37.7296C104.936 37.3887 104.81 37.0478 104.558 36.7069C104.306 36.366 103.75 35.8445 102.891 35.1422C101.255 33.8059 100.198 32.7764 99.7205 32.0537C99.2433 31.3241 99.0046 30.598 99.0046 29.8753C99.0046 28.8322 99.4001 27.939 100.191 27.1959C100.989 26.4459 101.97 26.0709 103.136 26.0709C103.886 26.0709 104.599 26.2447 105.274 26.5925C105.956 26.9402 106.692 27.5743 107.483 28.4947ZM110.53 26.2652H113.312V30.3662H114.969V32.7696H113.312V41.4932H110.53V32.7696H109.099V30.3662H110.53V26.2652ZM121.698 30.0799C122.748 30.0799 123.733 30.3424 124.654 30.8673C125.581 31.3923 126.304 32.1048 126.822 33.0048C127.34 33.9048 127.599 34.8763 127.599 35.9195C127.599 36.9694 127.337 37.9512 126.812 38.8648C126.294 39.7784 125.585 40.4943 124.685 41.0125C123.785 41.5238 122.793 41.7795 121.709 41.7795C120.113 41.7795 118.75 41.2136 117.618 40.0818C116.493 38.9432 115.93 37.5626 115.93 35.9399C115.93 34.2013 116.568 32.7525 117.843 31.5935C118.961 30.5844 120.246 30.0799 121.698 30.0799ZM121.739 32.7082C120.873 32.7082 120.151 33.0116 119.571 33.6184C118.998 34.2184 118.712 34.9888 118.712 35.9297C118.712 36.8978 118.995 37.6819 119.561 38.2819C120.134 38.8819 120.856 39.1819 121.729 39.1819C122.602 39.1819 123.328 38.8785 123.907 38.2717C124.487 37.6649 124.777 36.8842 124.777 35.9297C124.777 34.9752 124.49 34.2013 123.918 33.6082C123.352 33.0082 122.626 32.7082 121.739 32.7082ZM129.236 30.3662H131.629V31.7673C131.888 31.2151 132.232 30.7958 132.662 30.5094C133.091 30.223 133.562 30.0799 134.073 30.0799C134.434 30.0799 134.813 30.1753 135.208 30.3662L134.339 32.7696C134.012 32.6059 133.742 32.5241 133.531 32.5241C133.101 32.5241 132.737 32.79 132.437 33.3218C132.143 33.8536 131.997 34.8968 131.997 36.4513L132.007 36.9933V41.4932H129.236V30.3662ZM147.746 36.7376H138.777C138.907 37.5285 139.251 38.1592 139.81 38.6296C140.376 39.0932 141.095 39.325 141.968 39.325C143.011 39.325 143.908 38.9603 144.658 38.2308L147.01 39.3353C146.424 40.1671 145.721 40.7841 144.903 41.1864C144.085 41.5818 143.114 41.7795 141.989 41.7795C140.243 41.7795 138.822 41.2307 137.724 40.133C136.626 39.0285 136.077 37.6478 136.077 35.9911C136.077 34.2934 136.623 32.8855 137.714 31.7673C138.811 30.6423 140.185 30.0799 141.835 30.0799C143.587 30.0799 145.012 30.6423 146.11 31.7673C147.208 32.8855 147.757 34.365 147.757 36.2058L147.746 36.7376ZM144.944 34.5388C144.76 33.9184 144.395 33.4139 143.85 33.0252C143.311 32.6366 142.684 32.4423 141.968 32.4423C141.191 32.4423 140.509 32.6605 139.923 33.0968C139.555 33.3695 139.214 33.8502 138.9 34.5388H144.944Z" fill="white"/>
<path d="M51.5415 12.2302H53.0848C54.0796 12.2302 54.8188 12.3542 55.3022 12.6021C55.7857 12.847 56.1839 13.2467 56.4969 13.8015C56.8099 14.3562 56.9664 15.0039 56.9664 15.7446C56.9664 16.2714 56.8781 16.7564 56.7014 17.1996C56.5279 17.6397 56.2862 18.0054 55.9763 18.2967C55.6695 18.588 55.3363 18.7894 54.9768 18.901C54.6173 19.0126 53.9944 19.0684 53.1081 19.0684H51.5415V12.2302ZM52.8384 13.4854V17.7946H53.4428C54.0378 17.7946 54.4686 17.7265 54.7351 17.5901C55.0047 17.4537 55.2247 17.2244 55.3952 16.9021C55.5656 16.5798 55.6509 16.1831 55.6509 15.7121C55.6509 14.9869 55.4479 14.4244 55.0419 14.0246C54.6762 13.6651 54.0889 13.4854 53.2801 13.4854H52.8384ZM60.4389 13.8805C60.9162 13.8805 61.364 13.9998 61.7824 14.2384C62.2039 14.4771 62.5324 14.8009 62.7679 15.21C63.0034 15.6191 63.1212 16.0607 63.1212 16.5349C63.1212 17.0121 63.0019 17.4584 62.7633 17.8737C62.5277 18.2889 62.2054 18.6143 61.7963 18.8499C61.3873 19.0823 60.9363 19.1985 60.4436 19.1985C59.7184 19.1985 59.0986 18.9413 58.5841 18.4268C58.0728 17.9093 57.8171 17.2817 57.8171 16.5442C57.8171 15.7539 58.1069 15.0953 58.6864 14.5685C59.1947 14.1098 59.7788 13.8805 60.4389 13.8805ZM60.4575 15.0752C60.064 15.0752 59.7355 15.2131 59.472 15.4889C59.2117 15.7616 59.0815 16.1118 59.0815 16.5395C59.0815 16.9796 59.2102 17.336 59.4674 17.6087C59.7277 17.8814 60.0562 18.0178 60.4529 18.0178C60.8496 18.0178 61.1796 17.8799 61.443 17.604C61.7065 17.3282 61.8382 16.9734 61.8382 16.5395C61.8382 16.1056 61.708 15.7539 61.4477 15.4843C61.1905 15.2116 60.8604 15.0752 60.4575 15.0752ZM63.6 14.0107H64.8412L65.8592 16.8882L66.9563 14.0107H67.714L68.7879 16.8556L69.8059 14.0107H71.0564L69.2109 19.0684H68.4067L67.3282 16.1862L66.2172 19.0684H65.4223L63.6 14.0107ZM71.7769 14.0107H73.0414V14.5267C73.3296 14.2849 73.5899 14.1176 73.8223 14.0246C74.0579 13.9285 74.298 13.8805 74.5429 13.8805C75.0449 13.8805 75.471 14.0556 75.8212 14.4058C76.1157 14.7033 76.2629 15.1434 76.2629 15.726V19.0684H75.0077V16.851C75.0077 16.2466 74.9798 15.8453 74.9241 15.647C74.8714 15.4486 74.7768 15.2983 74.6405 15.1961C74.5072 15.0907 74.3414 15.038 74.1431 15.038C73.8859 15.038 73.6643 15.1248 73.4783 15.2983C73.2955 15.4688 73.1684 15.7059 73.0971 16.0096C73.06 16.1676 73.0414 16.5101 73.0414 17.0369V19.0684H71.7769V14.0107ZM77.3599 12.0582H78.629V19.0684H77.3599V12.0582ZM82.1573 13.8805C82.6346 13.8805 83.0824 13.9998 83.5008 14.2384C83.9222 14.4771 84.2507 14.8009 84.4863 15.21C84.7218 15.6191 84.8396 16.0607 84.8396 16.5349C84.8396 17.0121 84.7203 17.4584 84.4816 17.8737C84.2461 18.2889 83.9238 18.6143 83.5147 18.8499C83.1056 19.0823 82.6547 19.1985 82.162 19.1985C81.4368 19.1985 80.817 18.9413 80.3025 18.4268C79.7912 17.9093 79.5355 17.2817 79.5355 16.5442C79.5355 15.7539 79.8253 15.0953 80.4048 14.5685C80.913 14.1098 81.4972 13.8805 82.1573 13.8805ZM82.1759 15.0752C81.7823 15.0752 81.4538 15.2131 81.1904 15.4889C80.9301 15.7616 80.7999 16.1118 80.7999 16.5395C80.7999 16.9796 80.9285 17.336 81.1858 17.6087C81.4461 17.8814 81.7746 18.0178 82.1713 18.0178C82.5679 18.0178 82.898 17.8799 83.1614 17.604C83.4248 17.3282 83.5566 16.9734 83.5566 16.5395C83.5566 16.1056 83.4264 15.7539 83.1661 15.4843C82.9088 15.2116 82.5788 15.0752 82.1759 15.0752ZM89.6184 14.0107H90.8828V19.0684H89.6184V18.5338C89.3704 18.7693 89.121 18.9397 88.8699 19.0451C88.622 19.1474 88.3524 19.1985 88.0611 19.1985C87.4072 19.1985 86.8416 18.9459 86.3643 18.4408C85.8871 17.9325 85.6484 17.3019 85.6484 16.5488C85.6484 15.7678 85.8793 15.1279 86.3411 14.6289C86.8028 14.13 87.3638 13.8805 88.0239 13.8805C88.3276 13.8805 88.6127 13.9378 88.8792 14.0525C89.1457 14.1672 89.3921 14.3392 89.6184 14.5685V14.0107ZM88.2842 15.0519C87.8906 15.0519 87.5637 15.1914 87.3033 15.4703C87.043 15.7461 86.9129 16.101 86.9129 16.5349C86.9129 16.9718 87.0446 17.3313 87.308 17.6133C87.5745 17.8954 87.9015 18.0364 88.2889 18.0364C88.6886 18.0364 89.0202 17.8985 89.2837 17.6226C89.5471 17.3437 89.6788 16.9796 89.6788 16.5302C89.6788 16.0901 89.5471 15.7337 89.2837 15.461C89.0202 15.1883 88.6871 15.0519 88.2842 15.0519ZM95.9033 12.0582H97.1677V19.0684H95.9033V18.5338C95.6554 18.7693 95.4059 18.9397 95.1549 19.0451C94.9069 19.1474 94.6373 19.1985 94.346 19.1985C93.6921 19.1985 93.1265 18.9459 92.6493 18.4408C92.172 17.9325 91.9334 17.3019 91.9334 16.5488C91.9334 15.7678 92.1643 15.1279 92.626 14.6289C93.0878 14.13 93.6487 13.8805 94.3088 13.8805C94.6125 13.8805 94.8976 13.9378 95.1642 14.0525C95.4307 14.1672 95.6771 14.3392 95.9033 14.5685V12.0582ZM94.5691 15.0519C94.1756 15.0519 93.8486 15.1914 93.5883 15.4703C93.328 15.7461 93.1978 16.101 93.1978 16.5349C93.1978 16.9718 93.3295 17.3313 93.5929 17.6133C93.8595 17.8954 94.1864 18.0364 94.5738 18.0364C94.9736 18.0364 95.3052 17.8985 95.5686 17.6226C95.832 17.3437 95.9637 16.9796 95.9637 16.5302C95.9637 16.0901 95.832 15.7337 95.5686 15.461C95.3052 15.1883 94.972 15.0519 94.5691 15.0519ZM103.494 13.8805C103.972 13.8805 104.42 13.9998 104.838 14.2384C105.259 14.4771 105.588 14.8009 105.823 15.21C106.059 15.6191 106.177 16.0607 106.177 16.5349C106.177 17.0121 106.057 17.4584 105.819 17.8737C105.583 18.2889 105.261 18.6143 104.852 18.8499C104.443 19.0823 103.992 19.1985 103.499 19.1985C102.774 19.1985 102.154 18.9413 101.64 18.4268C101.128 17.9093 100.873 17.2817 100.873 16.5442C100.873 15.7539 101.162 15.0953 101.742 14.5685C102.25 14.1098 102.834 13.8805 103.494 13.8805ZM103.513 15.0752C103.12 15.0752 102.791 15.2131 102.528 15.4889C102.267 15.7616 102.137 16.1118 102.137 16.5395C102.137 16.9796 102.266 17.336 102.523 17.6087C102.783 17.8814 103.112 18.0178 103.508 18.0178C103.905 18.0178 104.235 17.8799 104.499 17.604C104.762 17.3282 104.894 16.9734 104.894 16.5395C104.894 16.1056 104.764 15.7539 104.503 15.4843C104.246 15.2116 103.916 15.0752 103.513 15.0752ZM107.218 14.0107H108.482V14.5267C108.771 14.2849 109.031 14.1176 109.263 14.0246C109.499 13.9285 109.739 13.8805 109.984 13.8805C110.486 13.8805 110.912 14.0556 111.262 14.4058C111.557 14.7033 111.704 15.1434 111.704 15.726V19.0684H110.449V16.851C110.449 16.2466 110.421 15.8453 110.365 15.647C110.312 15.4486 110.218 15.2983 110.082 15.1961C109.948 15.0907 109.783 15.038 109.584 15.038C109.327 15.038 109.105 15.1248 108.919 15.2983C108.737 15.4688 108.61 15.7059 108.538 16.0096C108.501 16.1676 108.482 16.5101 108.482 17.0369V19.0684H107.218V14.0107ZM115.758 12.1466H117.022V14.0107H117.775V15.1031H117.022V19.0684H115.758V15.1031H115.107V14.0107H115.758V12.1466ZM118.463 12.0582H119.723V14.522C119.971 14.3082 120.22 14.1486 120.471 14.0432C120.722 13.9347 120.976 13.8805 121.234 13.8805C121.736 13.8805 122.159 14.054 122.503 14.4011C122.797 14.7018 122.944 15.1434 122.944 15.726V19.0684H121.694V16.851C121.694 16.2652 121.666 15.8686 121.61 15.6609C121.554 15.4533 121.458 15.2983 121.322 15.1961C121.189 15.0938 121.023 15.0427 120.825 15.0427C120.567 15.0427 120.346 15.1279 120.16 15.2983C119.977 15.4688 119.85 15.7012 119.779 15.9956C119.741 16.1475 119.723 16.4946 119.723 17.0369V19.0684H118.463V12.0582ZM129.243 16.9067H125.166C125.225 17.2662 125.382 17.5529 125.636 17.7667C125.893 17.9775 126.22 18.0829 126.617 18.0829C127.091 18.0829 127.498 17.9171 127.839 17.5854L128.909 18.0875C128.642 18.4656 128.323 18.7461 127.951 18.9289C127.579 19.1086 127.137 19.1985 126.626 19.1985C125.833 19.1985 125.187 18.949 124.688 18.4501C124.189 17.948 123.939 17.3205 123.939 16.5674C123.939 15.7957 124.187 15.1558 124.683 14.6475C125.182 14.1362 125.806 13.8805 126.556 13.8805C127.353 13.8805 128 14.1362 128.499 14.6475C128.998 15.1558 129.248 15.8283 129.248 16.665L129.243 16.9067ZM127.97 15.9073C127.886 15.6253 127.72 15.3959 127.472 15.2193C127.227 15.0427 126.942 14.9543 126.617 14.9543C126.263 14.9543 125.954 15.0535 125.687 15.2518C125.52 15.3758 125.365 15.5943 125.222 15.9073H127.97Z" fill="white"/>
</g>
<defs>
<clipPath id="clip0_1770_2155">
<rect width="176.468" height="58.2677" fill="white" transform="translate(0.0078125)"/>
</clipPath>
</defs>
</svg>
