<svg width="37" height="37" viewBox="0 0 37 37" fill="none" xmlns="http://www.w3.org/2000/svg">
<path d="M14.5296 28.7994C15.5389 30.0824 17.1244 30.9092 18.9074 30.9092C20.6904 30.9092 22.276 30.0824 23.2853 28.7994C20.3791 29.1932 17.4357 29.1932 14.5296 28.7994Z" fill="#266CA8"/>
<path d="M27.0064 15.3092V16.1541C27.0064 17.1681 27.2958 18.1594 27.8381 19.0031L29.167 21.0706C30.3808 22.959 29.4542 25.5259 27.343 26.123C21.8201 27.6853 15.9947 27.6853 10.4719 26.123C8.36068 25.5259 7.43401 22.959 8.64785 21.0706L9.97678 19.0031C10.5191 18.1594 10.8085 17.1681 10.8085 16.1541V15.3092C10.8085 10.67 14.4345 6.90918 18.9074 6.90918C23.3804 6.90918 27.0064 10.67 27.0064 15.3092Z" fill="#266CA8"/>
</svg>
