<svg width="31" height="31" viewBox="0 0 31 31" fill="none" xmlns="http://www.w3.org/2000/svg">
<g clip-path="url(#clip0_1_3330)">
<path fill-rule="evenodd" clip-rule="evenodd" d="M10.9535 6.41587C11.0739 5.28728 12.0291 4.4082 13.1896 4.4082H18.187C19.3475 4.4082 20.3027 5.28728 20.423 6.41587C21.1858 6.43139 21.8453 6.47084 22.4084 6.57428C23.166 6.71344 23.8108 6.97854 24.3354 7.5032C24.937 8.1048 25.1958 8.86228 25.3167 9.76192C25.4332 10.6284 25.4332 11.7302 25.4332 13.0971V19.2036C25.4332 20.5705 25.4332 21.6722 25.3167 22.5388C25.1958 23.4384 24.937 24.1959 24.3354 24.7975C23.7338 25.3991 22.9763 25.6578 22.0767 25.7788C21.2102 25.8953 20.1084 25.8953 18.7415 25.8952H12.635C11.2681 25.8953 10.1664 25.8953 9.29986 25.7788C8.40022 25.6578 7.64274 25.3991 7.04114 24.7975C6.43953 24.1959 6.18078 23.4384 6.05982 22.5388C5.94332 21.6722 5.94334 20.5705 5.94336 19.2036V13.0971C5.94334 11.7302 5.94332 10.6284 6.05982 9.76192C6.18078 8.86228 6.43953 8.1048 7.04114 7.5032C7.56579 6.97854 8.21053 6.71344 8.96813 6.57428C9.53126 6.47084 10.1908 6.43139 10.9535 6.41587ZM10.9555 7.9155C10.2378 7.93084 9.68473 7.96695 9.23899 8.04883C8.67247 8.15289 8.34457 8.31998 8.10124 8.56331C7.82463 8.83992 7.64427 9.22829 7.54567 9.96169C7.44417 10.7166 7.44258 11.7172 7.44258 13.1519V19.1488C7.44258 20.5834 7.44417 21.584 7.54567 22.339C7.64427 23.0724 7.82463 23.4607 8.10124 23.7374C8.37786 24.014 8.76623 24.1943 9.49962 24.2929C10.2546 24.3944 11.2552 24.396 12.6898 24.396H18.6867C20.1214 24.396 21.122 24.3944 21.8769 24.2929C22.6103 24.1943 22.9987 24.014 23.2753 23.7374C23.5519 23.4607 23.7323 23.0724 23.8309 22.339C23.9324 21.584 23.934 20.5834 23.934 19.1488V13.1519C23.934 11.7172 23.9324 10.7166 23.8309 9.96169C23.7323 9.22829 23.5519 8.83992 23.2753 8.56331C23.032 8.31998 22.7041 8.15289 22.1376 8.04883C21.6918 7.96695 21.1388 7.93084 20.421 7.9155C20.2926 9.03551 19.3414 9.90533 18.187 9.90533H13.1896C12.0352 9.90533 11.0839 9.03551 10.9555 7.9155ZM13.1896 5.90742C12.7756 5.90742 12.44 6.24303 12.44 6.65703V7.65651C12.44 8.0705 12.7756 8.40612 13.1896 8.40612H18.187C18.601 8.40612 18.9366 8.0705 18.9366 7.65651V6.65703C18.9366 6.24303 18.601 5.90742 18.187 5.90742H13.1896Z" fill="black" fill-opacity="0.4"/>
<rect width="10.9943" height="10.9943" transform="translate(17.6875 15.1514)" fill="white"/>
<path d="M28.2982 18.8975C28.3499 19.4859 28.3499 20.2194 28.3499 21.1496C28.3499 23.0776 28.3499 24.1603 27.8894 24.8583L25.1135 22.0823L28.2982 18.8975Z" fill="black" fill-opacity="0.4"/>
<path d="M27.3947 25.353L24.6188 22.5771L21.4337 25.7621C22.0221 25.8138 22.7555 25.8138 23.6857 25.8138C25.6141 25.8138 26.6968 25.8138 27.3947 25.353Z" fill="black" fill-opacity="0.4"/>
<path fill-rule="evenodd" clip-rule="evenodd" d="M23.6857 16.4854C25.8845 16.4854 26.9838 16.4854 27.6669 17.1684C27.9019 17.4034 28.0561 17.6877 28.1572 18.0491L20.5853 25.621C20.2239 25.5199 19.9396 25.3658 19.7045 25.1308C19.0215 24.4477 19.0215 23.3483 19.0215 21.1496C19.0215 18.9508 19.0215 17.8515 19.7045 17.1684C20.3876 16.4854 21.487 16.4854 23.6857 16.4854ZM20.654 19.6371C20.654 20.4696 21.175 21.4411 21.9879 21.7885C22.1774 21.8695 22.3955 21.8695 22.585 21.7885C23.3979 21.4411 23.9189 20.4696 23.9189 19.6371C23.9189 18.798 23.188 18.1178 22.2864 18.1178C21.3849 18.1178 20.654 18.798 20.654 19.6371Z" fill="black" fill-opacity="0.4"/>
<path d="M22.9861 19.7503C22.9861 20.1367 22.6728 20.4499 22.2864 20.4499C21.9 20.4499 21.5868 20.1367 21.5868 19.7503C21.5868 19.3639 21.9 19.0507 22.2864 19.0507C22.6728 19.0507 22.9861 19.3639 22.9861 19.7503Z" fill="black" fill-opacity="0.4"/>
</g>
<defs>
<clipPath id="clip0_1_3330">
<rect x="0.695312" y="0.158203" width="29.9843" height="29.9843" rx="4.99739" fill="white"/>
</clipPath>
</defs>
</svg>
