<svg width="16" height="17" viewBox="0 0 16 17" fill="none" xmlns="http://www.w3.org/2000/svg">
<path d="M6.31579 2.7625V2.975H9.68421V2.7625C9.68421 2.31163 9.50677 1.87923 9.19092 1.56042C8.87507 1.24161 8.44668 1.0625 8 1.0625C7.55332 1.0625 7.12493 1.24161 6.80908 1.56042C6.49323 1.87923 6.31579 2.31163 6.31579 2.7625ZM5.26316 2.975V2.7625C5.26316 2.02984 5.5515 1.32719 6.06476 0.809117C6.57802 0.291048 7.27414 0 8 0C8.72586 0 9.42198 0.291048 9.93524 0.809117C10.4485 1.32719 10.7368 2.02984 10.7368 2.7625V2.975H15.4737C15.6133 2.975 15.7471 3.03097 15.8458 3.1306C15.9445 3.23023 16 3.36535 16 3.50625C16 3.64715 15.9445 3.78227 15.8458 3.8819C15.7471 3.98153 15.6133 4.0375 15.4737 4.0375H14.2455L13.4034 14.1763C13.3394 14.9462 12.9912 15.6638 12.4277 16.1868C11.8643 16.7098 11.1267 17 10.3613 17H5.63874C4.87334 16.9999 4.1359 16.7096 3.57255 16.1867C3.00919 15.6637 2.66103 14.9462 2.59705 14.1763L1.75495 4.0375H0.526316C0.386728 4.0375 0.252858 3.98153 0.154154 3.8819C0.055451 3.78227 0 3.64715 0 3.50625C0 3.36535 0.055451 3.23023 0.154154 3.1306C0.252858 3.03097 0.386728 2.975 0.526316 2.975H5.26316ZM6.94737 6.90625C6.94737 6.83649 6.93376 6.7674 6.90731 6.70295C6.88086 6.6385 6.84209 6.57993 6.79321 6.5306C6.74434 6.48127 6.68632 6.44214 6.62246 6.41544C6.55861 6.38874 6.49017 6.375 6.42105 6.375C6.35194 6.375 6.2835 6.38874 6.21964 6.41544C6.15579 6.44214 6.09776 6.48127 6.04889 6.5306C6.00002 6.57993 5.96125 6.6385 5.9348 6.70295C5.90835 6.7674 5.89474 6.83649 5.89474 6.90625V13.0688C5.89474 13.1385 5.90835 13.2076 5.9348 13.2721C5.96125 13.3365 6.00002 13.3951 6.04889 13.4444C6.09776 13.4937 6.15579 13.5329 6.21964 13.5596C6.2835 13.5863 6.35194 13.6 6.42105 13.6C6.49017 13.6 6.55861 13.5863 6.62246 13.5596C6.68632 13.5329 6.74434 13.4937 6.79321 13.4444C6.84209 13.3951 6.88086 13.3365 6.90731 13.2721C6.93376 13.2076 6.94737 13.1385 6.94737 13.0688V6.90625ZM9.57895 6.375C9.28842 6.375 9.05263 6.613 9.05263 6.90625V13.0688C9.05263 13.2096 9.10808 13.3448 9.20679 13.4444C9.30549 13.544 9.43936 13.6 9.57895 13.6C9.71854 13.6 9.85241 13.544 9.95111 13.4444C10.0498 13.3448 10.1053 13.2096 10.1053 13.0688V6.90625C10.1053 6.613 9.86947 6.375 9.57895 6.375Z" fill="#ED2A2A"/>
</svg>
