<svg width="180" height="59" viewBox="0 0 180 59" fill="none" xmlns="http://www.w3.org/2000/svg">
<g clip-path="url(#clip0_1770_2146)">
<path d="M170.006 0H9.33351C4.18307 0 0.0078125 4.10876 0.0078125 9.17716V49.0905C0.0078125 54.159 4.18307 58.2677 9.33351 58.2677H170.006C175.157 58.2677 179.332 54.159 179.332 49.0905V9.17716C179.332 4.10876 175.157 0 170.006 0Z" fill="black"/>
<path d="M16.6159 46.6895L29.2186 33.8066L16.6265 20.9468C16.2902 21.147 16.082 21.6105 16.082 22.2173V45.4313C16.0865 46.0381 16.2872 46.4678 16.6159 46.6895Z" fill="#00C9FF"/>
<path d="M29.67 33.4512L33.424 29.6133L18.1367 21.0441C17.8793 20.8913 17.5869 20.8105 17.2891 20.8101L29.6685 33.4497L29.67 33.4512Z" fill="#1ADC84"/>
<path d="M29.6667 34.1641L17.248 46.8591C17.5597 46.8644 17.8667 46.7813 18.1349 46.6189L33.4523 38.0266L29.6667 34.1641Z" fill="#E64C33"/>
<path d="M38.9593 32.7217L33.8721 29.8647L30.0156 33.8075L33.9008 37.7748L38.9578 34.9255C40.0332 34.3203 40.0332 33.3239 38.9593 32.7217Z" fill="#FEDE28"/>
<path d="M60.415 28.9038L58.4002 30.898C57.1253 29.5481 55.639 28.8731 53.9413 28.8731C52.4618 28.8731 51.2209 29.364 50.2187 30.3458C49.2232 31.3276 48.7255 32.5207 48.7255 33.9252C48.7255 35.3774 49.2437 36.6081 50.28 37.6171C51.3164 38.6262 52.5947 39.1307 54.1151 39.1307C55.1037 39.1307 55.9355 38.9228 56.6105 38.5069C57.2923 38.091 57.8412 37.4399 58.2571 36.5535H53.9004V33.8638H61.4683L61.4888 34.4979C61.4888 35.8138 61.1479 37.0615 60.4661 38.241C59.7843 39.4205 58.9014 40.3205 57.8173 40.9409C56.7332 41.5613 55.4617 41.8716 54.0026 41.8716C52.4413 41.8716 51.047 41.5341 49.8198 40.8591C48.5994 40.1773 47.6312 39.2091 46.9154 37.9546C46.2063 36.7001 45.8517 35.3468 45.8517 33.8945C45.8517 31.9037 46.5097 30.1719 47.8256 28.6992C49.3869 26.947 51.4186 26.0709 53.9208 26.0709C55.2299 26.0709 56.4537 26.3129 57.5923 26.797C58.5536 27.2061 59.4945 27.9083 60.415 28.9038ZM69.0363 30.0799C70.0863 30.0799 71.0715 30.3424 71.9919 30.8673C72.9191 31.3923 73.6418 32.1048 74.16 33.0048C74.6782 33.9048 74.9373 34.8763 74.9373 35.9195C74.9373 36.9694 74.6748 37.9512 74.1498 38.8648C73.6316 39.7784 72.9225 40.4943 72.0226 41.0125C71.1226 41.5238 70.1306 41.7795 69.0465 41.7795C67.4511 41.7795 66.0875 41.2136 64.9557 40.0818C63.8308 38.9432 63.2683 37.5626 63.2683 35.9399C63.2683 34.2013 63.9058 32.7525 65.1807 31.5935C66.2989 30.5844 67.5841 30.0799 69.0363 30.0799ZM69.0772 32.7082C68.2113 32.7082 67.4886 33.0116 66.9091 33.6184C66.3364 34.2184 66.05 34.9888 66.05 35.9297C66.05 36.8978 66.333 37.6819 66.8989 38.2819C67.4716 38.8819 68.1943 39.1819 69.067 39.1819C69.9397 39.1819 70.6658 38.8785 71.2453 38.2717C71.8248 37.6649 72.1146 36.8842 72.1146 35.9297C72.1146 34.9752 71.8283 34.2013 71.2555 33.6082C70.6897 33.0082 69.9635 32.7082 69.0772 32.7082ZM82.4541 30.0799C83.504 30.0799 84.4892 30.3424 85.4097 30.8673C86.3369 31.3923 87.0596 32.1048 87.5778 33.0048C88.096 33.9048 88.355 34.8763 88.355 35.9195C88.355 36.9694 88.0926 37.9512 87.5676 38.8648C87.0494 39.7784 86.3403 40.4943 85.4404 41.0125C84.5404 41.5238 83.5484 41.7795 82.4643 41.7795C80.8689 41.7795 79.5053 41.2136 78.3735 40.0818C77.2486 38.9432 76.6861 37.5626 76.6861 35.9399C76.6861 34.2013 77.3235 32.7525 78.5985 31.5935C79.7167 30.5844 81.0018 30.0799 82.4541 30.0799ZM82.495 32.7082C81.6291 32.7082 80.9064 33.0116 80.3269 33.6184C79.7542 34.2184 79.4678 34.9888 79.4678 35.9297C79.4678 36.8978 79.7507 37.6819 80.3166 38.2819C80.8894 38.8819 81.6121 39.1819 82.4848 39.1819C83.3575 39.1819 84.0836 38.8785 84.6631 38.2717C85.2426 37.6649 85.5324 36.8842 85.5324 35.9297C85.5324 34.9752 85.246 34.2013 84.6733 33.6082C84.1074 33.0082 83.3813 32.7082 82.495 32.7082ZM98.8684 30.3662H101.65V39.8978C101.65 41.7795 101.272 43.1636 100.515 44.0499C99.499 45.2499 97.9684 45.8499 95.923 45.8499C94.8321 45.8499 93.9151 45.7135 93.1719 45.4408C92.4288 45.1681 91.8015 44.7658 91.2902 44.234C90.7788 43.709 90.4004 43.0681 90.155 42.3113H93.2333C93.506 42.6249 93.8572 42.8602 94.2867 43.017C94.7162 43.1806 95.2242 43.2624 95.8105 43.2624C96.5605 43.2624 97.1639 43.1465 97.6207 42.9147C98.0775 42.6829 98.3979 42.3829 98.582 42.0147C98.7729 41.6466 98.8684 41.0125 98.8684 40.1125C98.3775 40.6034 97.8627 40.958 97.3241 41.1761C96.7855 41.3875 96.1753 41.4932 95.4935 41.4932C94.0003 41.4932 92.739 40.9545 91.7095 39.8773C90.68 38.8001 90.1652 37.4365 90.1652 35.7865C90.1652 34.0207 90.7107 32.6025 91.8015 31.5321C92.7901 30.5639 93.9697 30.0799 95.3401 30.0799C95.981 30.0799 96.5843 30.1992 97.1502 30.4378C97.7229 30.6696 98.2957 31.0548 98.8684 31.5935V30.3662ZM95.9741 32.6877C95.0946 32.6877 94.3685 32.9843 93.7958 33.5775C93.2231 34.1638 92.9367 34.9036 92.9367 35.7967C92.9367 36.724 93.2299 37.4842 93.8162 38.0774C94.4026 38.6705 95.1389 38.9671 96.0253 38.9671C96.8912 38.9671 97.6036 38.6773 98.1627 38.0978C98.7286 37.5183 99.0115 36.7581 99.0115 35.8172C99.0115 34.8899 98.7286 34.1366 98.1627 33.557C97.5968 32.9775 96.8673 32.6877 95.9741 32.6877ZM104.176 26.0709H106.968V41.4932H104.176V26.0709ZM120.652 36.7376H111.683C111.812 37.5285 112.157 38.1592 112.716 38.6296C113.282 39.0932 114.001 39.325 114.874 39.325C115.917 39.325 116.813 38.9603 117.563 38.2308L119.915 39.3353C119.329 40.1671 118.627 40.7841 117.809 41.1864C116.991 41.5818 116.019 41.7795 114.894 41.7795C113.149 41.7795 111.727 41.2307 110.629 40.133C109.532 39.0285 108.983 37.6478 108.983 35.9911C108.983 34.2934 109.528 32.8855 110.619 31.7673C111.717 30.6423 113.091 30.0799 114.741 30.0799C116.493 30.0799 117.918 30.6423 119.016 31.7673C120.113 32.8855 120.662 34.365 120.662 36.2058L120.652 36.7376ZM117.85 34.5388C117.666 33.9184 117.301 33.4139 116.755 33.0252C116.217 32.6366 115.589 32.4423 114.874 32.4423C114.096 32.4423 113.415 32.6605 112.828 33.0968C112.46 33.3695 112.119 33.8502 111.805 34.5388H117.85ZM129.089 26.4493H132.126C133.77 26.4493 134.953 26.6027 135.675 26.9095C136.405 27.2095 136.977 27.7004 137.393 28.3822C137.816 29.0572 138.027 29.8685 138.027 30.8162C138.027 31.8662 137.751 32.7389 137.199 33.4343C136.654 34.1297 135.91 34.6138 134.97 34.8865C134.417 35.0434 133.412 35.1218 131.953 35.1218V41.4932H129.089V26.4493ZM131.953 32.3298H132.863C133.579 32.3298 134.076 32.2787 134.356 32.1764C134.636 32.0741 134.854 31.9071 135.01 31.6753C135.174 31.4366 135.256 31.1503 135.256 30.8162C135.256 30.2367 135.031 29.814 134.581 29.5481C134.254 29.3503 133.647 29.2515 132.761 29.2515H131.953V32.3298ZM140.236 26.0709H143.028V41.4932H140.236V26.0709ZM153.787 30.3662H156.569V41.4932H153.787V40.3171C153.242 40.8352 152.693 41.2102 152.141 41.442C151.595 41.667 151.002 41.7795 150.361 41.7795C148.923 41.7795 147.678 41.2239 146.628 40.1125C145.578 38.9944 145.053 37.6069 145.053 35.9501C145.053 34.232 145.561 32.8241 146.577 31.7264C147.593 30.6287 148.827 30.0799 150.279 30.0799C150.948 30.0799 151.575 30.206 152.161 30.4583C152.747 30.7105 153.289 31.0889 153.787 31.5935V30.3662ZM150.852 32.6571C149.986 32.6571 149.267 32.9639 148.694 33.5775C148.121 34.1843 147.835 34.9649 147.835 35.9195C147.835 36.8808 148.125 37.6717 148.704 38.2921C149.291 38.9126 150.01 39.2228 150.862 39.2228C151.742 39.2228 152.471 38.9194 153.051 38.3126C153.63 37.699 153.92 36.8978 153.92 35.9092C153.92 34.9411 153.63 34.157 153.051 33.557C152.471 32.9571 151.738 32.6571 150.852 32.6571ZM158.154 30.3662H161.007L163.902 37.3512L167.093 30.3662H169.956L162.981 45.5635H160.097L162.388 40.6648L158.154 30.3662Z" fill="white"/>
<path d="M53.834 13.3459L52.9183 14.2524C52.3387 13.6388 51.6631 13.332 50.8915 13.332C50.219 13.332 49.6549 13.5551 49.1994 14.0014C48.7469 14.4476 48.5207 14.99 48.5207 15.6284C48.5207 16.2885 48.7562 16.8479 49.2272 17.3065C49.6983 17.7652 50.2794 17.9945 50.9705 17.9945C51.4198 17.9945 51.7979 17.9 52.1047 17.711C52.4147 17.5219 52.6641 17.226 52.8532 16.8231H50.8729V15.6005H54.3128L54.3221 15.8887C54.3221 16.4868 54.1672 17.054 53.8573 17.5901C53.5474 18.1262 53.146 18.5353 52.6533 18.8173C52.1605 19.0994 51.5826 19.2404 50.9193 19.2404C50.2097 19.2404 49.5759 19.087 49.0181 18.7801C48.4633 18.4702 48.0233 18.0302 47.6979 17.4599C47.3755 16.8897 47.2144 16.2745 47.2144 15.6144C47.2144 14.7095 47.5135 13.9223 48.1116 13.2529C48.8213 12.4565 49.7448 12.0582 50.8822 12.0582C51.4772 12.0582 52.0335 12.1683 52.551 12.3883C52.988 12.5742 53.4157 12.8934 53.834 13.3459ZM55.5215 12.2302H59.2543V13.504H56.8138V14.7405H59.2543V15.991H56.8138V17.79H59.2543V19.0684H55.5215V12.2302ZM59.7982 12.2302H63.5776V13.5133H62.3317V19.0684H61.0115V13.5133H59.7982V12.2302ZM67.0454 12.2302H68.3377V19.0684H67.0454V12.2302ZM69.1327 12.2302H72.912V13.5133H71.6662V19.0684H70.3459V13.5133H69.1327V12.2302ZM79.7036 12.0582C80.6705 12.0582 81.5011 12.4084 82.1953 13.1088C82.8926 13.8092 83.2412 14.663 83.2412 15.6702C83.2412 16.6681 82.8972 17.5126 82.2092 18.2037C81.5243 18.8948 80.6922 19.2404 79.7129 19.2404C78.6871 19.2404 77.8349 18.8855 77.1562 18.1758C76.4775 17.4661 76.1381 16.6232 76.1381 15.647C76.1381 14.9931 76.2962 14.3918 76.6123 13.8433C76.9284 13.2948 77.3623 12.8609 77.9139 12.5417C78.4686 12.2194 79.0652 12.0582 79.7036 12.0582ZM79.6897 13.332C79.0575 13.332 78.526 13.552 78.0952 13.9921C77.6644 14.4321 77.449 14.9915 77.449 15.6702C77.449 16.4264 77.7202 17.0245 78.2626 17.4646C78.684 17.8086 79.1675 17.9806 79.7129 17.9806C80.3296 17.9806 80.8549 17.7574 81.2888 17.3112C81.7227 16.8649 81.9396 16.3148 81.9396 15.6609C81.9396 15.0101 81.7211 14.46 81.2842 14.0107C80.8472 13.5582 80.3157 13.332 79.6897 13.332ZM84.4731 12.2302H85.7189L88.6522 16.7301V12.2302H89.9538V19.0684H88.7034L85.7747 14.5824V19.0684H84.4731V12.2302Z" fill="white"/>
</g>
<defs>
<clipPath id="clip0_1770_2146">
<rect width="179.324" height="58.2677" fill="white" transform="translate(0.0078125)"/>
</clipPath>
</defs>
</svg>
