<svg width="26" height="26" viewBox="0 0 26 26" fill="none" xmlns="http://www.w3.org/2000/svg">
<path d="M25.2646 17.3706C25.2646 21.0717 25.2646 22.9223 24.1148 24.0721C22.965 25.2219 21.1145 25.2219 17.4133 25.2219H7.99197C4.29081 25.2219 2.44023 25.2219 1.29043 24.0721C0.140625 22.9223 0.140625 21.0717 0.140625 17.3706V7.94925C0.140625 4.24809 0.140625 2.39751 1.29043 1.2477C2.44023 0.0979004 4.29081 0.0979004 7.99197 0.0979004H17.4133C21.1145 0.0979004 22.965 0.0979004 24.1148 1.2477C25.2646 2.39751 25.2646 4.24809 25.2646 7.94925V17.3706ZM4.85156 3.23853C4.1114 3.23853 3.74071 3.23812 3.51074 3.46802C3.28078 3.69798 3.28125 4.06861 3.28125 4.80884V20.511C3.28125 21.2511 3.2809 21.6218 3.51074 21.8518C3.7407 22.0818 4.11133 22.0813 4.85156 22.0813H16.7158C17.4557 22.0813 17.8257 22.0816 18.0557 21.8518C18.2856 21.6218 18.2861 21.2512 18.2861 20.511V20.0286C18.2861 19.2883 18.2856 18.9177 18.0557 18.6877C17.8257 18.458 17.4557 18.4583 16.7158 18.4583H8.34082C7.6007 18.4583 7.23094 18.4576 7.00098 18.2278C6.77104 17.9978 6.77051 17.628 6.77051 16.8879V4.80884C6.77051 4.06861 6.77098 3.69798 6.54102 3.46802C6.31105 3.23806 5.94042 3.23853 5.2002 3.23853H4.85156ZM11.1328 3.23853C10.3927 3.23853 10.022 3.2382 9.79199 3.46802C9.56203 3.69798 9.5625 4.06861 9.5625 4.80884V13.9885C9.5625 14.7288 9.56203 15.0994 9.79199 15.3293C10.022 15.5592 10.3927 15.5588 11.1328 15.5588H16.5273C16.7274 15.5588 16.8895 15.7211 16.8896 15.9211C16.8896 16.1213 16.7275 16.2834 16.5273 16.2834H10.4346C9.69434 16.2834 9.32371 16.2839 9.09375 16.054C8.86396 15.824 8.86426 15.4532 8.86426 14.7131V3.93677C8.86426 3.55133 8.55145 3.23853 8.16602 3.23853C7.78074 3.23871 7.46875 3.55144 7.46875 3.93677V16.1633C7.46875 16.9032 7.46847 17.2732 7.69824 17.5032C7.9282 17.7331 8.29883 17.7336 9.03906 17.7336H16.7158C17.4558 17.7336 17.8257 17.7331 18.0557 17.5032C18.2856 17.2732 18.2861 16.9033 18.2861 16.1633V15.6799C18.2861 14.9397 18.2856 14.5691 18.0557 14.3391C17.8257 14.1095 17.4555 14.1096 16.7158 14.1096H12.5283C11.7881 14.1096 11.4175 14.1091 11.1875 13.8792C10.958 13.6492 10.958 13.2791 10.958 12.5393V6.25806C10.958 5.51832 10.9579 5.14818 11.1875 4.91821C11.4175 4.68825 11.7881 4.68774 12.5283 4.68774H19.1582C19.8984 4.68774 20.2691 4.68825 20.499 4.91821C20.7286 5.14818 20.7285 5.51835 20.7285 6.25806V19.76C20.7285 19.8407 20.7286 19.8812 20.7256 19.9153C20.6924 20.2949 20.3913 20.5959 20.0117 20.6292C19.9776 20.6321 19.9372 20.6321 19.8564 20.6321H19.709C19.3088 20.6321 18.9835 20.9566 18.9834 21.3567C18.9834 21.757 19.3087 22.0813 19.709 22.0813H20.5537C21.2939 22.0813 21.6646 22.0818 21.8945 21.8518C22.1244 21.6218 22.124 21.2512 22.124 20.511V4.80884C22.124 4.06861 22.1245 3.69798 21.8945 3.46802C21.6646 3.23817 21.2938 3.23853 20.5537 3.23853H11.1328ZM5.02539 4.68774C5.21811 4.68774 5.375 4.84463 5.375 5.03735V18.3372C5.375 19.0774 5.37453 19.448 5.60449 19.678C5.83446 19.9078 6.2052 19.9075 6.94531 19.9075H16.5273C16.7274 19.9075 16.8896 20.0697 16.8896 20.2698C16.8896 20.4699 16.7275 20.6321 16.5273 20.6321H6.24707C5.50727 20.6321 5.13721 20.6322 4.90723 20.4026C4.67727 20.1726 4.67676 19.802 4.67676 19.0618V5.03735C4.67676 4.84478 4.83287 4.68798 5.02539 4.68774Z" fill="#266CA8"/>
</svg>
