<svg width="55" height="55" viewBox="0 0 55 55" fill="none" xmlns="http://www.w3.org/2000/svg">
<path d="M48.7314 35.1956C48.7314 41.5769 48.7314 44.7676 46.749 46.75C44.7666 48.7324 41.576 48.7324 35.1946 48.7324H18.9509C12.5696 48.7324 9.3789 48.7324 7.39648 46.75C5.41406 44.7676 5.41406 41.5769 5.41406 35.1956V18.9518C5.41406 12.5705 5.41406 9.37988 7.39648 7.39746C9.3789 5.41504 12.5696 5.41504 18.9509 5.41504H35.1946C41.576 5.41504 44.7666 5.41504 46.749 7.39746C48.7314 9.37988 48.7314 12.5705 48.7314 18.9518V35.1956ZM13.5361 10.8301C12.2599 10.8301 11.6211 10.8301 11.2246 11.2266C10.8285 11.6231 10.8281 12.2612 10.8281 13.5371V40.6104C10.8281 41.8866 10.8281 42.5254 11.2246 42.9219C11.6211 43.3184 12.2599 43.3184 13.5361 43.3184H33.9912C35.2675 43.3184 35.9062 43.3184 36.3027 42.9219C36.6992 42.5254 36.6992 41.8866 36.6992 40.6104V39.7773C36.6992 38.5015 36.699 37.8633 36.3027 37.4668C35.9062 37.0703 35.2675 37.0703 33.9912 37.0703H19.5518C18.2758 37.0703 17.6377 37.0703 17.2412 36.6738C16.8448 36.2774 16.8447 35.6393 16.8447 34.3633V13.5371C16.8447 12.261 16.8446 11.6231 16.4482 11.2266C16.0518 10.8301 15.4138 10.8301 14.1377 10.8301H13.5361ZM24.3652 10.8301C23.089 10.8301 22.4512 10.8301 22.0547 11.2266C21.6583 11.623 21.6582 12.2609 21.6582 13.5371V29.3643C21.6582 30.6405 21.6582 31.2793 22.0547 31.6758C22.4512 32.072 23.0893 32.0723 24.3652 32.0723H33.668C34.0128 32.0725 34.292 32.3524 34.292 32.6973C34.2918 33.042 34.0127 33.321 33.668 33.3213H23.1621C21.8859 33.3213 21.2481 33.3212 20.8516 32.9248C20.4551 32.5283 20.4551 31.8905 20.4551 30.6143V12.0332C20.4551 11.3687 19.9155 10.8301 19.251 10.8301C18.5866 10.8303 18.0479 11.3688 18.0479 12.0332V33.1133C18.0479 34.3892 18.0482 35.0273 18.4443 35.4238C18.8408 35.8203 19.4796 35.8203 20.7559 35.8203H33.9912C35.2675 35.8203 35.9062 35.8203 36.3027 35.4238C36.6988 35.0273 36.6992 34.3891 36.6992 33.1133V32.2803C36.6992 31.0044 36.6989 30.3662 36.3027 29.9697C35.9062 29.5732 35.2675 29.5732 33.9912 29.5732H26.7715C25.4956 29.5732 24.8574 29.5731 24.4609 29.1768C24.0645 28.7803 24.0645 28.1415 24.0645 26.8652V16.0361C24.0645 14.7601 24.0646 14.1221 24.4609 13.7256C24.8574 13.3291 25.4954 13.3291 26.7715 13.3291H38.2031C39.4792 13.3291 40.1172 13.3291 40.5137 13.7256C40.91 14.1221 40.9102 14.76 40.9102 16.0361V39.3145C40.9102 39.454 40.9104 39.5242 40.9053 39.583C40.848 40.2374 40.3291 40.7561 39.6748 40.8135C39.6159 40.8186 39.5459 40.8193 39.4062 40.8193H39.1514C38.4614 40.8195 37.9024 41.3784 37.9023 42.0684C37.9023 42.7584 38.4614 43.3182 39.1514 43.3184H40.6094C41.8852 43.3184 42.5234 43.318 42.9199 42.9219C43.3164 42.5254 43.3164 41.8866 43.3164 40.6104V13.5371C43.3164 12.2608 43.3164 11.623 42.9199 11.2266C42.5234 10.8301 41.8856 10.8301 40.6094 10.8301H24.3652ZM13.8369 13.3291C14.1691 13.3292 14.4385 13.5985 14.4385 13.9307V36.8623C14.4385 38.1384 14.4385 38.7764 14.835 39.1729C15.2314 39.5692 15.8694 39.5693 17.1455 39.5693H33.668C34.0128 39.5696 34.292 39.8494 34.292 40.1943C34.2919 40.5391 34.0127 40.8191 33.668 40.8193H15.9424C14.6665 40.8193 14.0283 40.819 13.6318 40.4229C13.2354 40.0264 13.2354 39.3876 13.2354 38.1113V13.9307C13.2354 13.5984 13.5046 13.3291 13.8369 13.3291Z" fill="#266CA8"/>
</svg>
