<svg width="105" height="24" viewBox="0 0 105 24" fill="none" xmlns="http://www.w3.org/2000/svg">
<path d="M2.27979 18.16V5.20496H3.86182V16.7186H9.32861V18.16H2.27979ZM15.3228 18.3007C14.3911 18.3007 13.5767 18.1073 12.8794 17.7206C12.188 17.3339 11.6489 16.7919 11.2622 16.0946C10.8755 15.3915 10.6821 14.5682 10.6821 13.6249V5.20496H12.2642V13.6249C12.2642 14.2694 12.3901 14.8348 12.6421 15.3212C12.8999 15.8075 13.2573 16.1854 13.7144 16.455C14.1772 16.7245 14.7134 16.8593 15.3228 16.8593C16.2661 16.8593 17.0103 16.5634 17.5552 15.9716C18.106 15.3739 18.3813 14.5917 18.3813 13.6249V5.20496H19.9634V13.6249C19.9634 14.5682 19.7729 15.3915 19.3921 16.0946C19.0171 16.7919 18.481 17.3339 17.7837 17.7206C17.0923 18.1073 16.272 18.3007 15.3228 18.3007ZM22.9868 18.16V5.20496H24.3052L28.8052 13.203H28.8755L33.3755 5.20496H34.6938V18.16H33.1118V11.1464L33.147 8.56238H33.0767L29.1216 15.6464H28.5591L24.604 8.56238H24.5337L24.5688 11.1464V18.16H22.9868Z" fill="#266CA8"/>
<path d="M42.3364 5.16003L36.9751 18.1151H38.7153L41.3345 11.4178L42.9517 7.42761H43.022L44.6567 11.4178L47.2759 18.1151H48.9985L43.6372 5.16003H42.3364Z" fill="#266CA8"/>
<path d="M54.7241 18.3007C54.0386 18.3007 53.4087 18.16 52.8345 17.8788C52.2603 17.5975 51.771 17.2313 51.3667 16.7802C50.9624 16.329 50.6753 15.8514 50.5054 15.3475L51.9819 14.7323C52.105 15.1073 52.2925 15.4559 52.5444 15.7782C52.8022 16.1005 53.1128 16.3612 53.4761 16.5604C53.8452 16.7596 54.2554 16.8593 54.7065 16.8593C55.1284 16.8593 55.521 16.7684 55.8843 16.5868C56.2476 16.3993 56.5405 16.1444 56.7632 15.8221C56.9858 15.494 57.0972 15.119 57.0972 14.6971C57.0972 14.2635 56.9858 13.8973 56.7632 13.5985C56.5464 13.2938 56.2769 13.0419 55.9546 12.8427C55.6323 12.6434 55.3101 12.4852 54.9878 12.368C54.6714 12.245 54.4136 12.1483 54.2144 12.078C53.646 11.8788 53.1099 11.618 52.606 11.2958C52.1021 10.9735 51.6919 10.5692 51.3755 10.0829C51.0649 9.59656 50.9097 9.00769 50.9097 8.31628C50.9097 7.66003 51.0591 7.08875 51.3579 6.60242C51.6567 6.11609 52.0757 5.73816 52.6147 5.46863C53.1538 5.1991 53.7808 5.06433 54.4956 5.06433C55.1577 5.06433 55.7349 5.17273 56.2271 5.38953C56.7251 5.60632 57.1411 5.8905 57.4751 6.24207C57.8149 6.59363 58.0757 6.96863 58.2573 7.36707L56.8511 7.92957C56.7397 7.72449 56.5786 7.51355 56.3677 7.29675C56.1567 7.0741 55.896 6.8866 55.5854 6.73425C55.2749 6.58191 54.9175 6.50574 54.5132 6.50574C53.9683 6.50574 53.4878 6.66101 53.0718 6.97156C52.6616 7.2821 52.4565 7.74207 52.4565 8.35144C52.4565 8.72644 52.5356 9.04871 52.6938 9.31824C52.8579 9.58777 53.0688 9.81921 53.3267 10.0126C53.5845 10.2001 53.854 10.3583 54.1353 10.4872C54.4224 10.6161 54.689 10.7245 54.9351 10.8124C55.2104 10.9061 55.5532 11.038 55.9634 11.2079C56.3794 11.3719 56.7896 11.5975 57.1938 11.8846C57.604 12.1659 57.9468 12.5292 58.2222 12.9745C58.5034 13.4198 58.644 13.9706 58.644 14.6268C58.644 15.3651 58.4595 16.0096 58.0903 16.5604C57.7271 17.1112 57.2466 17.5389 56.6489 17.8436C56.0513 18.1483 55.4097 18.3007 54.7241 18.3007ZM61.1226 18.16V5.20496H62.7046V10.8124H69.4019V5.20496H70.9839V18.16H69.4019V12.2538H62.7046V18.16H61.1226ZM72.5659 18.16L77.9272 5.20496H79.228L84.5894 18.16H82.937L81.3374 14.2928L81.1265 13.7303L78.6128 7.36707H78.5425L76.0288 13.7303L75.8179 14.2928L74.2183 18.16H72.5659ZM75.062 14.7675V13.326H82.0933V14.7675H75.062ZM87.3315 13.0096V11.5682H89.8804C90.4077 11.5682 90.8647 11.4657 91.2515 11.2606C91.644 11.0497 91.9458 10.7567 92.1567 10.3817C92.3735 10.0009 92.4819 9.55847 92.4819 9.05457C92.4819 8.29871 92.2358 7.70984 91.7437 7.28796C91.2573 6.86023 90.6011 6.64636 89.7749 6.64636H87.3315V5.20496H89.8804C90.7241 5.20496 91.4595 5.36316 92.0864 5.67957C92.7134 5.99011 93.1997 6.4325 93.5454 7.00671C93.8911 7.57507 94.064 8.24597 94.064 9.01941C94.064 9.78699 93.897 10.4725 93.563 11.076C93.229 11.6737 92.7573 12.1454 92.1479 12.4911C91.5386 12.8368 90.8179 13.0096 89.9858 13.0096H87.3315ZM86.1714 18.16V5.20496H87.7534V18.16H86.1714ZM96.2261 18.16V5.20496H103.328V6.64636H97.8081V10.8475H102.449V12.2889H97.8081V16.7186H103.328V18.16H96.2261Z" fill="#266CA8"/>
</svg>
