<svg width="30" height="30" viewBox="0 0 30 30" fill="none" xmlns="http://www.w3.org/2000/svg">
<path fill-rule="evenodd" clip-rule="evenodd" d="M14.5 5.75C9.66751 5.75 5.75 9.66751 5.75 14.5C5.75 19.3325 9.66751 23.25 14.5 23.25C19.3325 23.25 23.25 19.3325 23.25 14.5C23.25 9.66751 19.3325 5.75 14.5 5.75ZM4.25 14.5C4.25 8.83908 8.83908 4.25 14.5 4.25C20.1609 4.25 24.75 8.83908 24.75 14.5C24.75 17.0605 23.8111 19.4017 22.2589 21.1982L25.5303 24.4697C25.8232 24.7626 25.8232 25.2374 25.5303 25.5303C25.2374 25.8232 24.7626 25.8232 24.4697 25.5303L21.1982 22.2589C19.4017 23.8111 17.0605 24.75 14.5 24.75C8.83908 24.75 4.25 20.1609 4.25 14.5Z" fill="black" fill-opacity="0.4"/>
</svg>
