<svg width="50" height="50" viewBox="0 0 50 50" fill="none" xmlns="http://www.w3.org/2000/svg">
<path fill-rule="evenodd" clip-rule="evenodd" d="M39.5833 16.6667C39.5833 17.357 39.0236 17.9167 38.3333 17.9167L11.6666 17.9167C10.9762 17.9167 10.4166 17.357 10.4166 16.6667C10.4166 15.9763 10.9762 15.4167 11.6666 15.4167L38.3333 15.4167C39.0236 15.4167 39.5833 15.9763 39.5833 16.6667Z" fill="#266CA8"/>
<path fill-rule="evenodd" clip-rule="evenodd" d="M39.5833 25C39.5833 25.6904 39.0236 26.25 38.3333 26.25L11.6666 26.25C10.9762 26.25 10.4166 25.6904 10.4166 25C10.4166 24.3096 10.9762 23.75 11.6666 23.75L38.3333 23.75C39.0236 23.75 39.5833 24.3096 39.5833 25Z" fill="#266CA8"/>
<path fill-rule="evenodd" clip-rule="evenodd" d="M39.5833 33.3333C39.5833 34.0237 39.0236 34.5833 38.3333 34.5833L11.6666 34.5833C10.9762 34.5833 10.4166 34.0237 10.4166 33.3333C10.4166 32.643 10.9762 32.0833 11.6666 32.0833L38.3333 32.0833C39.0236 32.0833 39.5833 32.643 39.5833 33.3333Z" fill="#266CA8"/>
</svg>
