<svg width="196" height="131" viewBox="0 0 196 131" fill="none" xmlns="http://www.w3.org/2000/svg">
<path d="M65.5 93.3569L65.5 70.1426L130.5 107.285L130.5 130.5L65.5 93.3569Z" fill="#266CA8" fill-opacity="0.4"/>
<path d="M130.5 60.8569L130.5 37.6426L195.5 74.7854L195.5 97.9997L130.5 60.8569Z" fill="#266CA8" fill-opacity="0.4"/>
<path d="M130.5 60.8569V37.6426L65.5 70.1426V93.3569L130.5 60.8569Z" fill="#266CA8"/>
<path d="M195.5 97.9994V74.7852L130.5 107.285V130.499L195.5 97.9994Z" fill="#266CA8"/>
<path d="M0.49999 56.2143L0.499992 33L65.5 70.1429L65.5 93.3571L0.49999 56.2143Z" fill="#266CA8" fill-opacity="0.4"/>
<path d="M65.5 23.7143L65.5 0.499994L130.5 37.6429L130.5 60.8571L65.5 23.7143Z" fill="#266CA8" fill-opacity="0.4"/>
<path d="M65.5 23.7143V0.5L0.5 33V56.2143L65.5 23.7143Z" fill="#266CA8"/>
<path d="M130.5 60.8569V37.6426L65.5 70.1426V93.3569L130.5 60.8569Z" fill="#266CA8"/>
</svg>
