<svg width="17" height="18" viewBox="0 0 17 18" fill="none" xmlns="http://www.w3.org/2000/svg">
<path fill-rule="evenodd" clip-rule="evenodd" d="M7.00979 0.892578L7.05379 0.892579C7.37679 0.892579 7.63864 1.15443 7.63864 1.47743C7.63864 1.80044 7.37679 2.06229 7.05379 2.06229C5.56683 2.06229 4.51045 2.06353 3.70907 2.17128C2.92452 2.27676 2.4725 2.47457 2.14248 2.80459C1.81246 3.13461 1.61465 3.58663 1.50917 4.37118C1.40142 5.17256 1.40018 6.22894 1.40018 7.7159C1.40018 8.0389 1.13833 8.30075 0.815325 8.30075C0.492318 8.30075 0.230469 8.0389 0.230469 7.7159L0.230469 7.6719C0.230457 6.2388 0.230447 5.10369 0.349885 4.21532C0.472804 3.30106 0.731792 2.56106 1.31537 1.97748C1.89895 1.3939 2.63895 1.13491 3.55321 1.01199C4.44158 0.892556 5.57669 0.892566 7.00979 0.892578ZM13.5177 2.17128C12.7163 2.06353 11.66 2.06229 10.173 2.06229C9.85001 2.06229 9.58816 1.80044 9.58816 1.47743C9.58816 1.15443 9.85001 0.892579 10.173 0.892579L10.217 0.892578C11.6501 0.892566 12.7852 0.892556 13.6736 1.01199C14.5879 1.13491 15.3279 1.3939 15.9114 1.97748C16.495 2.56106 16.754 3.30106 16.8769 4.21532C16.9964 5.10369 16.9963 6.23881 16.9963 7.67191V7.7159C16.9963 8.0389 16.7345 8.30075 16.4115 8.30075C16.0885 8.30075 15.8266 8.0389 15.8266 7.7159C15.8266 6.22894 15.8254 5.17256 15.7176 4.37118C15.6122 3.58663 15.4143 3.13461 15.0843 2.80459C14.7543 2.47457 14.3023 2.27676 13.5177 2.17128ZM0.815325 10.2503C1.13833 10.2503 1.40018 10.5121 1.40018 10.8351C1.40018 12.3221 1.40142 13.3785 1.50917 14.1798C1.61465 14.9644 1.81246 15.4164 2.14248 15.7464C2.4725 16.0765 2.92452 16.2743 3.70907 16.3797C4.51045 16.4875 5.56683 16.4887 7.05379 16.4887C7.37679 16.4887 7.63864 16.7506 7.63864 17.0736C7.63864 17.3966 7.37679 17.6584 7.05379 17.6584H7.0098C5.5767 17.6585 4.44158 17.6585 3.55321 17.539C2.63895 17.4161 1.89895 17.1571 1.31537 16.5735C0.731792 15.99 0.472804 15.25 0.349885 14.3357C0.230447 13.4473 0.230457 12.3122 0.230469 10.8791L0.230469 10.8351C0.230469 10.5121 0.492318 10.2503 0.815325 10.2503ZM16.4115 10.2503C16.7345 10.2503 16.9963 10.5121 16.9963 10.8351V10.8791C16.9963 12.3122 16.9964 13.4473 16.8769 14.3357C16.754 15.25 16.495 15.99 15.9114 16.5735C15.3279 17.1571 14.5879 17.4161 13.6736 17.539C12.7852 17.6585 11.6501 17.6585 10.217 17.6584H10.173C9.85001 17.6584 9.58816 17.3966 9.58816 17.0736C9.58816 16.7506 9.85001 16.4887 10.173 16.4887C11.66 16.4887 12.7163 16.4875 13.5177 16.3797C14.3023 16.2743 14.7543 16.0765 15.0843 15.7464C15.4143 15.4164 15.6122 14.9644 15.7176 14.1798C15.8254 13.3785 15.8266 12.3221 15.8266 10.8351C15.8266 10.5121 16.0885 10.2503 16.4115 10.2503Z" fill="black"/>
</svg>
