<svg width="31" height="31" viewBox="0 0 31 31" fill="none" xmlns="http://www.w3.org/2000/svg">
<path d="M16.1773 1.33531C15.9632 1.10115 15.6605 0.967773 15.3433 0.967773C15.026 0.967773 14.7233 1.10115 14.5092 1.33531L8.48219 7.92738C8.06106 8.388 8.09306 9.10281 8.55368 9.52394C9.0143 9.94508 9.7291 9.91307 10.1502 9.45246L14.2132 5.00861V21.6857C14.2132 22.3098 14.7191 22.8158 15.3433 22.8158C15.9674 22.8158 16.4733 22.3098 16.4733 21.6857V5.00861L20.5363 9.45246C20.9574 9.91307 21.6722 9.94508 22.1328 9.52394C22.5935 9.10281 22.6255 8.388 22.2043 7.92738L16.1773 1.33531Z" fill="#266CA8"/>
<path d="M2.91249 20.179C2.91249 19.5548 2.40654 19.0489 1.78242 19.0489C1.1583 19.0489 0.652345 19.5548 0.652345 20.179V20.2616C0.652314 22.3223 0.65229 23.9832 0.827918 25.2895C1.01026 26.6458 1.40035 27.7877 2.3073 28.6946C3.21424 29.6016 4.35617 29.9917 5.71242 30.174C7.01873 30.3497 8.67967 30.3496 10.7403 30.3496H19.9462C22.0068 30.3496 23.6678 30.3497 24.9741 30.174C26.3303 29.9917 27.4723 29.6016 28.3792 28.6946C29.2862 27.7877 29.6763 26.6458 29.8586 25.2895C30.0342 23.9832 30.0342 22.3223 30.0342 20.2616V20.179C30.0342 19.5548 29.5282 19.0489 28.9041 19.0489C28.28 19.0489 27.774 19.5548 27.774 20.179C27.774 22.3418 27.7716 23.8502 27.6186 24.9884C27.47 26.094 27.1981 26.6795 26.7811 27.0965C26.364 27.5135 25.7786 27.7854 24.6729 27.934C23.5348 28.0871 22.0264 28.0895 19.8635 28.0895H10.823C8.66015 28.0895 7.15171 28.0871 6.01358 27.934C4.90796 27.7854 4.32247 27.5135 3.90546 27.0965C3.48844 26.6795 3.21655 26.094 3.0679 24.9884C2.91489 23.8502 2.91249 22.3418 2.91249 20.179Z" fill="#266CA8"/>
</svg>
