<svg width="23" height="24" viewBox="0 0 23 24" fill="none" xmlns="http://www.w3.org/2000/svg">
<g clip-path="url(#clip0_1_4754)">
<path d="M16.1734 15.0391C16.085 14.9505 15.9799 14.8803 15.8642 14.8323C15.7486 14.7844 15.6246 14.7597 15.4994 14.7597C15.3742 14.7597 15.2502 14.7844 15.1346 14.8323C15.0189 14.8803 14.9138 14.9505 14.8254 15.0391L12.4103 17.4552V9.03995C12.4103 8.78727 12.3099 8.54495 12.1312 8.36628C11.9526 8.18762 11.7102 8.08724 11.4576 8.08724C11.2049 8.08724 10.9626 8.18762 10.7839 8.36628C10.6052 8.54495 10.5049 8.78727 10.5049 9.03995V17.4552L8.0888 15.0391C7.91004 14.8605 7.66763 14.7602 7.4149 14.7603C7.16218 14.7603 6.91984 14.8608 6.7412 15.0396C6.56256 15.2184 6.46226 15.4608 6.46235 15.7135C6.46244 15.9662 6.56292 16.2086 6.74168 16.3872L10.784 20.4286C10.9627 20.6072 11.2049 20.7075 11.4576 20.7075C11.7102 20.7075 11.9525 20.6072 12.1311 20.4286L16.1734 16.3872C16.262 16.2987 16.3323 16.1936 16.3802 16.078C16.4282 15.9623 16.4529 15.8384 16.4529 15.7132C16.4529 15.588 16.4282 15.464 16.3802 15.3483C16.3323 15.2327 16.262 15.1276 16.1734 15.0391ZM4.78864 3.32373C4.53597 3.32373 4.29364 3.4241 4.11498 3.60277C3.93631 3.78144 3.83594 4.02376 3.83594 4.27643C3.83594 4.52911 3.93631 4.77143 4.11498 4.9501C4.29364 5.12876 4.53597 5.22914 4.78864 5.22914H18.1265C18.3792 5.22914 18.6215 5.12876 18.8001 4.9501C18.9788 4.77143 19.0792 4.52911 19.0792 4.27643C19.0792 4.02376 18.9788 3.78144 18.8001 3.60277C18.6215 3.4241 18.3792 3.32373 18.1265 3.32373H4.78864Z" fill="black" fill-opacity="0.5"/>
</g>
<defs>
<clipPath id="clip0_1_4754">
<rect width="22.8649" height="22.8649" fill="white" transform="translate(0.0253906 0.465332)"/>
</clipPath>
</defs>
</svg>
