<svg width="24" height="24" viewBox="0 0 24 24" fill="none" xmlns="http://www.w3.org/2000/svg">
<g clip-path="url(#clip0_1_4761)">
<path d="M6.95937 8.75678C7.04785 8.84536 7.15293 8.91563 7.26858 8.96358C7.38424 9.01152 7.50821 9.0362 7.63341 9.0362C7.75861 9.0362 7.88258 9.01152 7.99824 8.96358C8.1139 8.91563 8.21897 8.84536 8.30745 8.75678L10.7226 6.34073V14.756C10.7226 15.0086 10.8229 15.2509 11.0016 15.4296C11.1803 15.6083 11.4226 15.7087 11.6753 15.7087C11.9279 15.7087 12.1702 15.6083 12.3489 15.4296C12.5276 15.2509 12.628 15.0086 12.628 14.756V6.34073L15.044 8.75678C15.2228 8.93542 15.4652 9.03573 15.7179 9.03564C15.9706 9.03555 16.213 8.93507 16.3916 8.75631C16.5702 8.57754 16.6706 8.33513 16.6705 8.08241C16.6704 7.82968 16.5699 7.58735 16.3911 7.40871L12.3488 3.36734C12.1702 3.18874 11.9279 3.08841 11.6753 3.08841C11.4226 3.08841 11.1804 3.18874 11.0017 3.36734L6.95937 7.40871C6.8708 7.49719 6.80053 7.60226 6.75258 7.71792C6.70464 7.83357 6.67996 7.95755 6.67996 8.08275C6.67996 8.20795 6.70464 8.33192 6.75258 8.44757C6.80053 8.56323 6.8708 8.6683 6.95937 8.75678ZM18.3442 20.4722C18.5968 20.4722 18.8392 20.3718 19.0178 20.1931C19.1965 20.0145 19.2969 19.7721 19.2969 19.5195C19.2969 19.2668 19.1965 19.0245 19.0178 18.8458C18.8392 18.6671 18.5968 18.5668 18.3442 18.5668H5.00633C4.75366 18.5668 4.51134 18.6671 4.33267 18.8458C4.15401 19.0245 4.05363 19.2668 4.05363 19.5195C4.05363 19.7721 4.15401 20.0145 4.33267 20.1931C4.51134 20.3718 4.75366 20.4722 5.00633 20.4722H18.3442Z" fill="black" fill-opacity="0.5"/>
</g>
<defs>
<clipPath id="clip0_1_4761">
<rect width="22.8649" height="22.8649" fill="white" transform="matrix(-1 0 0 -1 23.1074 23.3306)"/>
</clipPath>
</defs>
</svg>
