<svg width="20" height="21" viewBox="0 0 20 21" fill="none" xmlns="http://www.w3.org/2000/svg">
<path d="M3.75 4.32373H6.25V6.82373H3.75V4.32373ZM6.25 6.82373H8.75V9.32373H6.25V6.82373ZM8.75 4.32373H11.25V6.82373H8.75V4.32373ZM13.75 4.32373H16.25V6.82373H13.75V4.32373ZM3.75 9.32373H6.25V11.8237H3.75V9.32373ZM8.75 9.32373H11.25V11.8237H8.75V9.32373ZM13.75 9.32373H16.25V11.8237H13.75V9.32373ZM3.75 14.3237H6.25V16.8237H3.75V14.3237ZM8.75 14.3237H11.25V16.8237H8.75V14.3237ZM13.75 14.3237H16.25V16.8237H13.75V14.3237ZM11.25 6.82373H13.75V9.32373H11.25V6.82373ZM6.25 11.8237H8.75V14.3237H6.25V11.8237ZM11.25 11.8237H13.75V14.3237H11.25V11.8237Z" fill="black" fill-opacity="0.5"/>
</svg>
