<svg width="23" height="23" viewBox="0 0 23 23" fill="none" xmlns="http://www.w3.org/2000/svg">
<path fill-rule="evenodd" clip-rule="evenodd" d="M10.6096 15.3284L11.7189 14.22L14.1404 11.7985L15.2488 10.6892C16.3849 9.55493 16.952 8.9869 16.8183 8.37645C16.6846 7.766 15.9303 7.48844 14.4245 6.93331L9.39884 5.08259C6.39362 3.97512 4.89147 3.41999 4.11688 4.19458C3.34229 4.96917 3.89556 6.47225 5.00397 9.47839L6.85376 14.504C7.40888 16.0098 7.68645 16.7632 8.2969 16.8979C8.90735 17.0325 9.47446 16.4645 10.6096 15.3284Z" fill="black" fill-opacity="0.5"/>
<path opacity="0.5" d="M11.7188 14.2199L15.3501 17.8512C15.7263 18.2274 15.9144 18.4156 16.1247 18.5022C16.4032 18.6184 16.7176 18.6184 16.997 18.5022C17.2073 18.4156 17.3954 18.2274 17.7716 17.8512C18.1469 17.475 18.335 17.2869 18.4226 17.0766C18.5379 16.7973 18.5379 16.4836 18.4226 16.2043C18.335 15.994 18.1469 15.8059 17.7716 15.4297L14.1393 11.7983L11.7188 14.2199Z" fill="black" fill-opacity="0.5"/>
</svg>
