<svg width="32" height="33" viewBox="0 0 32 33" fill="none" xmlns="http://www.w3.org/2000/svg">
<rect y="0.5" width="32" height="32" rx="8.42105" fill="white"/>
<rect x="0.421053" y="0.921053" width="31.1579" height="31.1579" rx="8" stroke="#F9FCFF" stroke-opacity="0.5" stroke-width="0.842105"/>
<path d="M16.0007 8.03516L21.834 11.4385V15.9393C22.6923 16.316 23.4398 16.7877 24.009 17.3452C24.699 18.0202 25.1673 18.866 25.1673 19.8335C25.1673 21.4693 23.8623 22.7268 22.2657 23.5252C20.619 24.3485 18.4032 24.8335 16.0007 24.8335C13.5982 24.8335 11.3815 24.3485 9.73565 23.5252C8.13898 22.7268 6.83398 21.4702 6.83398 19.8335C6.83398 18.866 7.30232 18.021 7.99232 17.3452C8.56148 16.7868 9.30898 16.316 10.1673 15.9393V11.4385L16.0007 8.03516ZM10.1673 17.8002C9.80018 18.001 9.46068 18.2486 9.15732 18.5368C8.68732 18.9968 8.50065 19.4377 8.50065 19.8335C8.50065 20.4985 9.06148 21.3252 10.4807 22.0343C11.8507 22.7193 13.8007 23.1668 16.0007 23.1668C18.2007 23.1668 20.1507 22.7193 21.5207 22.0343C22.9398 21.3252 23.5007 20.4985 23.5007 19.8335C23.5007 19.4377 23.314 18.9968 22.844 18.536C22.5406 18.248 22.2011 18.0007 21.834 17.8002V18.2293L16.0007 21.6327L10.1673 18.2293V17.8002ZM15.889 19.6335V14.9085L11.834 12.6368V17.2702L15.889 19.6335Z" fill="#266CA8"/>
</svg>
