<svg width="23" height="24" viewBox="0 0 23 24" fill="none" xmlns="http://www.w3.org/2000/svg">
<path d="M11.4098 21.8128C12.7245 21.8128 13.9601 21.5632 15.1164 21.0639C16.2728 20.5646 17.2787 19.8876 18.1341 19.0328C18.9894 18.1781 19.6665 17.1722 20.1651 16.0152C20.6638 14.8582 20.9134 13.6226 20.9141 12.3085C20.9147 10.9944 20.665 9.75882 20.1651 8.60183C19.6652 7.44484 18.9882 6.43896 18.1341 5.58421C17.2799 4.72946 16.2741 4.05243 15.1164 3.55314C13.9588 3.05385 12.7232 2.8042 11.4098 2.8042C10.0963 2.8042 8.8607 3.05385 7.70307 3.55314C6.54545 4.05243 5.53957 4.72946 4.68545 5.58421C3.83133 6.43896 3.15399 7.44484 2.65343 8.60183C2.15287 9.75882 1.90354 10.9944 1.90544 12.3085C1.90734 13.6226 2.15699 14.8582 2.65438 16.0152C3.15177 17.1722 3.8288 18.1781 4.68545 19.0328C5.54211 19.8876 6.54798 20.5649 7.70307 21.0648C8.85816 21.5648 10.0937 21.8141 11.4098 21.8128ZM11.4098 19.912C9.28712 19.912 7.48922 19.1754 6.01606 17.7022C4.54289 16.229 3.8063 14.4311 3.8063 12.3085C3.8063 10.1859 4.54289 8.38798 6.01606 6.91481C7.48922 5.44165 9.28712 4.70506 11.4098 4.70506C13.5324 4.70506 15.3303 5.44165 16.8034 6.91481C18.2766 8.38798 19.0132 10.1859 19.0132 12.3085C19.0132 14.4311 18.2766 16.229 16.8034 17.7022C15.3303 19.1754 13.5324 19.912 11.4098 19.912Z" fill="black" fill-opacity="0.5"/>
</svg>
