<svg width="23" height="23" viewBox="0 0 23 23" fill="none" xmlns="http://www.w3.org/2000/svg">
<path d="M16.6125 14.3556H17.1658C18.3922 14.3556 19.3789 13.3689 19.3789 12.1425V5.50315C19.3789 4.27672 18.3922 3.29004 17.1658 3.29004H10.5264C9.30001 3.29004 8.31333 4.27672 8.31333 5.50315V6.05643M11.633 8.82283H4.99366C4.40671 8.82283 3.84379 9.05599 3.42875 9.47103C3.01371 9.88607 2.78055 10.449 2.78055 11.0359V17.6753C2.78055 18.2622 3.01371 18.8252 3.42875 19.2402C3.84379 19.6552 4.40671 19.8884 4.99366 19.8884H11.633C12.22 19.8884 12.7829 19.6552 13.1979 19.2402C13.613 18.8252 13.8461 18.2622 13.8461 17.6753V11.0359C13.8461 10.7453 13.7889 10.4575 13.6777 10.189C13.5664 9.92051 13.4034 9.67654 13.1979 9.47103C12.9924 9.26553 12.7484 9.10251 12.4799 8.99129C12.2114 8.88007 11.9236 8.82283 11.633 8.82283Z" stroke="black" stroke-opacity="0.5" stroke-width="1.3832" stroke-miterlimit="10" stroke-linecap="round" stroke-linejoin="round"/>
</svg>
