<svg width="34" height="22" viewBox="0 0 34 22" fill="none" xmlns="http://www.w3.org/2000/svg">
<g clip-path="url(#clip0_1981_1505)">
<path d="M8.5 17.4165C7.94188 17.4165 7.38923 17.2505 6.8736 16.9281C6.35796 16.6056 5.88944 16.1329 5.4948 15.5371C5.10015 14.9413 4.78709 14.2339 4.57351 13.4554C4.35993 12.6769 4.25 11.8425 4.25 10.9998C4.25 10.1572 4.35993 9.32279 4.57351 8.54429C4.78709 7.76578 5.10015 7.05841 5.4948 6.46257C5.88944 5.86673 6.35796 5.39408 6.87359 5.07161C7.38923 4.74914 7.94188 4.58317 8.5 4.58317" stroke="#7B7B7B" stroke-width="1.5" stroke-linecap="round" stroke-linejoin="round"/>
<path d="M8.5 17.4165L25.5 17.4165C27.8474 17.4165 29.75 14.5437 29.75 10.9998C29.75 7.456 27.8474 4.58317 25.5 4.58317L8.5 4.58317" stroke="#7B7B7B" stroke-width="1.5" stroke-linecap="round" stroke-linejoin="round"/>
</g>
<defs>
<clipPath id="clip0_1981_1505">
<rect width="22" height="34" fill="white" transform="translate(0 22) rotate(-90)"/>
</clipPath>
</defs>
</svg>
