<svg width="23" height="23" viewBox="0 0 23 23" fill="none" xmlns="http://www.w3.org/2000/svg">
<path d="M10.0275 4.52665H12.7939C12.7939 4.1598 12.6482 3.80798 12.3888 3.54858C12.1294 3.28918 11.7775 3.14345 11.4107 3.14345C11.0439 3.14345 10.692 3.28918 10.4326 3.54858C10.1732 3.80798 10.0275 4.1598 10.0275 4.52665ZM8.64431 4.52665C8.64431 3.79295 8.93577 3.08931 9.45457 2.57051C9.97336 2.05171 10.677 1.76025 11.4107 1.76025C12.1444 1.76025 12.848 2.05171 13.3668 2.57051C13.8856 3.08931 14.1771 3.79295 14.1771 4.52665H19.7099C19.8933 4.52665 20.0692 4.59951 20.1989 4.72921C20.3286 4.85891 20.4015 5.03482 20.4015 5.21825C20.4015 5.40167 20.3286 5.57758 20.1989 5.70728C20.0692 5.83698 19.8933 5.90984 19.7099 5.90984H18.9298L17.263 18.1345C17.15 18.963 16.7406 19.7224 16.1107 20.2722C15.4807 20.822 14.6729 21.125 13.8368 21.125H8.98457C8.14845 21.125 7.34066 20.822 6.71074 20.2722C6.08082 19.7224 5.67144 18.963 5.5584 18.1345L3.89164 5.90984H3.11152C2.9281 5.90984 2.75219 5.83698 2.62249 5.70728C2.49279 5.57758 2.41992 5.40167 2.41992 5.21825C2.41992 5.03482 2.49279 4.85891 2.62249 4.72921C2.75219 4.59951 2.9281 4.52665 3.11152 4.52665H8.64431ZM10.0275 9.36784C10.0275 9.18441 9.95464 9.0085 9.82494 8.8788C9.69524 8.7491 9.51933 8.67624 9.33591 8.67624C9.15248 8.67624 8.97657 8.7491 8.84687 8.8788C8.71717 9.0085 8.64431 9.18441 8.64431 9.36784V16.2838C8.64431 16.4672 8.71717 16.6432 8.84687 16.7729C8.97657 16.9026 9.15248 16.9754 9.33591 16.9754C9.51933 16.9754 9.69524 16.9026 9.82494 16.7729C9.95464 16.6432 10.0275 16.4672 10.0275 16.2838V9.36784ZM13.4855 8.67624C13.3021 8.67624 13.1262 8.7491 12.9965 8.8788C12.8668 9.0085 12.7939 9.18441 12.7939 9.36784V16.2838C12.7939 16.4672 12.8668 16.6432 12.9965 16.7729C13.1262 16.9026 13.3021 16.9754 13.4855 16.9754C13.6689 16.9754 13.8448 16.9026 13.9745 16.7729C14.1042 16.6432 14.1771 16.4672 14.1771 16.2838V9.36784C14.1771 9.18441 14.1042 9.0085 13.9745 8.8788C13.8448 8.7491 13.6689 8.67624 13.4855 8.67624Z" fill="black" fill-opacity="0.5"/>
</svg>
