<svg xmlns="http://www.w3.org/2000/svg" fill="none" viewBox="5.95 5.91 19.79 19.26">
<g clip-path="url(#clip0_1981_1505)">
<path d="M13.1417 23.7321C12.7797 24.0755 12.3485 24.3389 11.8728 24.5073C11.3971 24.6757 10.8862 24.7458 10.3692 24.7135C9.85227 24.6813 9.33941 24.5473 8.85992 24.3193C8.38043 24.0913 7.94369 23.7737 7.57466 23.3846C7.20563 22.9956 6.91151 22.5427 6.70912 22.0518C6.50672 21.561 6.40001 21.0418 6.39506 20.5238C6.39012 20.0059 6.48704 19.4994 6.6803 19.0332C6.87356 18.5671 7.15938 18.1504 7.52142 17.807" stroke="#7B7B7B" stroke-width="0.894097" stroke-linecap="round" stroke-linejoin="round"/>
<path d="M13.1407 23.7324L24.1683 13.272C25.6911 11.8276 25.6671 9.33053 24.1151 7.69436C22.5631 6.0582 20.0708 5.90252 18.548 7.34693L7.52036 17.8073" stroke="#7B7B7B" stroke-width="0.894097" stroke-linecap="round" stroke-linejoin="round"/>
</g>
<defs>
<clipPath id="clip0_1981_1505">
<rect width="14" height="30.3993" fill="white" transform="translate(9.63481 31.0781) rotate(-133.488)"/>
</clipPath>
</defs>
</svg>