<svg width="23" height="23" viewBox="0 0 23 23" fill="none" xmlns="http://www.w3.org/2000/svg">
<path fill-rule="evenodd" clip-rule="evenodd" d="M15.6912 4.29654C15.6912 3.68513 15.4483 3.09876 15.0159 2.66643C14.5836 2.23409 13.9972 1.99121 13.3858 1.99121C12.7744 1.99121 12.188 2.23409 11.7557 2.66643C11.3234 3.09876 11.0805 3.68513 11.0805 4.29654V8.54295L6.06226 9.10084C5.16021 9.20113 4.32681 9.63048 3.72149 10.3067C3.11617 10.983 2.78143 11.8587 2.78131 12.7663V13.0568C2.78131 15.0133 3.55854 16.8897 4.942 18.2731C6.32547 19.6566 8.20185 20.4338 10.1584 20.4338H10.7799C12.1498 20.4338 13.4926 20.0523 14.658 19.3321C15.8233 18.6119 16.765 17.5814 17.3777 16.3562L19.9984 11.1148C20.3304 10.4508 20.0842 9.56283 19.3096 9.2447C18.3478 8.85094 17.434 8.77717 16.4925 9.25576C16.2201 9.39531 15.953 9.57482 15.6912 9.79428V4.29654Z" fill="black" fill-opacity="0.5"/>
</svg>
