<svg width="23" height="23" viewBox="0 0 23 23" fill="none" xmlns="http://www.w3.org/2000/svg">
<path d="M3.29175 14.4389V18.1274C3.29175 18.6346 3.47218 19.0686 3.83304 19.4295C4.1939 19.7903 4.62823 19.9711 5.13601 19.9717H18.0459C18.553 19.9717 18.987 19.7909 19.3479 19.4295C19.7088 19.068 19.8895 18.634 19.8901 18.1274V14.4389H18.0459V18.1274H5.13601V14.4389H3.29175ZM1.44749 12.5946H21.7344V10.7504H1.44749V12.5946ZM3.29175 8.90611H5.13601V7.06184H3.29175V8.90611ZM18.0459 8.90611H19.8901V7.06184H18.0459V8.90611ZM3.29175 5.21758H5.13601V3.37332C4.62884 3.37332 4.19452 3.55375 3.83304 3.91461C3.47157 4.27547 3.29114 4.70979 3.29175 5.21758ZM6.98028 5.21758H8.82454V3.37332H6.98028V5.21758ZM10.6688 5.21758H12.5131V3.37332H10.6688V5.21758ZM14.3573 5.21758H16.2016V3.37332H14.3573V5.21758ZM18.0459 5.21758H19.8901C19.8901 4.71041 19.7094 4.27608 19.3479 3.91461C18.9864 3.55313 18.5524 3.3727 18.0459 3.37332V5.21758Z" fill="black" fill-opacity="0.5"/>
</svg>
