<svg width="23" height="23" viewBox="0 0 23 23" fill="none" xmlns="http://www.w3.org/2000/svg">
<path d="M13.8461 19.9714H17.5346C18.0418 19.9714 18.4758 19.791 18.8367 19.4301C19.1976 19.0693 19.3783 18.635 19.3789 18.1272V5.21733C19.3789 4.71016 19.1982 4.27614 18.8367 3.91528C18.4752 3.55442 18.0412 3.37369 17.5346 3.37307H13.8461V5.21733H17.5346V18.1272H13.8461V19.9714ZM12.0019 21.8157V1.52881H10.1576V21.8157H12.0019ZM8.31333 19.9714V18.1272H6.46907V19.9714H8.31333ZM8.31333 5.21733V3.37307H6.46907V5.21733H8.31333ZM4.62481 19.9714V18.1272H2.78054C2.78054 18.6343 2.96097 19.0687 3.32183 19.4301C3.6827 19.7916 4.11702 19.972 4.62481 19.9714ZM4.62481 16.2829V14.4386H2.78054V16.2829H4.62481ZM4.62481 12.5944V10.7501H2.78054V12.5944H4.62481ZM4.62481 8.90586V7.0616H2.78054V8.90586H4.62481ZM4.62481 5.21733V3.37307C4.11763 3.37307 3.68331 3.55381 3.32183 3.91528C2.96036 4.27676 2.77993 4.71078 2.78054 5.21733H4.62481Z" fill="black" fill-opacity="0.5"/>
</svg>
