<svg width="33" height="33" viewBox="0 0 33 33" fill="none" xmlns="http://www.w3.org/2000/svg">
<rect width="33" height="33" rx="8.68421" fill="white"/>
<rect x="0.434211" y="0.434211" width="32.1316" height="32.1316" rx="8.25" stroke="#F9FCFF" stroke-opacity="0.5" stroke-width="0.868421"/>
<path fill-rule="evenodd" clip-rule="evenodd" d="M12.2032 10.0547C12.2032 9.48489 12.4295 8.93842 12.8324 8.53551C13.2353 8.1326 13.7818 7.90625 14.3516 7.90625C14.9214 7.90625 15.4679 8.1326 15.8708 8.53551C16.2737 8.93842 16.5 9.48489 16.5 10.0547V14.0121L21.1768 14.532C22.0174 14.6255 22.7941 15.0256 23.3582 15.6559C23.9224 16.2861 24.2343 17.1022 24.2344 17.948V18.2188C24.2344 20.0421 23.5101 21.7908 22.2208 23.0801C20.9315 24.3694 19.1828 25.0938 17.3594 25.0938H16.7802C15.5035 25.0937 14.2521 24.7382 13.1661 24.067C12.08 23.3958 11.2024 22.4355 10.6314 21.2936L8.18903 16.4089C7.87966 15.7902 8.10911 14.9626 8.83098 14.6661C9.72731 14.2991 10.579 14.2304 11.4564 14.6764C11.7102 14.8065 11.9591 14.9738 12.2032 15.1783V10.0547Z" fill="#266CA8"/>
</svg>
