<svg width="20" height="20" viewBox="0 0 20 20" fill="none" xmlns="http://www.w3.org/2000/svg">
<path d="M9.99935 1.6665C5.39935 1.6665 1.66602 5.39984 1.66602 9.99984C1.66602 14.5998 5.39935 18.3332 9.99935 18.3332C14.5993 18.3332 18.3327 14.5998 18.3327 9.99984C18.3327 5.39984 14.5993 1.6665 9.99935 1.6665ZM9.99935 14.1665C9.54101 14.1665 9.16601 13.7915 9.16601 13.3332V9.99984C9.16601 9.5415 9.54101 9.1665 9.99935 9.1665C10.4577 9.1665 10.8327 9.5415 10.8327 9.99984V13.3332C10.8327 13.7915 10.4577 14.1665 9.99935 14.1665ZM10.8327 7.49984H9.16601V5.83317H10.8327V7.49984Z" fill="black" fill-opacity="0.5"/>
</svg>
