<svg width="23" height="23" viewBox="0 0 23 23" fill="none" xmlns="http://www.w3.org/2000/svg">
<path opacity="0.5" d="M20.1019 7.52444H12.7249C12.4803 7.52444 12.2458 7.42729 12.0728 7.25435C11.8999 7.08142 11.8027 6.84687 11.8027 6.60231C11.8027 6.35774 11.8999 6.1232 12.0728 5.95026C12.2458 5.77733 12.4803 5.68018 12.7249 5.68018H20.1019C20.3465 5.68018 20.581 5.77733 20.754 5.95026C20.9269 6.1232 21.024 6.35774 21.024 6.60231C21.024 6.84687 20.9269 7.08142 20.754 7.25435C20.581 7.42729 20.3465 7.52444 20.1019 7.52444ZM20.1019 11.213H12.7249C12.4803 11.213 12.2458 11.1158 12.0728 10.9429C11.8999 10.7699 11.8027 10.5354 11.8027 10.2908C11.8027 10.0463 11.8999 9.81172 12.0728 9.63879C12.2458 9.46585 12.4803 9.3687 12.7249 9.3687H20.1019C20.3465 9.3687 20.581 9.46585 20.754 9.63879C20.9269 9.81172 21.024 10.0463 21.024 10.2908C21.024 10.5354 20.9269 10.7699 20.754 10.9429C20.581 11.1158 20.3465 11.213 20.1019 11.213Z" fill="black" fill-opacity="0.5"/>
<path d="M9.035 3.83594H3.50221C2.99293 3.83594 2.58008 4.24879 2.58008 4.75807V10.2909C2.58008 10.8001 2.99293 11.213 3.50221 11.213H9.035C9.54427 11.213 9.95713 10.8001 9.95713 10.2909V4.75807C9.95713 4.24879 9.54427 3.83594 9.035 3.83594Z" fill="black" fill-opacity="0.5"/>
<path opacity="0.5" d="M20.1006 14.9019H3.50221C3.25764 14.9019 3.0231 14.8047 2.85016 14.6318C2.67723 14.4589 2.58008 14.2243 2.58008 13.9797C2.58008 13.7352 2.67723 13.5006 2.85016 13.3277C3.0231 13.1548 3.25764 13.0576 3.50221 13.0576H20.1006C20.3451 13.0576 20.5797 13.1548 20.7526 13.3277C20.9256 13.5006 21.0227 13.7352 21.0227 13.9797C21.0227 14.2243 20.9256 14.4589 20.7526 14.6318C20.5797 14.8047 20.3451 14.9019 20.1006 14.9019ZM12.7235 18.5904H3.50221C3.25764 18.5904 3.0231 18.4933 2.85016 18.3203C2.67723 18.1474 2.58008 17.9128 2.58008 17.6683C2.58008 17.4237 2.67723 17.1892 2.85016 17.0162C3.0231 16.8433 3.25764 16.7461 3.50221 16.7461H12.7235C12.9681 16.7461 13.2026 16.8433 13.3756 17.0162C13.5485 17.1892 13.6457 17.4237 13.6457 17.6683C13.6457 17.9128 13.5485 18.1474 13.3756 18.3203C13.2026 18.4933 12.9681 18.5904 12.7235 18.5904Z" fill="black" fill-opacity="0.5"/>
</svg>
