<svg width="23" height="23" viewBox="0 0 23 23" fill="none" xmlns="http://www.w3.org/2000/svg">
<path fill-rule="evenodd" clip-rule="evenodd" d="M5.84556 3.28981H4.67629C4.18716 3.28981 3.71807 3.48411 3.3722 3.82998C3.02634 4.17585 2.83203 4.64494 2.83203 5.13407V16.1996C2.83203 16.6888 3.02634 17.1579 3.3722 17.5037C3.71807 17.8496 4.18716 18.0439 4.67629 18.0439H7.44269V11.589C7.44269 10.6107 7.8313 9.67254 8.52303 8.98081C9.21476 8.28907 10.153 7.90046 11.1312 7.90046H16.664V5.13407C16.664 4.64494 16.4697 4.17585 16.1238 3.82998C15.778 3.48411 15.3089 3.28981 14.8197 3.28981H13.6505C13.4886 3.00945 13.2558 2.77664 12.9754 2.61477C12.6951 2.4529 12.3771 2.36768 12.0533 2.36768H7.44269C7.11896 2.36768 6.80094 2.4529 6.52058 2.61477C6.24023 2.77664 6.00742 3.00945 5.84556 3.28981ZM11.5923 6.0562C11.7146 6.0562 11.8318 6.00762 11.9183 5.92116C12.0048 5.83469 12.0533 5.71742 12.0533 5.59513V4.673C12.0533 4.55072 12.0048 4.43345 11.9183 4.34698C11.8318 4.26051 11.7146 4.21194 11.5923 4.21194H7.90375C7.78147 4.21194 7.6642 4.26051 7.57773 4.34698C7.49126 4.43345 7.44269 4.55072 7.44269 4.673V5.59513C7.44269 5.71742 7.49126 5.83469 7.57773 5.92116C7.6642 6.00762 7.78147 6.0562 7.90375 6.0562H11.5923ZM11.1312 9.74473C10.6421 9.74473 10.173 9.93903 9.82712 10.2849C9.48126 10.6308 9.28695 11.0999 9.28695 11.589V18.966C9.28695 19.4552 9.48126 19.9243 9.82712 20.2701C10.173 20.616 10.6421 20.8103 11.1312 20.8103H17.5861C18.0753 20.8103 18.5444 20.616 18.8902 20.2701C19.2361 19.9243 19.4304 19.4552 19.4304 18.966V11.589C19.4304 11.0999 19.2361 10.6308 18.8902 10.2849C18.5444 9.93903 18.0753 9.74473 17.5861 9.74473H11.1312Z" fill="black" fill-opacity="0.5"/>
</svg>
