<svg width="23" height="23" viewBox="0 0 23 23" fill="none" xmlns="http://www.w3.org/2000/svg">
<path d="M8.52907 5.72451L12.7248 1.52881V4.35975C16.358 4.8116 19.1797 7.90996 19.1797 11.6723C19.1797 15.4345 16.3672 18.5329 12.7248 18.9848V17.122C15.3436 16.6794 17.3354 14.411 17.3354 11.6723C17.3354 8.93352 15.3436 6.66508 12.7248 6.22246V9.82799L8.52907 5.72451ZM4.49014 10.7501C4.65413 9.44122 5.17045 8.20142 5.98399 7.16303L7.29342 8.47246C6.79547 9.16405 6.48194 9.94787 6.35284 10.7501H4.49014ZM10.8805 17.1128V18.9755C9.59875 18.8188 8.35387 18.3208 7.2842 17.4909L8.61206 16.163C9.30366 16.661 10.0783 16.9837 10.8805 17.1128ZM7.29342 14.8813L5.98399 16.1815C5.15407 15.1118 4.6469 13.8761 4.49014 12.5944H6.35284C6.48194 13.3966 6.79547 14.1804 7.29342 14.8813Z" fill="black" fill-opacity="0.5"/>
</svg>
