<svg width="23" height="23" viewBox="0 0 23 23" fill="none" xmlns="http://www.w3.org/2000/svg">
<path d="M14.5823 5.72451L10.3866 1.52881V4.35975C6.75336 4.8116 3.93164 7.90996 3.93164 11.6723C3.93164 15.4345 6.74414 18.5329 10.3866 18.9848V17.122C7.76771 16.6794 5.7759 14.411 5.7759 11.6723C5.7759 8.93352 7.76771 6.66508 10.3866 6.22246V9.82799L14.5823 5.72451ZM18.6212 10.7501C18.4572 9.44122 17.9409 8.20142 17.1273 7.16303L15.8179 8.47246C16.3159 9.16405 16.6294 9.94787 16.7585 10.7501H18.6212ZM12.2308 17.1128V18.9755C13.5126 18.8188 14.7575 18.3208 15.8271 17.4909L14.4993 16.163C13.8077 16.661 13.0331 16.9837 12.2308 17.1128ZM15.8179 14.8813L17.1273 16.1815C17.9573 15.1118 18.4644 13.8761 18.6212 12.5944H16.7585C16.6294 13.3966 16.3159 14.1804 15.8179 14.8813Z" fill="black" fill-opacity="0.5"/>
</svg>
