<svg width="23" height="23" viewBox="0 0 23 23" fill="none" xmlns="http://www.w3.org/2000/svg">
<g clip-path="url(#clip0_1_4662)">
<path d="M5.99981 2.4502H2.64648V5.80353H5.99981V2.4502ZM21.0891 17.5395H17.7358V20.8928H21.0891V17.5395ZM5.99981 11.6715H2.64648V15.0248H5.99981V11.6715ZM11.8678 17.5395H8.51447V20.8928H11.8678V17.5395ZM15.2211 2.4502H11.8678V5.80353H15.2211V2.4502ZM21.0891 8.31818H17.7358V11.6715H21.0891V8.31818Z" stroke="black" stroke-opacity="0.5" stroke-width="1.84426" stroke-linejoin="round"/>
<path d="M6.00065 4.12646H11.8686M11.8686 19.2162H17.7366M6.00065 13.3482H13.5455V5.80336M14.0947 9.99445H17.7366M10.1917 17.5393V13.3441M4.32422 5.80336V11.6713M19.413 11.6713V17.5393" stroke="black" stroke-opacity="0.5" stroke-width="1.84426" stroke-linecap="round" stroke-linejoin="round"/>
</g>
<defs>
<clipPath id="clip0_1_4662">
<rect width="22.1311" height="22.1311" fill="white" transform="translate(0.802734 0.606445)"/>
</clipPath>
</defs>
</svg>
