<svg width="23" height="23" viewBox="0 0 23 23" fill="none" xmlns="http://www.w3.org/2000/svg">
<path d="M13.7453 3.35606C14.6236 3.86318 15.3879 4.54596 15.9905 5.36175C16.593 6.17755 17.0209 7.10883 17.2474 8.09742C17.4738 9.08601 17.494 10.1107 17.3067 11.1074C17.1193 12.1042 16.7284 13.0516 16.1585 13.8905L20.7175 18.4486C20.9713 18.6987 21.1188 19.0371 21.1292 19.3933C21.1397 19.7495 21.0122 20.096 20.7735 20.3605C20.5348 20.6251 20.2031 20.7873 19.8477 20.8133C19.4923 20.8393 19.1406 20.7272 18.8659 20.5003L18.7607 20.4053L14.2026 15.8463C13.1121 16.5871 11.843 17.022 10.5274 17.106C9.21176 17.19 7.89767 16.9198 6.72183 16.3237C5.546 15.7276 4.55138 14.8273 3.84148 13.7165C3.13157 12.6056 2.7323 11.3249 2.68522 10.0074L2.67969 9.74458L2.6843 9.48177C2.72966 8.20992 3.10329 6.97144 3.76886 5.88669C4.43443 4.80195 5.36931 3.90783 6.48264 3.29126C7.59597 2.67468 8.84987 2.35661 10.1225 2.36797C11.3951 2.37932 12.6431 2.71971 13.7453 3.35606ZM10.0567 6.05606C9.83088 6.05609 9.61288 6.13901 9.4441 6.28909C9.27532 6.43918 9.16749 6.64599 9.14106 6.8703L9.13461 6.97819V8.82245H7.29034L7.18245 8.82891C6.95833 8.85556 6.75177 8.9635 6.60189 9.13225C6.45202 9.30101 6.36924 9.51888 6.36924 9.74458C6.36924 9.97028 6.45202 10.1882 6.60189 10.3569C6.75177 10.5257 6.95833 10.6336 7.18245 10.6603L7.29034 10.6667H9.13461V12.511L9.14106 12.6189C9.16772 12.843 9.27565 13.0496 9.44441 13.1994C9.61317 13.3493 9.83103 13.4321 10.0567 13.4321C10.2824 13.4321 10.5003 13.3493 10.6691 13.1994C10.8378 13.0496 10.9458 12.843 10.9724 12.6189L10.9789 12.511V10.6667H12.8231L12.931 10.6603C13.1551 10.6336 13.3617 10.5257 13.5116 10.3569C13.6615 10.1882 13.7442 9.97028 13.7442 9.74458C13.7442 9.51888 13.6615 9.30101 13.5116 9.13225C13.3617 8.9635 13.1551 8.85556 12.931 8.82891L12.8231 8.82245H10.9789V6.97819L10.9724 6.8703C10.946 6.64599 10.8382 6.43918 10.6694 6.28909C10.5006 6.13901 10.2826 6.05609 10.0567 6.05606Z" fill="black" fill-opacity="0.5"/>
</svg>
