<svg width="34" height="34" viewBox="0 0 34 34" fill="none" xmlns="http://www.w3.org/2000/svg">
<path d="M9.25 23.75C10.5508 23.75 11.5938 24.793 11.5938 26.0938C11.5938 26.7154 11.3468 27.3115 10.9073 27.751C10.4677 28.1906 9.8716 28.4375 9.25 28.4375C8.6284 28.4375 8.03226 28.1906 7.59272 27.751C7.15318 27.3115 6.90625 26.7154 6.90625 26.0938C6.90625 25.4721 7.15318 24.876 7.59272 24.4365C8.03226 23.9969 8.6284 23.75 9.25 23.75ZM28 5V7.34375H25.6562L21.4375 16.2383L23.0313 19.1094C23.207 19.4375 23.3125 19.8242 23.3125 20.2344C23.3125 20.856 23.0656 21.4521 22.626 21.8917C22.1865 22.3312 21.5904 22.5781 20.9688 22.5781H6.90625V20.2344H20.4766C20.5543 20.2344 20.6288 20.2035 20.6837 20.1486C20.7387 20.0936 20.7695 20.0191 20.7695 19.9414C20.7695 19.8828 20.7578 19.8359 20.7344 19.8008L19.6797 17.8906H10.9492C10.0703 17.8906 9.29688 17.3984 8.89844 16.6836L4.70313 9.10156C4.6211 8.91406 4.5625 8.71484 4.5625 8.51562C4.5625 8.20482 4.68596 7.90675 4.90573 7.68698C5.1255 7.46722 5.42357 7.34375 5.73438 7.34375H23.0664L24.168 5M20.9688 23.75C22.2695 23.75 23.3125 24.793 23.3125 26.0938C23.3125 26.7154 23.0656 27.3115 22.626 27.751C22.1865 28.1906 21.5904 28.4375 20.9688 28.4375C20.3471 28.4375 19.751 28.1906 19.3115 27.751C18.8719 27.3115 18.625 26.7154 18.625 26.0938C18.625 25.4721 18.8719 24.876 19.3115 24.4365C19.751 23.9969 20.3471 23.75 20.9688 23.75Z" fill="black" fill-opacity="0.5"/>
</svg>
