<svg width="34" height="34" viewBox="0 0 34 34" fill="none" xmlns="http://www.w3.org/2000/svg">
<path d="M12.4492 13.4502C12.4492 11.9915 13.0287 10.5926 14.0601 9.56111C15.0916 8.52966 16.4905 7.9502 17.9492 7.9502C19.4079 7.9502 20.8069 8.52966 21.8383 9.56111C22.8698 10.5926 23.4492 11.9915 23.4492 13.4502C23.4492 14.9089 22.8698 16.3078 21.8383 17.3393C20.8069 18.3707 19.4079 18.9502 17.9492 18.9502C16.4905 18.9502 15.0916 18.3707 14.0601 17.3393C13.0287 16.3078 12.4492 14.9089 12.4492 13.4502ZM8.94922 24.9502C8.94922 23.6241 9.476 22.3523 10.4137 21.4147C11.3514 20.477 12.6231 19.9502 13.9492 19.9502H21.9492C23.2753 19.9502 24.5471 20.477 25.4848 21.4147C26.4224 22.3523 26.9492 23.6241 26.9492 24.9502V27.9502H8.94922V24.9502Z" fill="black" fill-opacity="0.5"/>
</svg>
