<svg width="34" height="34" viewBox="0 0 34 34" fill="none" xmlns="http://www.w3.org/2000/svg">
<path d="M13 8C13.7956 8 14.5587 8.31607 15.1213 8.87868C15.6839 9.44129 16 10.2044 16 11V12C16 12.7956 15.6839 13.5587 15.1213 14.1213C14.5587 14.6839 13.7956 15 13 15H11C10.2044 15 9.44129 14.6839 8.87868 14.1213C8.31607 13.5587 8 12.7956 8 12V11C8 10.2044 8.31607 9.44129 8.87868 8.87868C9.44129 8.31607 10.2044 8 11 8H13ZM13 17C13.7956 17 14.5587 17.3161 15.1213 17.8787C15.6839 18.4413 16 19.2044 16 20V23C16 23.7956 15.6839 24.5587 15.1213 25.1213C14.5587 25.6839 13.7956 26 13 26H11C10.2044 26 9.44129 25.6839 8.87868 25.1213C8.31607 24.5587 8 23.7956 8 23V20C8 19.2044 8.31607 18.4413 8.87868 17.8787C9.44129 17.3161 10.2044 17 11 17H13ZM23 8C23.7956 8 24.5587 8.31607 25.1213 8.87868C25.6839 9.44129 26 10.2044 26 11V23C26 23.7956 25.6839 24.5587 25.1213 25.1213C24.5587 25.6839 23.7956 26 23 26H21C20.2044 26 19.4413 25.6839 18.8787 25.1213C18.3161 24.5587 18 23.7956 18 23V11C18 10.2044 18.3161 9.44129 18.8787 8.87868C19.4413 8.31607 20.2044 8 21 8H23Z" fill="black" fill-opacity="0.5"/>
</svg>
