<svg width="306" height="70" viewBox="0 0 306 70" fill="none" xmlns="http://www.w3.org/2000/svg">
<path d="M63.4551 45.3331C63.4551 53.5143 63.4551 57.6049 60.9135 60.1464C58.372 62.688 54.2814 62.688 46.1002 62.688H25.2748C17.0936 62.688 13.003 62.688 10.4615 60.1464C7.91992 57.6049 7.91992 53.5143 7.91992 45.3331V24.5067C7.91992 16.3256 7.91992 12.235 10.4615 9.69342C13.003 7.15186 17.0936 7.15186 25.2748 7.15186H46.1002C54.2814 7.15186 58.372 7.15186 60.9135 9.69342C63.4551 12.235 63.4551 16.3256 63.4551 24.5067V45.3331ZM18.332 14.0942C16.6963 14.0942 15.8784 14.094 15.3701 14.6021C14.8618 15.1104 14.8613 15.9287 14.8613 17.5649V52.2749C14.8613 53.9109 14.8619 54.7285 15.3701 55.2368C15.8784 55.7451 16.6961 55.7456 18.332 55.7456H44.5576C46.1938 55.7456 47.0122 55.7451 47.5205 55.2368C48.0284 54.7285 48.0283 53.9105 48.0283 52.2749V51.2065C48.0283 49.5703 48.0288 48.752 47.5205 48.2437C47.0122 47.7353 46.1938 47.7358 44.5576 47.7358H26.0459C24.4097 47.7358 23.5913 47.7354 23.083 47.2271C22.5748 46.7187 22.5752 45.9002 22.5752 44.2642V17.5649C22.5752 15.9287 22.5747 15.1104 22.0664 14.6021C21.5581 14.0938 20.7397 14.0942 19.1035 14.0942H18.332ZM32.2168 14.0942C30.5808 14.0942 29.7622 14.0939 29.2539 14.6021C28.7456 15.1104 28.7451 15.9287 28.7451 17.5649V37.8569C28.7451 39.493 28.7456 40.3115 29.2539 40.8198C29.7622 41.3278 30.5809 41.3276 32.2168 41.3276H44.1426C44.5847 41.3278 44.9432 41.6863 44.9434 42.1284C44.9434 42.5707 44.5848 42.929 44.1426 42.9292H30.6738C29.0376 42.9292 28.2192 42.9297 27.7109 42.4214C27.2026 41.9131 27.2031 41.0947 27.2031 39.4585V15.6362C27.203 14.7844 26.512 14.0943 25.6602 14.0942C24.8083 14.0942 24.1173 14.7844 24.1172 15.6362V42.6626C24.1172 44.2988 24.1177 45.1172 24.626 45.6255C25.1343 46.1335 25.9522 46.1333 27.5879 46.1333H44.5576C46.1938 46.1333 47.0122 46.1338 47.5205 45.6255C48.0288 45.1172 48.0283 44.2988 48.0283 42.6626V41.5942C48.0283 39.9586 48.0285 39.1406 47.5205 38.6323C47.0122 38.124 46.1938 38.1235 44.5576 38.1235H35.3018C33.6657 38.1235 32.8472 38.1239 32.3389 37.6157C31.8306 37.1074 31.8311 36.289 31.8311 34.6528V20.769C31.8311 19.1329 31.8306 18.3145 32.3389 17.8062C32.8472 17.2978 33.6655 17.2974 35.3018 17.2974H49.957C51.5932 17.2974 52.4116 17.2979 52.9199 17.8062C53.428 18.3145 53.4277 19.133 53.4277 20.769V50.6128C53.4277 50.7919 53.4275 50.882 53.4209 50.9575C53.3474 51.7964 52.6826 52.4612 51.8438 52.5347C51.7683 52.5413 51.6787 52.5415 51.5 52.5415H51.1729C50.2882 52.5417 49.5713 53.2594 49.5713 54.144C49.5715 55.0285 50.2884 55.7454 51.1729 55.7456H53.042C54.6782 55.7456 55.4966 55.7451 56.0049 55.2368C56.5129 54.7285 56.5127 53.9107 56.5127 52.2749V17.5649C56.5127 15.9287 56.5132 15.1104 56.0049 14.6021C55.4966 14.0938 54.6782 14.0942 53.042 14.0942H32.2168ZM18.7178 17.2974C19.1437 17.2974 19.4891 17.643 19.4893 18.0688V47.4683C19.4893 49.1045 19.4897 49.9228 19.998 50.4312C20.5063 50.9393 21.3241 50.9399 22.96 50.9399H44.1426C44.5848 50.9401 44.9434 51.2985 44.9434 51.7407C44.9433 52.1829 44.5848 52.5413 44.1426 52.5415H21.418C19.782 52.5415 18.9634 52.5418 18.4551 52.0337C17.9468 51.5254 17.9463 50.7069 17.9463 49.0708V18.0688C17.9465 17.6431 18.292 17.2975 18.7178 17.2974Z" fill="#266CA8"/>
<path d="M80.7364 48.9199V20.3151H84.2295V45.7373H96.3002V48.9199H80.7364ZM109.535 49.2304C107.478 49.2304 105.68 48.8035 104.14 47.9496C102.614 47.0957 101.423 45.899 100.57 44.3595C99.7157 42.807 99.2887 40.9892 99.2887 38.9063V20.3151H102.782V38.9063C102.782 40.3294 103.06 41.5779 103.616 42.6517C104.186 43.7255 104.975 44.56 105.984 45.1551C107.006 45.7502 108.19 46.0478 109.535 46.0478C111.618 46.0478 113.261 45.3945 114.464 44.0878C115.681 42.7681 116.289 41.041 116.289 38.9063V20.3151H119.782V38.9063C119.782 40.9892 119.361 42.807 118.52 44.3595C117.692 45.899 116.509 47.0957 114.969 47.9496C113.442 48.8035 111.631 49.2304 109.535 49.2304ZM126.457 48.9199V20.3151H129.368L139.304 37.9748H139.46L149.396 20.3151H152.307V48.9199H148.813V33.4337L148.891 27.7283H148.736L140.003 43.3697H138.761L130.028 27.7283H129.873L129.951 33.4337V48.9199H126.457Z" fill="#266CA8"/>
<path d="M168.585 20.9199L156.748 49.5247H160.59L166.373 34.7372L169.944 25.9267H170.099L173.709 34.7372L179.492 49.5247H183.295L171.458 20.9199H168.585Z" fill="#266CA8"/>
<path d="M195.365 49.2304C193.852 49.2304 192.461 48.9199 191.193 48.2989C189.925 47.6779 188.845 46.8693 187.952 45.8731C187.06 44.877 186.426 43.8225 186.05 42.7099L189.311 41.3515C189.582 42.1795 189.996 42.9493 190.553 43.6608C191.122 44.3724 191.808 44.9481 192.61 45.388C193.425 45.8279 194.33 46.0478 195.327 46.0478C196.258 46.0478 197.125 45.8473 197.927 45.4462C198.729 45.0322 199.376 44.4694 199.868 43.7579C200.359 43.0334 200.605 42.2054 200.605 41.2739C200.605 40.3165 200.359 39.5079 199.868 38.8481C199.389 38.1753 198.794 37.619 198.082 37.1791C197.371 36.7393 196.659 36.39 195.948 36.1312C195.249 35.8595 194.68 35.646 194.24 35.4908C192.985 35.0509 191.801 34.4752 190.689 33.7636C189.576 33.0521 188.67 32.1594 187.972 31.0856C187.286 30.0118 186.943 28.7115 186.943 27.1849C186.943 25.7359 187.273 24.4745 187.933 23.4007C188.593 22.3269 189.518 21.4924 190.708 20.8973C191.898 20.3022 193.283 20.0046 194.861 20.0046C196.323 20.0046 197.597 20.244 198.684 20.7226C199.784 21.2013 200.702 21.8288 201.44 22.605C202.19 23.3813 202.766 24.2093 203.167 25.089L200.062 26.331C199.816 25.8782 199.46 25.4125 198.994 24.9338C198.529 24.4422 197.953 24.0282 197.267 23.6918C196.582 23.3554 195.792 23.1872 194.9 23.1872C193.697 23.1872 192.636 23.5301 191.717 24.2158C190.811 24.9015 190.359 25.917 190.359 27.2625C190.359 28.0905 190.533 28.8021 190.883 29.3972C191.245 29.9924 191.711 30.5034 192.28 30.9303C192.849 31.3443 193.444 31.6936 194.065 31.9783C194.699 32.2629 195.288 32.5022 195.831 32.6963C196.439 32.9033 197.196 33.1944 198.102 33.5696C199.02 33.9318 199.926 34.4299 200.819 35.0639C201.724 35.6849 202.481 36.487 203.089 37.4702C203.71 38.4535 204.021 39.6696 204.021 41.1186C204.021 42.7487 203.613 44.1719 202.798 45.388C201.996 46.6041 200.935 47.5485 199.615 48.2213C198.296 48.894 196.879 49.2304 195.365 49.2304ZM209.493 48.9199V20.3151H212.986V32.6963H227.774V20.3151H231.267V48.9199H227.774V35.8789H212.986V48.9199H209.493ZM234.76 48.9199L246.598 20.3151H249.47L261.308 48.9199H257.66L254.128 40.3812L253.662 39.1392L248.112 25.089H247.956L242.406 39.1392L241.94 40.3812L238.409 48.9199H234.76ZM240.272 41.4291V38.2465H255.797V41.4291H240.272ZM267.363 37.5479V34.3652H272.99C274.155 34.3652 275.164 34.1388 276.018 33.686C276.885 33.2203 277.551 32.5734 278.017 31.7454C278.495 30.9045 278.735 29.9277 278.735 28.815C278.735 27.1461 278.191 25.8459 277.105 24.9144C276.031 23.97 274.582 23.4977 272.758 23.4977H267.363V20.3151H272.99C274.853 20.3151 276.477 20.6644 277.861 21.363C279.246 22.0487 280.32 23.0255 281.083 24.2934C281.846 25.5483 282.228 27.0297 282.228 28.7374C282.228 30.4322 281.859 31.9459 281.122 33.2785C280.384 34.5981 279.343 35.6396 277.997 36.4029C276.652 37.1662 275.06 37.5479 273.223 37.5479H267.363ZM264.801 48.9199V20.3151H268.294V48.9199H264.801ZM287.002 48.9199V20.3151H302.682V23.4977H290.495V32.7739H300.741V35.9565H290.495V45.7373H302.682V48.9199H287.002Z" fill="#266CA8"/>
</svg>
