<svg width="26" height="26" viewBox="0 0 26 26" fill="none" xmlns="http://www.w3.org/2000/svg">
<path fill-rule="evenodd" clip-rule="evenodd" d="M13.0003 9.74984C11.2053 9.74984 9.75026 11.2049 9.75026 12.9998C9.75026 14.7948 11.2053 16.2498 13.0003 16.2498C14.7952 16.2498 16.2503 14.7948 16.2503 12.9998C16.2503 11.2049 14.7952 9.74984 13.0003 9.74984ZM11.0503 12.9998C11.0503 11.9229 11.9233 11.0498 13.0003 11.0498C14.0772 11.0498 14.9503 11.9229 14.9503 12.9998C14.9503 14.0768 14.0772 14.9498 13.0003 14.9498C11.9233 14.9498 11.0503 14.0768 11.0503 12.9998Z" fill="black" fill-opacity="0.5"/>
<path fill-rule="evenodd" clip-rule="evenodd" d="M13.0003 5.4165C9.08801 5.4165 6.45285 7.76014 4.92342 9.74712L4.89584 9.78294C4.54995 10.2322 4.23138 10.6459 4.01526 11.1351C3.78382 11.659 3.68359 12.23 3.68359 12.9998C3.68359 13.7697 3.78382 14.3407 4.01526 14.8646C4.23138 15.3538 4.54995 15.7675 4.89584 16.2167L4.92342 16.2526C6.45285 18.2395 9.08801 20.5832 13.0003 20.5832C16.9125 20.5832 19.5477 18.2395 21.0771 16.2526L21.1047 16.2168C21.4506 15.7675 21.7691 15.3538 21.9853 14.8646C22.2167 14.3407 22.3169 13.7697 22.3169 12.9998C22.3169 12.23 22.2167 11.659 21.9853 11.1351C21.7691 10.6459 21.4506 10.2322 21.1047 9.78292L21.0771 9.74712C19.5477 7.76014 16.9125 5.4165 13.0003 5.4165ZM5.95358 10.5401C7.36575 8.70543 9.66391 6.7165 13.0003 6.7165C16.3366 6.7165 18.6348 8.70543 20.0469 10.5401C20.427 11.0339 20.6497 11.329 20.7961 11.6604C20.933 11.9703 21.0169 12.3489 21.0169 12.9998C21.0169 13.6508 20.933 14.0294 20.7961 14.3392C20.6497 14.6707 20.427 14.9658 20.0469 15.4596C18.6348 17.2942 16.3366 19.2832 13.0003 19.2832C9.66391 19.2832 7.36575 17.2942 5.95358 15.4596C5.57348 14.9658 5.35083 14.6707 5.20439 14.3392C5.06752 14.0294 4.98359 13.6508 4.98359 12.9998C4.98359 12.3489 5.06752 11.9703 5.20439 11.6604C5.35083 11.329 5.57348 11.0339 5.95358 10.5401Z" fill="black" fill-opacity="0.5"/>
</svg>
