<svg width="26" height="26" viewBox="0 0 26 26" fill="none" xmlns="http://www.w3.org/2000/svg">
<path fill-rule="evenodd" clip-rule="evenodd" d="M3.99203 7.8701C4.43197 7.68155 4.94147 7.88535 5.13002 8.3253L4.33342 8.66669C5.13002 8.3253 5.13014 8.32558 5.13002 8.3253L5.12957 8.32426C5.12932 8.32369 5.1295 8.3241 5.12957 8.32426L5.13296 8.33194C5.13644 8.33975 5.1424 8.35303 5.15089 8.3714C5.16787 8.40817 5.1949 8.46526 5.23216 8.53979C5.30675 8.68896 5.42194 8.90715 5.57919 9.17132C5.89465 9.70131 6.37393 10.4072 7.02684 11.1103C7.18074 11.276 7.3436 11.441 7.51563 11.603C7.52282 11.6095 7.52993 11.6162 7.53695 11.623C8.82368 12.8279 10.6188 13.8667 13.0001 13.8667C14.0479 13.8667 14.9747 13.6667 15.7916 13.3451C16.8541 12.9269 17.7447 12.2973 18.4736 11.6131C19.2966 10.8406 19.9011 10.0101 20.3002 9.36955C20.499 9.05055 20.6447 8.78211 20.7393 8.59657C20.7866 8.50389 20.821 8.4322 20.8427 8.38555C20.8536 8.36224 20.8613 8.34522 20.8659 8.335L20.8702 8.3253C21.0588 7.88559 21.5683 7.6816 22.0082 7.8701C22.4481 8.05865 22.6519 8.56814 22.4634 9.00809L21.6668 8.66669C22.4634 9.00809 22.4634 9.00789 22.4634 9.00809L22.4615 9.01244L22.4584 9.01957L22.4485 9.04197C22.4402 9.06045 22.4286 9.08596 22.4137 9.11798C22.3839 9.18199 22.3406 9.2721 22.2835 9.38406C22.1694 9.6078 21.9996 9.91996 21.7714 10.2862C21.4224 10.8462 20.9319 11.5407 20.2885 12.2411L20.9796 12.9322C21.318 13.2706 21.318 13.8194 20.9796 14.1578C20.6411 14.4963 20.0924 14.4963 19.7539 14.1578L19.0258 13.4297C18.5368 13.8247 17.9895 14.1972 17.3818 14.5186L18.0599 15.5607C18.3209 15.9619 18.2073 16.4987 17.8061 16.7598C17.4049 17.0208 16.868 16.9072 16.607 16.506L15.7529 15.1934C15.1645 15.3738 14.5358 15.5017 13.8668 15.5616V16.9C13.8668 17.3787 13.4787 17.7667 13.0001 17.7667C12.5214 17.7667 12.1334 17.3787 12.1334 16.9V15.5617C11.4621 15.5018 10.8336 15.3737 10.247 15.1938L9.39318 16.506C9.13214 16.9072 8.59528 17.0208 8.19409 16.7598C7.79289 16.4987 7.67928 15.9619 7.94033 15.5607L8.61841 14.5186C8.01164 14.1974 7.46426 13.8249 6.9746 13.4295L6.24625 14.1578C5.90779 14.4963 5.35905 14.4963 5.0206 14.1578C4.68214 13.8194 4.68214 13.2706 5.0206 12.9322L5.71171 12.2411C4.97939 11.444 4.44415 10.6533 4.08974 10.0579C3.90845 9.75332 3.77312 9.49755 3.68182 9.31496C3.63614 9.22359 3.60138 9.15035 3.57732 9.09825C3.56528 9.07219 3.55591 9.0514 3.54917 9.03625L3.54104 9.01781L3.53845 9.01184L3.53752 9.00969L3.53714 9.00882C3.53698 9.00844 3.53683 9.00809 4.33342 8.66669L3.53714 9.00882C3.3486 8.56887 3.55208 8.05865 3.99203 7.8701Z" fill="black" fill-opacity="0.5"/>
</svg>
