<svg width="173" height="173" viewBox="0 0 173 173" fill="none" xmlns="http://www.w3.org/2000/svg">
<rect x="0.692" y="0.692" width="171.616" height="171.616" rx="85.808" stroke="black" stroke-opacity="0.02" stroke-width="1.384"/>
<rect x="25.6041" y="25.6041" width="123.176" height="123.176" rx="61.588" stroke="black" stroke-opacity="0.05" stroke-width="1.384"/>
<path fill-rule="evenodd" clip-rule="evenodd" d="M125.945 87.1919C125.945 108.594 108.596 125.944 87.1934 125.944C65.7913 125.944 48.4414 108.594 48.4414 87.1919C48.4414 65.7898 65.7913 48.4399 87.1934 48.4399C108.596 48.4399 125.945 65.7898 125.945 87.1919ZM102.812 75.4488C103.947 76.5838 103.947 78.4241 102.812 79.5591L83.4357 98.9351C82.3007 100.07 80.4605 100.07 79.3255 98.9351L71.5751 91.1847C70.4401 90.0497 70.4401 88.2094 71.5751 87.0744C72.7101 85.9394 74.5503 85.9394 75.6853 87.0744L81.3806 92.7697L90.041 84.1092L98.7015 75.4488C99.8365 74.3138 101.677 74.3138 102.812 75.4488Z" fill="#266CA8"/>
</svg>
