<svg width="23" height="22" viewBox="0 0 23 22" fill="none" xmlns="http://www.w3.org/2000/svg">
<path d="M11.1906 1.98842C14.1069 1.98842 14.5046 1.98842 15.6977 1.98842C16.7581 1.98842 17.2884 2.25354 17.6861 2.3861C18.2163 2.65123 18.614 2.78379 19.0117 3.18147C19.4094 3.57915 19.6745 3.97684 19.8071 4.50708C19.9396 4.90477 20.0722 5.43501 20.2047 6.4955C20.2047 7.68855 20.2047 7.95368 20.2047 11.0026C20.2047 14.0515 20.2047 14.3166 20.2047 15.5097C20.2047 16.5702 19.9396 17.1004 19.8071 17.4981C19.5419 18.0283 19.4094 18.426 19.0117 18.8237C18.614 19.2214 18.2163 19.4865 17.6861 19.6191C17.2884 19.7516 16.7581 19.8842 15.6977 20.0167C14.5046 20.0167 14.2395 20.0167 11.1906 20.0167C8.14166 20.0167 7.87654 20.0167 6.68349 20.0167C5.623 20.0167 5.09276 19.7516 4.69507 19.6191C4.16483 19.3539 3.76714 19.2214 3.36946 18.8237C2.97178 18.426 2.70665 18.0283 2.57409 17.4981C2.44153 17.1004 2.30897 16.5702 2.17641 15.5097C2.17641 14.3166 2.17641 14.0515 2.17641 11.0026C2.17641 7.95368 2.17641 7.68855 2.17641 6.4955C2.17641 5.43501 2.44153 4.90477 2.57409 4.50708C2.83921 3.97684 2.97178 3.57915 3.36946 3.18147C3.76714 2.78379 4.16483 2.51866 4.69507 2.3861C5.09276 2.25354 5.623 2.12098 6.68349 1.98842C7.87654 1.98842 8.27423 1.98842 11.1906 1.98842ZM11.1906 0C8.14166 0 7.87654 0 6.68349 0C5.49044 0 4.69507 0.265123 4.03227 0.530246C3.36946 0.795368 2.70665 1.19305 2.04385 1.85586C1.38104 2.51866 1.11592 3.04891 0.718234 3.84428C0.453112 4.50708 0.32055 5.30245 0.187988 6.4955C0.187988 7.68855 0.187988 8.08624 0.187988 11.0026C0.187988 14.0515 0.187988 14.3166 0.187988 15.5097C0.187988 16.7027 0.453112 17.4981 0.718234 18.1609C0.983357 18.8237 1.38104 19.4865 2.04385 20.1493C2.70665 20.8121 3.2369 21.0772 4.03227 21.4749C4.69507 21.74 5.49044 21.8726 6.68349 22.0052C7.87654 22.0052 8.27423 22.0052 11.1906 22.0052C14.1069 22.0052 14.5046 22.0052 15.6977 22.0052C16.8907 22.0052 17.6861 21.74 18.3489 21.4749C19.0117 21.2098 19.6745 20.8121 20.3373 20.1493C21.0001 19.4865 21.2652 18.9563 21.6629 18.1609C21.928 17.4981 22.0606 16.7027 22.1932 15.5097C22.1932 14.3166 22.1932 13.9189 22.1932 11.0026C22.1932 8.08624 22.1932 7.68855 22.1932 6.4955C22.1932 5.30245 21.928 4.50708 21.6629 3.84428C21.3978 3.18147 21.0001 2.51866 20.3373 1.85586C19.6745 1.19305 19.1442 0.92793 18.3489 0.530246C17.6861 0.265123 16.8907 0.132561 15.6977 0C14.5046 0 14.2395 0 11.1906 0Z" fill="#222222" fill-opacity="0.3"/>
<path d="M11.1906 5.30245C8.0091 5.30245 5.49044 7.82111 5.49044 11.0026C5.49044 14.1841 8.0091 16.7027 11.1906 16.7027C14.372 16.7027 16.8907 14.1841 16.8907 11.0026C16.8907 7.82111 14.372 5.30245 11.1906 5.30245ZM11.1906 14.7143C9.20215 14.7143 7.47886 13.1236 7.47886 11.0026C7.47886 9.01417 9.06959 7.29087 11.1906 7.29087C13.179 7.29087 14.9023 8.8816 14.9023 11.0026C14.9023 12.991 13.179 14.7143 11.1906 14.7143Z" fill="#222222" fill-opacity="0.3"/>
<path d="M17.0233 6.4955C17.7554 6.4955 18.3489 5.90201 18.3489 5.16989C18.3489 4.43777 17.7554 3.84428 17.0233 3.84428C16.2912 3.84428 15.6977 4.43777 15.6977 5.16989C15.6977 5.90201 16.2912 6.4955 17.0233 6.4955Z" fill="#222222" fill-opacity="0.3"/>
</svg>
