<svg width="22" height="22" viewBox="0 0 22 22" fill="none" xmlns="http://www.w3.org/2000/svg">
<path d="M4.95117 22.0052H0.27506V7.28921H4.95117V22.0052ZM2.61312 5.22623C1.10026 5.22623 0 4.12597 0 2.61311C0 1.10026 1.23779 0 2.61312 0C4.12597 0 5.22623 1.10026 5.22623 2.61311C5.22623 4.12597 4.12597 5.22623 2.61312 5.22623ZM22.0052 22.0052H17.3291V14.0283C17.3291 11.6902 16.3663 11.0026 14.991 11.0026C13.6157 11.0026 12.2404 12.1028 12.2404 14.1658V22.0052H7.56428V7.28921H11.9653V9.3522C12.3779 8.38947 14.0283 6.87661 16.3663 6.87661C18.9794 6.87661 21.7301 8.38947 21.7301 12.928V22.0052H22.0052Z" fill="#222222" fill-opacity="0.3"/>
</svg>
