<svg width="32" height="22" viewBox="0 0 32 22" fill="none" xmlns="http://www.w3.org/2000/svg">
<path d="M31.2142 3.34007C30.8212 1.96475 29.8388 0.982374 28.4635 0.589424C26.1058 3.51324e-07 16.0856 0 16.0856 0C16.0856 0 6.26187 3.51324e-07 3.70769 0.589424C2.33237 0.982374 1.34998 1.96475 0.95703 3.34007C0.564081 5.89424 0.564087 11.0026 0.564087 11.0026C0.564087 11.0026 0.564093 16.1109 1.15352 18.6651C1.54647 20.0404 2.52883 21.0228 3.90415 21.4157C6.26185 22.0052 16.2821 22.0052 16.2821 22.0052C16.2821 22.0052 26.1058 22.0052 28.6599 21.4157C30.0353 21.0228 31.0177 20.0404 31.4106 18.6651C32.0001 16.1109 32 11.0026 32 11.0026C32 11.0026 32 5.89424 31.2142 3.34007ZM13.1385 15.718V6.28719L21.3904 11.0026L13.1385 15.718Z" fill="#222222" fill-opacity="0.3"/>
</svg>
